<svg xmlns="http://www.w3.org/2000/svg" xmlns:xlink="http://www.w3.org/1999/xlink" width="71.099" height="79.523" viewBox="0 0 71.099 79.523">
  <defs>
    <filter id="Union_7" x="0" y="0" width="71.099" height="79.523" filterUnits="userSpaceOnUse">
      <feOffset input="SourceAlpha"/>
      <feGaussianBlur stdDeviation="6" result="blur"/>
      <feFlood flood-color="#e8d1b7" flood-opacity="0.4"/>
      <feComposite operator="in" in2="blur"/>
      <feComposite in="SourceGraphic"/>
    </filter>
  </defs>
  <g transform="matrix(1, 0, 0, 1, 0, 0)" filter="url(#Union_7)">
    <path id="Union_7-2" data-name="Union 7" d="M-3236.737-902.806a2.1,2.1,0,0,1-1.442-1.988,2.1,2.1,0,0,1,.154-.783,2.1,2.1,0,0,1-1.558-2.025,2.1,2.1,0,0,1,1.4-1.976v-1.9l-2.748-2.248a13.512,13.512,0,0,1-4.974-10.5,13.577,13.577,0,0,1,13.561-13.562h1.882v6.318h-1.4a1.405,1.405,0,0,0-1.4,1.4,1.405,1.405,0,0,0,1.4,1.4h1.4v3.51h2.809a2.81,2.81,0,0,1,2.807-2.808,2.81,2.81,0,0,1,2.808,2.808h4.212v.926a13.506,13.506,0,0,1-4.974,10.495l-2.748,2.249v1.9a2.1,2.1,0,0,1,1.405,1.977,2.1,2.1,0,0,1-1.559,2.024,2.106,2.106,0,0,1,.154.784,2.1,2.1,0,0,1-1.442,1.988,4.918,4.918,0,0,1-4.875,4.329A4.919,4.919,0,0,1-3236.737-902.806Zm4.876,2.925a3.517,3.517,0,0,0,3.439-2.807h-6.878A3.515,3.515,0,0,0-3231.861-899.881Zm-4.914-4.913a.7.7,0,0,0,.7.7h8.424a.7.7,0,0,0,.7-.7.7.7,0,0,0-.7-.7h-8.424A.7.7,0,0,0-3236.774-904.794Zm-1.4-2.808a.7.7,0,0,0,.7.7h11.232a.7.7,0,0,0,.7-.7.7.7,0,0,0-.7-.7h-11.232A.7.7,0,0,0-3238.178-907.6Zm4.914-10.53a1.405,1.405,0,0,0,1.4,1.4h1.4v7.02h3.51v-2.439l3.263-2.669a12.107,12.107,0,0,0,4.449-8.932h-4.2v-1.4a1.405,1.405,0,0,0-1.4-1.4,1.4,1.4,0,0,0-1.4,1.4v1.4h-4.213v4.212h-1.4A1.405,1.405,0,0,0-3233.264-918.132Zm-6.773,3.316,3.263,2.669v2.439h4.914v-5.616a2.811,2.811,0,0,1-2.809-2.808,2.811,2.811,0,0,1,2.809-2.808v-2.808h-4.212v-1.4a1.406,1.406,0,0,0-1.4-1.4,1.405,1.405,0,0,0-1.4,1.4v1.4h-5.606A12.107,12.107,0,0,0-3240.038-914.817Zm5.368-10.336h2.809v-2.106a2.811,2.811,0,0,1-2.809-2.808,2.811,2.811,0,0,1,2.809-2.808v-3.51h-.479a12.174,12.174,0,0,0-12.122,11.232h4.177a2.81,2.81,0,0,1,2.808-2.808A2.81,2.81,0,0,1-3234.669-925.152Zm18.252-4.212v-1.4a1.405,1.405,0,0,0-1.4-1.4,1.406,1.406,0,0,0-1.4,1.4v1.4h-5.616v-3.51a2.81,2.81,0,0,1-2.807-2.808,2.811,2.811,0,0,1,2.807-2.808v-1.4a2.109,2.109,0,0,1,2.106-2.106h9.828a2.109,2.109,0,0,1,2.106,2.106v8.424a2.109,2.109,0,0,1-2.106,2.106Zm1.4-1.4h2.106a.7.7,0,0,0,.7-.7v-8.424a.7.7,0,0,0-.7-.7h-9.828a.7.7,0,0,0-.7.7v2.808h-1.4a1.4,1.4,0,0,0-1.4,1.4,1.4,1.4,0,0,0,1.4,1.4h1.4v3.51h2.808a2.812,2.812,0,0,1,2.808-2.808A2.811,2.811,0,0,1-3215.013-930.768Z" transform="translate(3263.9 960)" fill="#e8d1b7"/>
  </g>
</svg>
