<svg xmlns="http://www.w3.org/2000/svg" xmlns:xlink="http://www.w3.org/1999/xlink" width="63.635" height="63.635" viewBox="0 0 63.635 63.635">
  <defs>
    <filter id="Union_10" x="0" y="0" width="63.635" height="63.635" filterUnits="userSpaceOnUse">
      <feOffset input="SourceAlpha"/>
      <feGaussianBlur stdDeviation="6" result="blur"/>
      <feFlood flood-color="#e8d1b7" flood-opacity="0.42"/>
      <feComposite operator="in" in2="blur"/>
      <feComposite in="SourceGraphic"/>
    </filter>
  </defs>
  <g id="grid_1_" data-name="grid (1)" transform="translate(16.159 16.068)">
    <path id="Path_987" data-name="Path 987" d="M434.649,4.729a30.829,30.829,0,0,0,3.816,0,.461.461,0,0,0,.427-.427,30.836,30.836,0,0,0,0-3.816.461.461,0,0,0-.427-.427,30.829,30.829,0,0,0-3.816,0,.461.461,0,0,0-.427.427,30.836,30.836,0,0,0,0,3.816A.461.461,0,0,0,434.649,4.729Zm.469-3.775c.837-.043,2.041-.043,2.878,0,.043.837.043,2.041,0,2.878-.837.043-2.041.043-2.878,0C435.074,3,435.074,1.792,435.117.954Z" transform="translate(-407.45 0)" fill="#e8d1b7"/>
    <path id="Path_988" data-name="Path 988" d="M217.568,4.729a30.83,30.83,0,0,0,3.816,0,.461.461,0,0,0,.427-.427,30.824,30.824,0,0,0,0-3.816.461.461,0,0,0-.427-.427,30.829,30.829,0,0,0-3.816,0,.461.461,0,0,0-.427.427,30.836,30.836,0,0,0,0,3.816A.461.461,0,0,0,217.568,4.729Zm.469-3.775c.837-.043,2.041-.043,2.878,0,.043.837.043,2.041,0,2.878-.837.043-2.041.043-2.878,0C217.993,3,217.993,1.792,218.037.954Z" transform="translate(-203.725 0)" fill="#e8d1b7"/>
    <path id="Path_989" data-name="Path 989" d="M221.384,434.221a30.812,30.812,0,0,0-3.816,0,.461.461,0,0,0-.427.427,30.836,30.836,0,0,0,0,3.816.461.461,0,0,0,.427.427,30.836,30.836,0,0,0,3.816,0,.461.461,0,0,0,.427-.427,30.824,30.824,0,0,0,0-3.816A.461.461,0,0,0,221.384,434.221ZM220.915,438c-.837.043-2.041.043-2.878,0-.043-.837-.043-2.041,0-2.878.837-.043,2.041-.043,2.878,0C220.958,435.955,220.958,437.159,220.915,438Z" transform="translate(-203.725 -407.451)" fill="#e8d1b7"/>
    <path id="Path_990" data-name="Path 990" d="M4.3,217.141a30.843,30.843,0,0,0-3.816,0,.462.462,0,0,0-.427.427,30.831,30.831,0,0,0,0,3.816.461.461,0,0,0,.427.427,30.83,30.83,0,0,0,3.816,0,.461.461,0,0,0,.427-.427c.039-.545.059-1.187.059-1.908s-.02-1.362-.059-1.908A.461.461,0,0,0,4.3,217.141Zm-.469,3.775c-.837.043-2.041.043-2.878,0-.043-.837-.043-2.042,0-2.878.837-.043,2.041-.043,2.878,0,.022.43.032.912.032,1.439S3.855,220.485,3.834,220.915Z" transform="translate(0 -203.726)" fill="#e8d1b7"/>
    <g transform="matrix(1, 0, 0, 1, -16.16, -16.07)" filter="url(#Union_10)">
      <path id="Union_10-2" data-name="Union 10" d="M-5823.368-844.616a.461.461,0,0,1,0-.922h5.23a.461.461,0,0,1,0,.922Zm-13.356,0a.461.461,0,0,1,0-.922h5.23a.461.461,0,0,1,0,.922Zm-4.524-4.524v-5.229a.462.462,0,0,1,.923,0v5.229a.451.451,0,0,1-.462.458A.45.45,0,0,1-5841.249-849.14Zm19.874-.515c0-.016-.063-.754-.13-2.063-.864-.037-1.9-.072-3.087-.1.066,1.319.129,2.064.13,2.08a.462.462,0,0,1-.421.5.462.462,0,0,1-.5-.421c0-.016-.066-.8-.135-2.173-1.143-.016-2.5-.016-3.643,0-.069,1.377-.134,2.156-.135,2.173a.462.462,0,0,1-.5.421.46.46,0,0,1-.419-.5c0-.016.063-.761.13-2.08-1.186.023-2.225.059-3.089.1-.066,1.309-.129,2.047-.13,2.063a.462.462,0,0,1-.5.421.461.461,0,0,1-.42-.5c0-.016.06-.708.123-1.941-1.231.064-1.925.123-1.939.125a.463.463,0,0,1-.5-.421.462.462,0,0,1,.419-.5c.016,0,.755-.063,2.063-.129.038-.865.073-1.9.1-3.089-1.319.066-2.064.129-2.08.13a.462.462,0,0,1-.5-.421.46.46,0,0,1,.419-.5c.016,0,.8-.067,2.174-.136.015-1.142.015-2.5,0-3.641-1.378-.069-2.158-.135-2.174-.136a.46.46,0,0,1-.419-.5.462.462,0,0,1,.5-.421c.016,0,.761.065,2.08.13-.023-1.186-.059-2.225-.1-3.089-1.308-.066-2.046-.129-2.062-.129a.462.462,0,0,1-.419-.5.463.463,0,0,1,.5-.421c.015,0,.708.06,1.939.125-.063-1.233-.122-1.925-.123-1.941a.461.461,0,0,1,.42-.5.46.46,0,0,1,.5.421c0,.015.064.753.13,2.063.864.037,1.9.072,3.089.1-.067-1.319-.129-2.064-.13-2.08a.46.46,0,0,1,.419-.5.462.462,0,0,1,.5.421c0,.016.066.795.135,2.173,1.143.015,2.5.015,3.643,0,.069-1.378.134-2.156.135-2.173a.461.461,0,0,1,.5-.421.462.462,0,0,1,.421.5c0,.016-.064.761-.13,2.08,1.185-.023,2.224-.059,3.087-.1.067-1.309.129-2.048.13-2.063a.461.461,0,0,1,.5-.421.46.46,0,0,1,.42.5c0,.016-.059.708-.123,1.941,1.233-.065,1.925-.123,1.939-.125a.463.463,0,0,1,.5.421.463.463,0,0,1-.421.5c-.016,0-.753.063-2.062.129-.038.863-.073,1.9-.1,3.089,1.319-.066,2.064-.129,2.079-.13a.462.462,0,0,1,.5.421.462.462,0,0,1-.421.5c-.016,0-.8.067-2.174.136-.015,1.142-.015,2.5,0,3.641,1.378.069,2.158.135,2.174.136a.462.462,0,0,1,.421.5.462.462,0,0,1-.46.422h-.04c-.015,0-.759-.065-2.079-.13.022,1.186.057,2.224.1,3.089,1.309.066,2.046.128,2.063.129a.463.463,0,0,1,.421.5.462.462,0,0,1-.459.422c-.069,0-.705-.06-1.98-.126.064,1.233.123,1.925.123,1.941a.46.46,0,0,1-.42.5l-.04,0A.462.462,0,0,1-5821.375-849.654Zm-3.262-3.081c1.182.022,2.219.057,3.089.094-.037-.869-.072-1.907-.094-3.087-.869-.037-1.907-.072-3.087-.092C-5824.707-854.643-5824.673-853.605-5824.636-852.736Zm-8.4-2.993c-.023,1.18-.057,2.218-.094,3.087.868-.037,1.907-.072,3.087-.094.037-.869.07-1.907.092-3.086C-5831.129-855.8-5832.167-855.766-5833.035-855.729Zm7.475,2.979c-.037-.872-.07-1.91-.091-3.086-1.064-.013-2.31-.013-3.375,0-.022,1.176-.056,2.214-.092,3.086q.849-.011,1.78-.012C-5826.72-852.762-5826.126-852.758-5825.56-852.75Zm.818-7.369c-.013,1.064-.013,2.31,0,3.375,1.175.021,2.212.054,3.085.091-.015-1.118-.015-2.438,0-3.556C-5822.53-860.176-5823.566-860.142-5824.742-860.12Zm-8.28,3.466c.874-.037,1.91-.07,3.087-.091.013-1.064.013-2.31,0-3.375-1.177-.022-2.213-.056-3.087-.092C-5833.007-859.092-5833.007-857.773-5833.021-856.654Zm7.356-.106c-.012-1.057-.012-2.29,0-3.347-1.057.013-2.29.013-3.347,0,.013,1.057.013,2.29,0,3.347.528-.006,1.1-.009,1.673-.009S-5826.194-856.766-5825.666-856.76Zm-3.36-4.269c1.064.013,2.31.013,3.375,0,.021-1.176.054-2.214.091-3.086-.566.007-1.16.01-1.778.01s-1.214,0-1.78-.01C-5829.081-863.242-5829.047-862.2-5829.025-861.029Zm4.389-3.1c-.037.869-.07,1.906-.092,3.086,1.18-.022,2.218-.056,3.087-.092.022-1.18.057-2.219.094-3.087C-5822.417-864.186-5823.455-864.151-5824.636-864.129Zm-8.4,2.994c.868.037,1.906.07,3.085.092-.022-1.179-.056-2.217-.092-3.086-1.18-.022-2.219-.057-3.087-.094C-5833.092-863.355-5833.058-862.316-5833.035-861.136Zm18.5-1.36v-5.229a.461.461,0,0,1,.922,0v5.229a.45.45,0,0,1-.461.458A.45.45,0,0,1-5814.536-862.5Zm-26.712,0v-5.229a.462.462,0,0,1,.923,0v5.229a.451.451,0,0,1-.462.458A.45.45,0,0,1-5841.249-862.5Zm17.88-8.831a.462.462,0,0,1,0-.924h5.23a.462.462,0,0,1,0,.924Zm-13.355,0a.462.462,0,0,1,0-.924h5.229a.462.462,0,0,1,0,.924Z" transform="translate(5859.25 890.25)" fill="#e8d1b7"/>
    </g>
    <path id="Path_992" data-name="Path 992" d="M465,320.283v-5.23a.461.461,0,0,0-.923,0v5.23A.461.461,0,0,0,465,320.283Z" transform="translate(-435.528 -295.24)" fill="#e8d1b7"/>
    <path id="Path_1000" data-name="Path 1000" d="M4.237,434.245a.461.461,0,0,0-.427.493,30.692,30.692,0,0,1,.024,3.281c-.837.043-2.041.043-2.878,0-.043-.837-.043-2.042,0-2.878.335-.017.7-.027,1.1-.031a.461.461,0,0,0-.009-.923c-.578.005-1.1.025-1.556.057a.461.461,0,0,0-.427.427,30.83,30.83,0,0,0,0,3.816.462.462,0,0,0,.427.427,30.836,30.836,0,0,0,3.816,0,.461.461,0,0,0,.427-.427,30.853,30.853,0,0,0,0-3.816A.462.462,0,0,0,4.237,434.245Z" transform="translate(0 -407.475)" fill="#e8d1b7"/>
    <path id="Path_1001" data-name="Path 1001" d="M438.4,217.08a.461.461,0,0,0-.427.493,30.662,30.662,0,0,1,.024,3.281c-.837.043-2.042.043-2.878,0-.043-.837-.043-2.041,0-2.878.335-.017.7-.027,1.1-.031a.461.461,0,0,0-.009-.923c-.578.005-1.1.025-1.556.058a.461.461,0,0,0-.427.427,30.836,30.836,0,0,0,0,3.816.461.461,0,0,0,.427.427,30.86,30.86,0,0,0,3.816,0,.461.461,0,0,0,.427-.427,30.836,30.836,0,0,0,0-3.816A.461.461,0,0,0,438.4,217.08Z" transform="translate(-407.45 -203.67)" fill="#e8d1b7"/>
    <path id="Path_1002" data-name="Path 1002" d="M438.466,434.247a30.824,30.824,0,0,0-3.816,0,.461.461,0,0,0-.427.427,30.836,30.836,0,0,0,0,3.816.462.462,0,0,0,.427.427c.454.033.977.052,1.556.057a.461.461,0,1,0,.009-.923c-.394,0-.761-.014-1.1-.031-.043-.837-.043-2.041,0-2.878.837-.043,2.041-.043,2.878,0a30.664,30.664,0,0,1-.024,3.281.461.461,0,0,0,.427.493h.034a.462.462,0,0,0,.46-.428,30.836,30.836,0,0,0,0-3.816A.462.462,0,0,0,438.466,434.247Z" transform="translate(-407.451 -407.475)" fill="#e8d1b7"/>
    <path id="Path_1003" data-name="Path 1003" d="M4.237.083A.461.461,0,0,0,3.81.577a30.66,30.66,0,0,1,.024,3.281C3,3.9,1.793,3.9.955,3.858.912,3.021.912,1.817.955.98c.335-.017.7-.027,1.1-.031A.461.461,0,1,0,2.042.026C1.464.031.94.051.486.083A.461.461,0,0,0,.059.511a30.829,30.829,0,0,0,0,3.816.461.461,0,0,0,.427.427,30.829,30.829,0,0,0,3.816,0,.461.461,0,0,0,.427-.427,30.829,30.829,0,0,0,0-3.816A.462.462,0,0,0,4.237.083Z" transform="translate(0 -0.025)" fill="#e8d1b7"/>
  </g>
</svg>
