<svg xmlns="http://www.w3.org/2000/svg" xmlns:xlink="http://www.w3.org/1999/xlink" width="73.723" height="65.703" viewBox="0 0 73.723 65.703">
  <defs>
    <filter id="Path_1030" x="0" y="0" width="73.723" height="65.703" filterUnits="userSpaceOnUse">
      <feOffset input="SourceAlpha"/>
      <feGaussianBlur stdDeviation="6" result="blur"/>
      <feFlood flood-color="#e8d1b7" flood-opacity="0.369"/>
      <feComposite operator="in" in2="blur"/>
      <feComposite in="SourceGraphic"/>
    </filter>
  </defs>
  <g id="cms" transform="translate(18 -36)">
    <g transform="matrix(1, 0, 0, 1, -18, 36)" filter="url(#Path_1030)">
      <path id="Path_1030-2" data-name="Path 1030" d="M19.752,74.644a.743.743,0,0,1,.743-.743H34.01a.743.743,0,1,1,0,1.485H20.495A.743.743,0,0,1,19.752,74.644Zm10.4,3.564a.743.743,0,0,0-.743-.743H20.495a.743.743,0,1,0,0,1.485h8.911A.743.743,0,0,0,30.148,78.208Zm-10.4-7.129V63.653a.743.743,0,0,1,.743-.743H34.01a.743.743,0,0,1,.743.743v7.426a.743.743,0,0,1-.743.743H20.495A.743.743,0,0,1,19.752,71.079Zm1.485-.743h12.03V64.4H21.238ZM4.455,57.713a.743.743,0,1,1-.743-.743A.743.743,0,0,1,4.455,57.713Zm3.342,0a.743.743,0,1,1-.743-.743A.743.743,0,0,1,7.8,57.713Zm3.342,0a.743.743,0,1,1-.743-.743A.743.743,0,0,1,11.139,57.713ZM.743,83.7A.743.743,0,0,1,0,82.96V56.228A2.228,2.228,0,0,1,2.228,54H35.495a2.228,2.228,0,0,1,2.228,2.228V82.96a.743.743,0,0,1-.743.743H30.594a.744.744,0,0,1-.741-.794.76.76,0,0,1,.767-.691h5.617V61.426H18.267V82.218h5.644a.734.734,0,0,1,.7.5.745.745,0,0,1-.7.988Zm.743-23.762H36.238V56.228a.743.743,0,0,0-.743-.743H2.228a.743.743,0,0,0-.743.743Zm15.3,1.485H1.485V82.218h15.3ZM3.193,65.139a.743.743,0,0,1,.743-.743H8.89a2.227,2.227,0,0,1,4.2,0h1.464a.743.743,0,1,1,0,1.485H13.09a2.227,2.227,0,0,1-4.2,0H3.936A.743.743,0,0,1,3.193,65.139Zm7.054,0a.743.743,0,1,0,.743-.743A.743.743,0,0,0,10.247,65.139ZM15.3,77.02a.743.743,0,0,1-.743.743H11.382a2.227,2.227,0,0,1-4.2,0H3.936a.743.743,0,0,1,0-1.485H7.182a2.227,2.227,0,0,1,4.2,0h3.172A.743.743,0,0,1,15.3,77.02Zm-5.272,0a.743.743,0,1,0-.743.743A.743.743,0,0,0,10.025,77.02ZM3.193,71.079a2.228,2.228,0,0,1,4.328-.743h7.034a.743.743,0,0,1,0,1.485H7.521a2.228,2.228,0,0,1-4.328-.743Zm1.485,0a.743.743,0,1,0,.743-.743A.743.743,0,0,0,4.678,71.079ZM27.252,82.218a.743.743,0,1,0,.743.743A.744.744,0,0,0,27.252,82.218Z" transform="translate(18 -36)" fill="#e8d1b7"/>
    </g>
  </g>
</svg>
