<svg xmlns="http://www.w3.org/2000/svg" width="56.653" height="31.584" viewBox="0 0 56.653 31.584">
  <g id="browser" transform="translate(-125 -208)" opacity="0.9">
    <path id="Path_308" data-name="Path 308" d="M324.614,222.3a3.281,3.281,0,0,1-3.277-3.278v-4.767A6.264,6.264,0,0,0,315.079,208H313.49a1.49,1.49,0,1,0,0,2.98h1.589a3.281,3.281,0,0,1,3.278,3.278v4.767a6.246,6.246,0,0,0,2.209,4.767,6.246,6.246,0,0,0-2.209,4.767v4.767a3.281,3.281,0,0,1-3.278,3.278H313.49a1.49,1.49,0,1,0,0,2.98h1.589a6.264,6.264,0,0,0,6.257-6.257v-4.767a3.281,3.281,0,0,1,3.277-3.278,1.49,1.49,0,0,0,0-2.98Z" transform="translate(-144.45)" fill="#181e27"/>
    <path id="Path_309" data-name="Path 309" d="M135.747,219.024v-4.767a3.281,3.281,0,0,1,3.278-3.278h1.589a1.49,1.49,0,0,0,0-2.98h-1.589a6.264,6.264,0,0,0-6.257,6.257v4.767a3.281,3.281,0,0,1-3.278,3.278,1.49,1.49,0,1,0,0,2.98,3.281,3.281,0,0,1,3.278,3.278v4.767a6.264,6.264,0,0,0,6.257,6.257h1.589a1.49,1.49,0,0,0,0-2.98h-1.589a3.281,3.281,0,0,1-3.278-3.278v-4.767a6.246,6.246,0,0,0-2.209-4.767A6.246,6.246,0,0,0,135.747,219.024Z" transform="translate(-3)" fill="#181e27"/>
    <path id="Path_310" data-name="Path 310" d="M289.49,320a1.492,1.492,0,1,0,1.053.437A1.5,1.5,0,0,0,289.49,320Z" transform="translate(-128.218 -89.752)" fill="#181e27"/>
    <path id="Path_311" data-name="Path 311" d="M249.49,320a1.492,1.492,0,1,0,1.053.437A1.5,1.5,0,0,0,249.49,320Z" transform="translate(-96.163 -89.752)" fill="#181e27"/>
    <path id="Path_312" data-name="Path 312" d="M209.49,320a1.492,1.492,0,1,0,1.053.437A1.492,1.492,0,0,0,209.49,320Z" transform="translate(-64.109 -89.752)" fill="#181e27"/>
  </g>
</svg>
