<svg xmlns="http://www.w3.org/2000/svg" xmlns:xlink="http://www.w3.org/1999/xlink" width="77.009" height="77.009" viewBox="0 0 77.009 77.009">
  <defs>
    <filter id="XMLID_744_" x="0" y="0" width="77.009" height="77.009" filterUnits="userSpaceOnUse">
      <feOffset input="SourceAlpha"/>
      <feGaussianBlur stdDeviation="6" result="blur"/>
      <feFlood flood-color="#e8d1b7" flood-opacity="0.502"/>
      <feComposite operator="in" in2="blur"/>
      <feComposite in="SourceGraphic"/>
    </filter>
  </defs>
  <g id="XMLID_816_" transform="translate(18 18)">
    <g id="XMLID_1663_">
      <g id="XMLID_709_">
        <path id="XMLID_710_" d="M231.731,364.99a.8.8,0,1,0,.566.235A.807.807,0,0,0,231.731,364.99Z" transform="translate(-212.433 -335.756)" fill="#e8d1b7"/>
        <path id="XMLID_734_" d="M422.571,335.12a.8.8,0,1,0,.566.235A.807.807,0,0,0,422.571,335.12Z" transform="translate(-387.988 -308.278)" fill="#e8d1b7"/>
        <path id="XMLID_735_" d="M126.74,287a.8.8,0,1,0,.566.235A.806.806,0,0,0,126.74,287Z" transform="translate(-115.852 -264.012)" fill="#e8d1b7"/>
        <g transform="matrix(1, 0, 0, 1, -18, -18)" filter="url(#XMLID_744_)">
          <path id="XMLID_744_2" data-name="XMLID_744_" d="M41.009,8.693a.8.8,0,0,0-.8-.8H38.975A8.653,8.653,0,0,0,38.3,6.27l.872-.872a.8.8,0,0,0,0-1.133L36.744,1.834a.8.8,0,0,0-1.133,0l-.872.872a8.659,8.659,0,0,0-1.622-.672V.8a.8.8,0,0,0-.8-.8H28.878a.8.8,0,0,0-.8.8V2.037a8.656,8.656,0,0,0-1.619.672l-.875-.875a.8.8,0,0,0-1.133,0L22.018,4.265a.8.8,0,0,0-.223.7H3.207A3.21,3.21,0,0,0,0,8.173v22.1A3.21,3.21,0,0,0,3.207,33.48H15.933V36.2H14.014a2.89,2.89,0,0,0-2.886,2.886v1.118a.8.8,0,0,0,.8.8H26.666a.8.8,0,0,0,.8-.8V39.09A2.89,2.89,0,0,0,24.581,36.2h-1.92V33.48h12.72a3.21,3.21,0,0,0,3.207-3.206V17.147l.588-.588a.8.8,0,0,0,0-1.133l-.875-.875a8.659,8.659,0,0,0,.672-1.619h1.236a.8.8,0,0,0,.8-.8ZM25.865,39.09v.318H12.73V39.09a1.286,1.286,0,0,1,1.284-1.284H24.581A1.286,1.286,0,0,1,25.865,39.09ZM21.06,36.2H17.535V33.48H21.06Zm15.926-5.93a1.606,1.606,0,0,1-1.6,1.6H3.207a1.606,1.606,0,0,1-1.6-1.6v-1.83H31.379a.8.8,0,1,0,0-1.6H1.6V24.59H7.716a.8.8,0,1,0,0-1.6H1.6V8.173a1.606,1.606,0,0,1,1.6-1.6H22.748a8.66,8.66,0,0,0-.519,1.325H20.985a.8.8,0,0,0-.8.8v3.438a.8.8,0,0,0,.8.8h1.246a8.665,8.665,0,0,0,.669,1.612l-.882.882a.8.8,0,0,0,0,1.133l2.431,2.431a.8.8,0,0,0,1.133,0l.882-.882a8.656,8.656,0,0,0,1.612.669v1.246a.8.8,0,0,0,.8.8h3.438a.8.8,0,0,0,.8-.8V18.781a8.656,8.656,0,0,0,1.616-.668l.878.878a.8.8,0,0,0,1.133,0l.242-.242Zm2.422-18.943H38.354a.8.8,0,0,0-.782.628,7.077,7.077,0,0,1-.95,2.289.8.8,0,0,0,.108,1l.747.747-1.3,1.3-.749-.749a.8.8,0,0,0-.925-.15.788.788,0,0,0-.072.041,7.077,7.077,0,0,1-2.288.946.8.8,0,0,0-.629.782v1.062H29.679V18.159a.8.8,0,0,0-.628-.782,7.078,7.078,0,0,1-2.284-.947.8.8,0,0,0-1,.109l-.753.753-1.3-1.3.753-.753a.8.8,0,0,0,.108-1,7.076,7.076,0,0,1-.947-2.283.8.8,0,0,0-.782-.628H21.786V9.494h1.062a.8.8,0,0,0,.782-.629,7.075,7.075,0,0,1,.945-2.286.8.8,0,0,0-.108-1l-.749-.749,1.3-1.3.747.747a.8.8,0,0,0,1.01.1,7.073,7.073,0,0,1,2.278-.943.8.8,0,0,0,.628-.782V1.6h1.836V2.654a.8.8,0,0,0,.629.782,7.077,7.077,0,0,1,2.293.949.8.8,0,0,0,1-.109l.743-.743,1.3,1.3-.743.743a.8.8,0,0,0-.108,1,7.073,7.073,0,0,1,.948,2.292.8.8,0,0,0,.782.629h1.052v1.836Z" transform="translate(18 18)" fill="#e8d1b7"/>
        </g>
        <path id="XMLID_999_" d="M324.966,68a4.966,4.966,0,1,0,4.966,4.966A4.972,4.972,0,0,0,324.966,68Zm0,8.33a3.364,3.364,0,1,1,3.364-3.364A3.368,3.368,0,0,1,324.966,76.33Z" transform="translate(-294.369 -62.553)" fill="#e8d1b7"/>
        <path id="XMLID_1012_" d="M154.471,187.22a.8.8,0,1,0,.566.235A.806.806,0,0,0,154.471,187.22Z" transform="translate(-141.362 -172.224)" fill="#e8d1b7"/>
        <path id="XMLID_1094_" d="M97.8,122.952a.8.8,0,0,0-.08-.608L96.371,120a.8.8,0,0,0-1.094-.293l-.77.445a5.065,5.065,0,0,0-.8-.463V118.8a.8.8,0,0,0-.8-.8H90.2a.8.8,0,0,0-.8.8v.889a5.072,5.072,0,0,0-.8.463l-.77-.445a.8.8,0,0,0-1.094.293l-1.352,2.342a.8.8,0,0,0,.293,1.094l.771.445c-.014.154-.021.308-.021.462s.007.309.021.462l-.771.445a.8.8,0,0,0-.293,1.094l1.352,2.342a.8.8,0,0,0,1.094.293l.77-.445a5.067,5.067,0,0,0,.8.463v.889a.8.8,0,0,0,.8.8h2.7a.8.8,0,0,0,.8-.8V129a5.074,5.074,0,0,0,.8-.463l.77.445a.8.8,0,0,0,1.094-.293l1.352-2.342a.8.8,0,0,0-.293-1.094l-.771-.445c.014-.154.021-.308.021-.462s-.007-.309-.021-.463l.771-.445A.8.8,0,0,0,97.8,122.952Zm-2.8.672a3.561,3.561,0,0,1,0,1.444.8.8,0,0,0,.384.856l.547.316-.551.955-.548-.317a.8.8,0,0,0-.934.1,3.5,3.5,0,0,1-1.248.721.8.8,0,0,0-.551.761v.632H91v-.632a.8.8,0,0,0-.551-.761,3.5,3.5,0,0,1-1.247-.721.8.8,0,0,0-.934-.1l-.548.317-.551-.955.547-.316a.8.8,0,0,0,.384-.856,3.565,3.565,0,0,1,0-1.444.8.8,0,0,0-.384-.856l-.547-.316.551-.955.548.317a.8.8,0,0,0,.934-.1,3.5,3.5,0,0,1,1.247-.721.8.8,0,0,0,.551-.761V119.6h1.1v.632a.8.8,0,0,0,.551.761,3.5,3.5,0,0,1,1.248.721.8.8,0,0,0,.934.1l.548-.317.551.955-.547.316A.8.8,0,0,0,95,123.624Z" transform="translate(-78.442 -108.549)" fill="#e8d1b7"/>
      </g>
    </g>
  </g>
</svg>
