<svg xmlns="http://www.w3.org/2000/svg" xmlns:xlink="http://www.w3.org/1999/xlink" width="73.674" height="73.674" viewBox="0 0 73.674 73.674">
  <defs>
    <filter id="Path_949" x="0" y="0" width="73.674" height="73.674" filterUnits="userSpaceOnUse">
      <feOffset input="SourceAlpha"/>
      <feGaussianBlur stdDeviation="6" result="blur"/>
      <feFlood flood-color="#e8d1b7" flood-opacity="0.412"/>
      <feComposite operator="in" in2="blur"/>
      <feComposite in="SourceGraphic"/>
    </filter>
  </defs>
  <g id="checklist" transform="translate(18 18)">
    <g transform="matrix(1, 0, 0, 1, -18, -18)" filter="url(#Path_949)">
      <path id="Path_949-2" data-name="Path 949" d="M26.774,19.444a1.816,1.816,0,0,1,1.011.306l4.244,2.829a3.035,3.035,0,0,0,1.686.51h3.959V21.875H33.715a1.819,1.819,0,0,1-1.012-.306L30.99,20.426V0H7.9V3.646H0V37.673H23.09V34.028h7.9V28.916c.038-.009.078-.012.116-.021l2.827-.706a7.909,7.909,0,0,1,1.918-.236h1.823V26.736H35.851a9.139,9.139,0,0,0-2.213.272l-2.827.706a7.946,7.946,0,0,1-4.419-.169L25.368,27.2a9.111,9.111,0,0,0-2.886-.468h-5.3A1.825,1.825,0,0,1,19,24.913h6.684a1.818,1.818,0,0,0,.213-3.624l.5-1.844ZM26.007,28.7a9.1,9.1,0,0,0,2.886.468c.295,0,.589-.026.882-.054v3.7H23.09V30.825a2.192,2.192,0,0,0,.467-.866l.5-1.843a7.842,7.842,0,0,1,.928.242Zm-3.169-.733-.453,1.676a1,1,0,0,1-.967.741h-.2a1,1,0,0,1-.967-1.263l.315-1.168h1.913C22.6,27.951,22.719,27.96,22.838,27.965Zm-3.527-.014-.23.85A2.2,2.2,0,0,0,20.124,31.3l-.191.762,1.179.295L21.3,31.6h.117a2.207,2.207,0,0,0,.458-.053v4.915H1.215V4.861h7.9V1.215h20.66v18.4l-1.314-.876a3.033,3.033,0,0,0-1.686-.51h-.047l2.529-9.357a2.218,2.218,0,0,0-2.14-2.8h-.2a2.221,2.221,0,0,0-2.14,1.639l-1.689,6.25V3.646H10.33V4.861H21.875V18.229H20.618a3,3,0,0,0-1.8.608H12.76v1.215h4.776l-1.215,1.215H12.76v1.215h2.346L14.091,23.5a1.886,1.886,0,0,0,1.884,3.15c0,.03-.009.058-.009.088a1.216,1.216,0,0,0,1.215,1.215ZM23.991,23.7H21.719L24.285,14.2l2.084.695Zm-4.662-3.72a1.837,1.837,0,0,1,1.289-.533h.992l-.5,1.834a3.01,3.01,0,0,0-2.036.879l-3.164,3.164a.681.681,0,0,1-1.164-.481.677.677,0,0,1,.2-.482Zm.608,3.038a1.831,1.831,0,0,1,.834-.468L20.46,23.7h-1.2ZM28.083,8.555l-.744,2.753-2.084-.695.7-2.581a1,1,0,0,1,.967-.741h.2a1,1,0,0,1,.967,1.263Zm-3.146,3.234,2.084.695-.336,1.24L24.6,13.029Zm.75,10.694a.608.608,0,0,1,0,1.215h-.438l.329-1.215Zm0,0" transform="translate(18 18)" fill="#e8d1b7"/>
    </g>
    <path id="Path_950" data-name="Path 950" d="M47.8,80H32v6.076H47.8Zm-1.215,4.861H33.215V81.215H46.583Zm0,0" transform="translate(-29.569 -73.924)" fill="#e8d1b7"/>
    <path id="Path_951" data-name="Path 951" d="M64,112h1.215v1.215H64Zm0,0" transform="translate(-59.139 -103.493)" fill="#e8d1b7"/>
    <path id="Path_952" data-name="Path 952" d="M96,112h1.215v1.215H96Zm0,0" transform="translate(-88.708 -103.493)" fill="#e8d1b7"/>
    <path id="Path_953" data-name="Path 953" d="M128,112h1.215v1.215H128Zm0,0" transform="translate(-118.278 -103.493)" fill="#e8d1b7"/>
    <path id="Path_954" data-name="Path 954" d="M160,112h1.215v1.215H160Zm0,0" transform="translate(-147.847 -103.493)" fill="#e8d1b7"/>
    <path id="Path_955" data-name="Path 955" d="M192,112h1.215v1.215H192Zm0,0" transform="translate(-177.417 -103.493)" fill="#e8d1b7"/>
    <path id="Path_956" data-name="Path 956" d="M39.292,211.646H38.076v2.431H33.215v-4.861h3.646V208H32v7.292h7.292Zm0,0" transform="translate(-29.569 -192.202)" fill="#e8d1b7"/>
    <path id="Path_957" data-name="Path 957" d="M65.636,178.344l-5.647,5.647-.786-.786-.859.859,1.645,1.645,6.506-6.506Zm0,0" transform="translate(-53.912 -164.798)" fill="#e8d1b7"/>
    <path id="Path_958" data-name="Path 958" d="M38.076,350.076H33.215v-4.861h3.646V344H32v7.292h7.292v-3.646H38.076Zm0,0" transform="translate(-29.569 -317.872)" fill="#e8d1b7"/>
    <path id="Path_959" data-name="Path 959" d="M59.2,319.205l-.859.859,1.645,1.645,6.506-6.506-.859-.859-5.647,5.647Zm0,0" transform="translate(-53.912 -290.468)" fill="#e8d1b7"/>
    <path id="Path_960" data-name="Path 960" d="M256,440h1.215v1.215H256Zm0,0" transform="translate(-236.555 -406.58)" fill="#e8d1b7"/>
    <path id="Path_961" data-name="Path 961" d="M152,440h6.684v1.215H152Zm0,0" transform="translate(-140.455 -406.58)" fill="#e8d1b7"/>
    <path id="Path_962" data-name="Path 962" d="M168,216h7.9v1.215H168Zm0,0" transform="translate(-155.24 -199.594)" fill="#e8d1b7"/>
  </g>
</svg>
