<svg xmlns="http://www.w3.org/2000/svg" xmlns:xlink="http://www.w3.org/1999/xlink" width="88.11" height="86.505" viewBox="0 0 88.11 86.505">
  <defs>
    <filter id="Union_6" x="0" y="0" width="88.11" height="86.505" filterUnits="userSpaceOnUse">
      <feOffset input="SourceAlpha"/>
      <feGaussianBlur stdDeviation="8" result="blur"/>
      <feFlood flood-color="#e8d1b7" flood-opacity="0.251"/>
      <feComposite operator="in" in2="blur"/>
      <feComposite in="SourceGraphic"/>
    </filter>
  </defs>
  <g id="web-design" transform="translate(24 13.751)">
    <g transform="matrix(1, 0, 0, 1, -24, -13.75)" filter="url(#Union_6)">
      <path id="Union_6-2" data-name="Union 6" d="M-2953.3-708.746a.784.784,0,0,1-.783-.784V-717.6a.784.784,0,0,1,.783-.783h23.68a.784.784,0,0,1,.784.783v8.069a.784.784,0,0,1-.784.784Zm.784-1.567h22.113v-6.5h-22.113Zm-15.555,1.567a.784.784,0,0,1-.783-.784V-717.6a.784.784,0,0,1,.783-.783h12.04a.784.784,0,0,1,.784.783v8.069a.784.784,0,0,1-.784.784Zm.784-1.567h10.473v-6.5h-10.473Zm20.541-2.468a.784.784,0,0,1-.783-.784.783.783,0,0,1,.783-.783h13.156a.784.784,0,0,1,.783.783.784.784,0,0,1-.783.784Zm-3.523-.229a.829.829,0,0,1-.1-.12.838.838,0,0,1-.072-.134.8.8,0,0,1-.044-.148.733.733,0,0,1-.015-.153.739.739,0,0,1,.015-.153.766.766,0,0,1,.044-.146.82.82,0,0,1,.072-.136.776.776,0,0,1,.1-.119.72.72,0,0,1,.119-.1.858.858,0,0,1,.135-.072.87.87,0,0,1,.147-.046.831.831,0,0,1,.306,0,.812.812,0,0,1,.147.046.807.807,0,0,1,.136.072.776.776,0,0,1,.119.1.784.784,0,0,1,.1.119.82.82,0,0,1,.072.136.748.748,0,0,1,.044.146.725.725,0,0,1,.016.153.719.719,0,0,1-.016.153.766.766,0,0,1-.044.148.838.838,0,0,1-.072.134.791.791,0,0,1-.1.12.835.835,0,0,1-.119.1.749.749,0,0,1-.136.072.8.8,0,0,1-.147.045.789.789,0,0,1-.153.015A.793.793,0,0,1-2950.269-713.011Zm8.609-6.484a.784.784,0,0,1-.783-.784v-15.448a.783.783,0,0,1,.783-.783h12.04a.784.784,0,0,1,.784.783v15.448a.784.784,0,0,1-.784.784Zm.784-1.567h10.473v-13.882h-10.473Zm-27.195,1.567a.784.784,0,0,1-.783-.784v-15.448a.784.784,0,0,1,.783-.783h23.787a.784.784,0,0,1,.784.783v15.448a.784.784,0,0,1-.784.784Zm10.625-1.567h11.29l-3.185-4.247h-4.919l-.55.733h2.624a.784.784,0,0,1,.784.783.784.784,0,0,1-.784.784h-3.8Zm-8.608,0h6.65l1.072-1.429-3.244-3.756Zm-1.233-.969,5.118-5.927a.786.786,0,0,1,.593-.272.785.785,0,0,1,.593.272l3.613,4.183,4.942-6.59a.785.785,0,0,1,.627-.313.783.783,0,0,1,.626.313l6.107,8.142v-12.721h-22.22Zm14.2-4.845h2.569l-1.284-1.713Zm17,4.222a.784.784,0,0,1-.783-.784.784.784,0,0,1,.783-.783h3.856a.784.784,0,0,1,.784.783.784.784,0,0,1-.784.784Zm-3.122-.015a.821.821,0,0,1-.147-.045.9.9,0,0,1-.136-.072.768.768,0,0,1-.119-.1.771.771,0,0,1-.1-.119.9.9,0,0,1-.072-.136.812.812,0,0,1-.045-.147.786.786,0,0,1-.015-.153.793.793,0,0,1,.015-.153.812.812,0,0,1,.045-.147.888.888,0,0,1,.072-.135.777.777,0,0,1,.1-.12.821.821,0,0,1,.119-.1.9.9,0,0,1,.136-.072.814.814,0,0,1,.147-.044.787.787,0,0,1,.707.213.846.846,0,0,1,.1.12.888.888,0,0,1,.072.135.738.738,0,0,1,.044.147.723.723,0,0,1,.015.153.717.717,0,0,1-.015.153.738.738,0,0,1-.044.147.9.9,0,0,1-.072.136.892.892,0,0,1-.1.119.788.788,0,0,1-.553.229A.8.8,0,0,1-2939.2-722.669Zm.152-3.129a.784.784,0,0,1-.783-.784.784.784,0,0,1,.783-.783h6.826a.783.783,0,0,1,.783.783.783.783,0,0,1-.783.784Zm-21.88-5.477a2.772,2.772,0,0,1,2.769-2.769,2.772,2.772,0,0,1,2.769,2.769,2.772,2.772,0,0,1-2.769,2.769A2.773,2.773,0,0,1-2960.933-731.274Zm1.567,0a1.2,1.2,0,0,0,1.2,1.2,1.2,1.2,0,0,0,1.2-1.2,1.2,1.2,0,0,0-1.2-1.2A1.2,1.2,0,0,0-2959.366-731.274Zm20.313,2.333a.784.784,0,0,1-.783-.784.784.784,0,0,1,.783-.783h6.826a.783.783,0,0,1,.783.783.783.783,0,0,1-.783.784Zm0-3.144a.784.784,0,0,1-.783-.784.784.784,0,0,1,.783-.783h6.826a.783.783,0,0,1,.783.783.783.783,0,0,1-.783.784Zm-29.11-5.541a.784.784,0,0,1-.783-.783v-8.059a.784.784,0,0,1,.783-.783h38.543a.783.783,0,0,1,.783.783v8.059a.783.783,0,0,1-.783.783Zm.784-1.567h36.976v-6.491h-36.976Zm34.1-.671-.64-.64a2.489,2.489,0,0,1-1.127.267,2.489,2.489,0,0,1-1.77-.733,2.486,2.486,0,0,1-.733-1.769,2.487,2.487,0,0,1,.733-1.77,2.506,2.506,0,0,1,3.54,0,2.488,2.488,0,0,1,.734,1.77,2.493,2.493,0,0,1-.268,1.127l.64.64a.783.783,0,0,1,0,1.108.781.781,0,0,1-.553.229A.782.782,0,0,1-2933.281-739.865Zm-2.429-3.537a.932.932,0,0,0-.274.662.932.932,0,0,0,.274.661.932.932,0,0,0,.662.274.928.928,0,0,0,.661-.274.93.93,0,0,0,.275-.661.93.93,0,0,0-.275-.662.932.932,0,0,0-.661-.274A.934.934,0,0,0-2935.71-743.4Zm-25.184,3.165a.784.784,0,0,1-.783-.784.783.783,0,0,1,.783-.783h16.282a.783.783,0,0,1,.783.783.783.783,0,0,1-.783.784Zm19.1-.015a.86.86,0,0,1-.147-.045.837.837,0,0,1-.135-.072.77.77,0,0,1-.12-.1.8.8,0,0,1-.1-.119.836.836,0,0,1-.072-.136.766.766,0,0,1-.044-.146.746.746,0,0,1-.015-.153.741.741,0,0,1,.015-.154.775.775,0,0,1,.044-.147.828.828,0,0,1,.072-.135.8.8,0,0,1,.1-.119.774.774,0,0,1,.12-.1.717.717,0,0,1,.135-.072.748.748,0,0,1,.147-.045.762.762,0,0,1,.306,0,.748.748,0,0,1,.147.045.711.711,0,0,1,.136.072.767.767,0,0,1,.119.1.815.815,0,0,1,.1.119.828.828,0,0,1,.072.135.775.775,0,0,1,.044.147.742.742,0,0,1,.016.154.789.789,0,0,1-.229.554.763.763,0,0,1-.119.1.857.857,0,0,1-.136.072.748.748,0,0,1-.147.045.793.793,0,0,1-.153.014A.8.8,0,0,1-2941.795-740.252Z" transform="translate(2992.95 771.25)" fill="#e8d1b7"/>
    </g>
  </g>
</svg>
