<svg xmlns="http://www.w3.org/2000/svg" xmlns:xlink="http://www.w3.org/1999/xlink" width="78" height="78.001" viewBox="0 0 78 78.001">
  <defs>
    <filter id="Path_922" x="0" y="0" width="78" height="78.001" filterUnits="userSpaceOnUse">
      <feOffset input="SourceAlpha"/>
      <feGaussianBlur stdDeviation="6" result="blur"/>
      <feFlood flood-color="#e8d1b7" flood-opacity="0.369"/>
      <feComposite operator="in" in2="blur"/>
      <feComposite in="SourceGraphic"/>
    </filter>
  </defs>
  <g id="programing" transform="translate(17 17)">
    <ellipse id="Ellipse_61" data-name="Ellipse 61" cx="1" cy="0.5" rx="1" ry="0.5" transform="translate(19 13)" fill="#e8d1b7"/>
    <ellipse id="Ellipse_62" data-name="Ellipse 62" cx="1" cy="0.5" rx="1" ry="0.5" transform="translate(23 13)" fill="#e8d1b7"/>
    <path id="Path_917" data-name="Path 917" d="M29.318,21.553l-1.212.606.071.143a2.87,2.87,0,0,0,5.134,0l.071-.143-1.212-.606L32.1,21.7a1.515,1.515,0,0,1-2.71,0Z" transform="translate(-8.744 -6.63)" fill="#e8d1b7"/>
    <path id="Path_918" data-name="Path 918" d="M5,45.419H9.065V40H5Zm1.355-4.065H7.71v2.71H6.355Z" transform="translate(-1.29 -12.58)" fill="#e8d1b7"/>
    <path id="Path_919" data-name="Path 919" d="M1,40H2.355v5.419H1Z" transform="translate(0 -12.58)" fill="#e8d1b7"/>
    <path id="Path_920" data-name="Path 920" d="M5.065,30H1v5.419H5.065ZM3.71,34.065H2.355v-2.71H3.71Z" transform="translate(0 -9.355)" fill="#e8d1b7"/>
    <path id="Path_921" data-name="Path 921" d="M9,30h1.355v5.419H9Z" transform="translate(-2.581 -9.355)" fill="#e8d1b7"/>
    <g transform="matrix(1, 0, 0, 1, -17, -17)" filter="url(#Path_922)">
      <path id="Path_922-2" data-name="Path 922" d="M43,14.548A10.814,10.814,0,0,0,28.553,4.338a8.108,8.108,0,0,0-13.933,1.4H2.355A1.356,1.356,0,0,0,1,7.1v8.129a1.356,1.356,0,0,0,1.355,1.355h4.4l1.558,2.077a1.58,1.58,0,0,0,2.845-.948V16.581h2.731a10.907,10.907,0,0,0,.845,3.672,6.605,6.605,0,0,0-1.544.77v-.377H9.129v5.419H10.2L9.258,30.77a6.66,6.66,0,0,0,3.227,7.089l.849.486.322,2.414A2.59,2.59,0,0,0,16.216,43H27.783a2.59,2.59,0,0,0,2.56-2.242l.322-2.414.849-.486a6.659,6.659,0,0,0,3.228-7.089l-1.1-5.493A10.848,10.848,0,0,0,43,14.548Zm-12.814,6.1h4.052a12.5,12.5,0,0,1-1.475,2.412A6.614,6.614,0,0,0,30.186,20.645ZM34.23,8.452H30.095a12.027,12.027,0,0,1,2.067-3.116A12.118,12.118,0,0,1,34.23,8.452Zm7.381,5.419H36.878a16.018,16.018,0,0,0-.669-4.065h4.153A9.393,9.393,0,0,1,41.611,13.871Zm-6.087,0H30.129V9.807h4.646A14.4,14.4,0,0,1,35.524,13.871Zm-5.9,5.419a10.9,10.9,0,0,0,.51-3.285v-.78h5.4a14.451,14.451,0,0,1-.747,4.065Zm7.265-4.065h4.729a9.42,9.42,0,0,1-1.252,4.065H36.205A15.9,15.9,0,0,0,36.884,15.226Zm2.532-6.774h-3.7a13.963,13.963,0,0,0-1.87-3.228A9.475,9.475,0,0,1,39.415,8.452Zm-8.93-3.233a13.3,13.3,0,0,0-.831,1.2,8.113,8.113,0,0,0-.381-.9A9.342,9.342,0,0,1,30.485,5.218ZM15.226,9.129a6.774,6.774,0,1,1,13.548,0v6.877A9.594,9.594,0,0,1,23.99,24.3a2.026,2.026,0,0,0-.505-.965,8.488,8.488,0,0,0,3.935-7.168v-5.68a5.419,5.419,0,1,0-10.839,0v5.68a8.488,8.488,0,0,0,3.935,7.168,2.023,2.023,0,0,0-.505.965,9.594,9.594,0,0,1-4.785-8.291Zm10.839,1.605a6.987,6.987,0,0,0-2.822-1.482,2.125,2.125,0,0,0-2.017-1.478A1.938,1.938,0,0,0,19.29,9.71v.1h1.355v-.1a.582.582,0,0,1,.581-.581A.775.775,0,0,1,22,9.9a.75.75,0,0,1-.656.742l-3.409.425v-.587a4.065,4.065,0,1,1,8.129,0Zm-8.129,1.7,3.577-.447a2.109,2.109,0,0,0,1.7-1.332,5.618,5.618,0,0,1,2.85,2.08v1.811a4.065,4.065,0,0,1-8.129,0Zm7.052,7.5-.154-.774a5.464,5.464,0,0,0,.8-.6A7.2,7.2,0,0,1,24.988,19.933Zm-5.82-.774-.154.774a7.152,7.152,0,0,1-.648-1.378,5.388,5.388,0,0,0,.8.6Zm1.266.575a5.38,5.38,0,0,0,3.132,0l.312,1.557A7.11,7.11,0,0,1,22,22.611a7.115,7.115,0,0,1-1.877-1.32Zm.889,4.975a.67.67,0,0,1,.583-.658l.094.041.094-.041a.67.67,0,0,1,.583.658v1.355a.677.677,0,0,1-1.355,0ZM9.807,15.226V17.71a.235.235,0,0,1-.407.135l-1.964-2.62H2.355V7.1H14.139a8.079,8.079,0,0,0-.268,2.032v.4L12.318,7.973l-.958.958,2.231,2.231L11.36,13.392l.958.958L13.871,12.8v2.429ZM10.484,22h1.355v.23a6.616,6.616,0,0,0-1.328,2.48h-.027ZM15.1,30.807H28.9a1.229,1.229,0,0,1,1.228,1.228,1.2,1.2,0,0,1-.011.163l-.9,6.738H14.78l-.9-6.738a1.3,1.3,0,0,1-.01-.163A1.229,1.229,0,0,1,15.1,30.807ZM27.783,41.645H16.217A1.231,1.231,0,0,1,15,40.58l-.039-.289H29.039L29,40.58A1.231,1.231,0,0,1,27.783,41.645Zm3.108-4.995.57-4.274a2.637,2.637,0,0,0,.022-.342,2.587,2.587,0,0,0-2.032-2.521V27.579l.606-1.212-1.212-.606-.749,1.5v2.192H15.9V27.26l-.749-1.5-1.212.606.606,1.211v1.935a2.586,2.586,0,0,0-2.032,2.521,2.619,2.619,0,0,0,.022.341l.57,4.275a5.3,5.3,0,0,1-2.522-5.615l1.108-5.54a5.273,5.273,0,0,1,3.654-4.013,10.938,10.938,0,0,0,4.619,4.327v.255a2.032,2.032,0,0,0,4.065,0V25.81a10.93,10.93,0,0,0,4.619-4.327A5.272,5.272,0,0,1,32.3,25.5l1.108,5.54a5.289,5.289,0,0,1-2.521,5.614Zm2.951-12.774a14.105,14.105,0,0,0,1.876-3.232h3.691A9.455,9.455,0,0,1,33.842,23.877Z" transform="translate(17 17)" fill="#e8d1b7"/>
    </g>
    <path id="Path_923" data-name="Path 923" d="M6.775,11.293,3.586,14.482,6.775,17.67l.958-.958L5.5,14.482l2.231-2.231Z" transform="translate(-0.834 -3.32)" fill="#e8d1b7"/>
    <path id="Path_924" data-name="Path 924" d="M0,0H5.586V1.354H0Z" transform="translate(7.791 13.705) rotate(-75.992)" fill="#e8d1b7"/>
  </g>
</svg>
