<svg id="Layer_1" data-name="Layer 1" xmlns="http://www.w3.org/2000/svg" width="674.534" height="249.21" viewBox="0 0 674.534 249.21">
  <path id="Path_1168" data-name="Path 1168" d="M33.96,248.369s-44.921-26.921-21.6-103.024S23.821-1.052,142.91,1.878s137.153,43.758,200,43.6,111.08-4.425,166.274-.457c69.106,4.967,144.962,44.442,163.973,93.915s-6.608,108.552-6.608,108.552Z" transform="translate(-5.647 -1.79)" fill="#e4f0ff"/>
  <path id="Path_1169" data-name="Path 1169" d="M287.292,80.592l-.717,6.565a36.566,36.566,0,0,1,3.8.663c1.156.332,4.422-6.119,4.422-6.119s-3.486-1.495-3.652-1.495S287.292,80.592,287.292,80.592Z" transform="translate(317.988 88.547)" fill="#f9b5b2"/>
  <path id="Path_1170" data-name="Path 1170" d="M306.274,94.493l3.242,46.328h-1.621L302.762,95Z" transform="translate(336.635 105.006)" fill="#07085b"/>
  <path id="Path_1171" data-name="Path 1171" d="M290.308,94.493l-3.241,46.328h1.621L293.82,95Z" transform="translate(318.554 105.006)" fill="#07085b"/>
  <path id="Path_1172" data-name="Path 1172" d="M335.214,71.559s-25.911-.768-27.587-.649-3.227,5.512-3.227,5.512-7.569,28.08-7.418,28.852-7.061,18.867-7.061,18.867,6.22-.165,6.5,0,24.053-2.041,24.388-2.255,1.541-4.358,1.6-4.579,1.872-16.33,1.872-16.33l.936-8.881s3.578-7.621,3.633-7.642,3.359-6.7,3.578-7.031,3.633-4.026,3.743-4.358S335.214,71.559,335.214,71.559Z" transform="translate(321.841 77.823)" fill="#57ace5"/>
  <path id="Path_1173" data-name="Path 1173" d="M335.211,71.451s-8.934-.266-16.648-.46c3,1.765,4.679,6.7,3.431,15.478-1.06,7.462-2.239,15.557-6.937,25.267-2.419,5-12.837,2.2-21.376,2.695-1.84,4.774-3.758,9.6-3.758,9.6s6.22-.165,6.5,0,24.053-2.041,24.388-2.255,1.541-4.358,1.6-4.579,1.872-16.33,1.872-16.33l.936-8.881s3.578-7.621,3.633-7.642,3.357-6.7,3.578-7.031,3.633-4.026,3.743-4.358S335.211,71.451,335.211,71.451Z" transform="translate(321.844 77.931)" fill="#57ace5" opacity="0.3"/>
  <path id="Path_1174" data-name="Path 1174" d="M287.722,124.756h0a1.611,1.611,0,0,1,1.5-1.71c2.769-.188,8.757-.616,14.916-1.2,11.8-1.12,16.072-2.037,17.6-2.516A1.594,1.594,0,0,0,322.8,118.2a62.041,62.041,0,0,0,.861-7.939c.77-10.873,2.042-28.8,13.212-38.643a1.609,1.609,0,0,1,2.336.233h0A1.61,1.61,0,0,1,339,74.042c-10.176,8.936-11.344,25.414-12.127,36.45-.446,6.291-.722,9.38-2.1,10.817-.663.693-1.9,1.982-19.844,3.707-6.368.611-12.635,1.06-15.5,1.253a1.609,1.609,0,0,1-1.714-1.512ZM322.527,119Z" transform="translate(319.305 78.198)" fill="#026eaf"/>
  <path id="Path_1175" data-name="Path 1175" d="M288.081,102.491s.709-24.93,2.026-27.8,5.974-3.42,5.974-3.42,12.146-1.8,15.3,1.179c.236.223,5.725,7.51,4.848,42.072,0,0-10.429-5.738-28.15-8.679Z" transform="translate(319.722 77.626)" fill="#02ccc0"/>
  <g id="Group_526" data-name="Group 526" transform="translate(372.794 66.85)" opacity="0.3">
    <path id="Path_1176" data-name="Path 1176" d="M189.547,78.959h45.438l20.87-46.1H210.417Z" transform="translate(-166.585 -32.854)" fill="#fff"/>
    <path id="Path_1177" data-name="Path 1177" d="M234.751,32.854l-20.87,46.1h45.438l20.87-46.1Z" transform="translate(-138.552 -32.854)" fill="#fff"/>
    <path id="Path_1178" data-name="Path 1178" d="M178.877,102.53h45.438l20.871-46.106H199.748Z" transform="translate(-178.877 -5.7)" fill="#fff"/>
    <path id="Path_1179" data-name="Path 1179" d="M203.211,102.53h45.438l20.87-46.106H224.081Z" transform="translate(-150.843 -5.7)" fill="#fff"/>
  </g>
  <rect id="Rectangle_488" data-name="Rectangle 488" width="5.891" height="23.878" transform="translate(309.641 84.644)" fill="#142666"/>
  <rect id="Rectangle_489" data-name="Rectangle 489" width="4.69" height="23.829" transform="translate(367.241 103.551) rotate(90)" fill="#70c0fd"/>
  <rect id="Rectangle_490" data-name="Rectangle 490" width="4.69" height="23.829" transform="translate(370.411 98.843) rotate(90)" fill="#142666"/>
  <rect id="Rectangle_491" data-name="Rectangle 491" width="4.69" height="23.829" transform="translate(365.479 94.255) rotate(90)" fill="#fff"/>
  <rect id="Rectangle_492" data-name="Rectangle 492" width="6.023" height="33.144" transform="translate(316.32 75.025)" fill="#fff"/>
  <rect id="Rectangle_493" data-name="Rectangle 493" width="5.547" height="29.49" transform="translate(303.395 78.678)" fill="#70c0fd"/>
  <path id="Path_1180" data-name="Path 1180" d="M173.331,64.979l-4.985,2.439-12.911-26.5,4.986-2.439Z" transform="translate(166.912 40.476)" fill="#70c0fd"/>
  <rect id="Rectangle_494" data-name="Rectangle 494" width="95.28" height="2.697" transform="translate(298.991 108.002)" fill="#4188e4"/>
  <rect id="Rectangle_495" data-name="Rectangle 495" width="5.232" height="21.208" transform="translate(526.461 89.3)" fill="#142666"/>
  <rect id="Rectangle_496" data-name="Rectangle 496" width="4.167" height="21.164" transform="translate(560.8 106.093) rotate(90)" fill="#fff"/>
  <rect id="Rectangle_497" data-name="Rectangle 497" width="4.167" height="21.164" transform="translate(563.616 101.913) rotate(90)" fill="#97cef7"/>
  <rect id="Rectangle_498" data-name="Rectangle 498" width="4.167" height="21.164" transform="translate(560.8 97.837) rotate(90)" fill="#142666"/>
  <rect id="Rectangle_499" data-name="Rectangle 499" width="5.349" height="29.438" transform="translate(532.393 80.758)" fill="#70c0fd"/>
  <rect id="Rectangle_500" data-name="Rectangle 500" width="4.927" height="26.193" transform="translate(520.913 84.002)" fill="#fff"/>
  <rect id="Rectangle_501" data-name="Rectangle 501" width="5.232" height="21.208" transform="translate(572.781 89.3)" fill="#142666"/>
  <rect id="Rectangle_502" data-name="Rectangle 502" width="5.349" height="29.438" transform="translate(578.713 80.758)" fill="#70c0fd"/>
  <rect id="Rectangle_503" data-name="Rectangle 503" width="4.927" height="26.193" transform="translate(567.233 84.002)" fill="#fff"/>
  <path id="Path_1181" data-name="Path 1181" d="M292.946,64.476l-4.429,2.166L277.051,43.1l4.427-2.166Z" transform="translate(307.015 43.309)" fill="#fff"/>
  <rect id="Rectangle_504" data-name="Rectangle 504" width="84.628" height="2.397" transform="translate(517.001 110.048)" fill="#4188e4"/>
  <path id="Path_1182" data-name="Path 1182" d="M284.989,119.97l12.633-5.853a.376.376,0,0,0,.181-.5l-.323-.7a.376.376,0,0,0-.492-.182l-12.633,5.858a.376.376,0,0,0-.182.5l.323.7A.376.376,0,0,0,284.989,119.97Z" transform="translate(315.177 125.983)" fill="#fff"/>
  <path id="Path_1183" data-name="Path 1183" d="M295.069,111.1l2.207,3.623c.273.447.213.995-.125,1.151l-11.727,5.433a.94.94,0,0,1-1.025-.208,1.9,1.9,0,0,1-.46-1.859c.341-1.976,3.508-3.911,4.65-5.953a.39.39,0,0,1,.175-.167l5.347-2.477A.81.81,0,0,1,295.069,111.1Z" transform="translate(314.893 123.563)" fill="#02ccc0"/>
  <path id="Path_1184" data-name="Path 1184" d="M288.712,113.278h0a.291.291,0,0,0-.078-.343,2.494,2.494,0,0,0-3.124-.42.238.238,0,0,0-.013.308h0c.068.109.178.149.251.1a2.147,2.147,0,0,1,2.727.357C288.563,113.357,288.657,113.355,288.712,113.278Z" transform="translate(316.687 125.303)" fill="#fff"/>
  <path id="Path_1185" data-name="Path 1185" d="M288.251,113.77h0a.291.291,0,0,0-.076-.343,2.5,2.5,0,0,0-3.126-.421.239.239,0,0,0-.011.309h0c.068.109.179.149.251.1a2.145,2.145,0,0,1,2.726.357C288.1,113.847,288.2,113.846,288.251,113.77Z" transform="translate(316.157 125.868)" fill="#fff"/>
  <path id="Path_1186" data-name="Path 1186" d="M287.823,114.227h0a.291.291,0,0,0-.076-.343,2.494,2.494,0,0,0-3.124-.421.239.239,0,0,0-.012.309h0c.066.109.178.149.251.1a2.145,2.145,0,0,1,2.726.357C287.675,114.3,287.774,114.3,287.823,114.227Z" transform="translate(315.664 126.395)" fill="#fff"/>
  <path id="Path_1187" data-name="Path 1187" d="M288.587,115.723c-.237-2.672.744-3.758,1.563-4.193a.4.4,0,0,1,.529.157l1.23,2.021c.273.447.213.995-.125,1.151l-2.622,1.215a.413.413,0,0,1-.575-.351Z" transform="translate(320.264 124.583)" fill="#e87b50" opacity="0.3"/>
  <path id="Path_1188" data-name="Path 1188" d="M274.667,118.977l13.417-3.706a.376.376,0,0,0,.259-.459l-.205-.744a.376.376,0,0,0-.456-.259l-13.417,3.706a.376.376,0,0,0-.261.459l.205.744a.376.376,0,0,0,.457.259Z" transform="translate(303.491 127.244)" fill="#fff"/>
  <path id="Path_1189" data-name="Path 1189" d="M286.33,112.11l1.587,3.938c.2.485.048,1.016-.311,1.115l-12.455,3.44a.94.94,0,0,1-.977-.376,1.9,1.9,0,0,1-.15-1.909c.657-1.893,4.1-3.285,5.557-5.113a.382.382,0,0,1,.2-.134l5.678-1.57C285.785,111.415,286.152,111.672,286.33,112.11Z" transform="translate(303.329 124.581)" fill="#02ccc0"/>
  <path id="Path_1190" data-name="Path 1190" d="M278.935,114.027h0a.292.292,0,0,0-.02-.351,2.493,2.493,0,0,0-3.014-.926.238.238,0,0,0-.063.3h0c.049.125.152.177.234.138a2.154,2.154,0,0,1,2.631.8C278.776,114.079,278.873,114.094,278.935,114.027Z" transform="translate(305.584 125.779)" fill="#fff"/>
  <path id="Path_1191" data-name="Path 1191" d="M278.4,114.438h0a.288.288,0,0,0-.02-.351,2.493,2.493,0,0,0-3.014-.926.238.238,0,0,0-.063.3h0c.048.125.152.177.234.138a2.154,2.154,0,0,1,2.631.8C278.241,114.486,278.339,114.5,278.4,114.438Z" transform="translate(304.968 126.253)" fill="#fff"/>
  <path id="Path_1192" data-name="Path 1192" d="M277.9,114.816h0a.288.288,0,0,0-.02-.351,2.5,2.5,0,0,0-3.014-.926.238.238,0,0,0-.063.3h0c.048.125.152.177.234.138a2.154,2.154,0,0,1,2.631.8C277.745,114.87,277.842,114.885,277.9,114.816Z" transform="translate(304.396 126.691)" fill="#fff"/>
  <path id="Path_1193" data-name="Path 1193" d="M278.712,116.364c.2-2.675,1.345-3.582,2.225-3.884a.4.4,0,0,1,.5.242l.886,2.2c.2.485.048,1.016-.311,1.115l-2.786.769a.412.412,0,0,1-.515-.438Z" transform="translate(308.927 125.705)" fill="#e87b50" opacity="0.3"/>
  <path id="Path_1194" data-name="Path 1194" d="M292.417,90.5c.227-1.979.427-3.793.427-4.033,0-.551-1.5-13.906-1.5-13.906a60.516,60.516,0,0,0-4.568,17.1A9.786,9.786,0,0,0,292.417,90.5Z" transform="translate(318.216 79.744)" fill="#0a9"/>
  <path id="Path_1195" data-name="Path 1195" d="M289.018,83.547l.175.09.045-.376Z" transform="translate(320.802 92.066)" fill="#f4a640"/>
  <path id="Path_1196" data-name="Path 1196" d="M306.293,87.042s-30.242,3.383-31.857,13.68,4.772,40.644,4.772,40.644,5.065-.335,6.973-1.512c0,0-1.908-33.835.877-36.043s18.058-7.5,18.351-8.09S306.293,87.042,306.293,87.042Z" transform="translate(303.702 96.422)" fill="#202121"/>
  <path id="Path_1197" data-name="Path 1197" d="M299.866,87.042s-20.112,11.033-20.112,17.505,7.781,30.6,13.506,35.9a25.169,25.169,0,0,0,6.606-2.206l-6.9-31.188s30.687-4.122,32.591-11.328l-7.542-7.944Z" transform="translate(310.129 96.422)" fill="#333"/>
  <rect id="Rectangle_505" data-name="Rectangle 505" width="2.275" height="62.302" transform="translate(541.731 183.464)" fill="#183658"/>
  <rect id="Rectangle_506" data-name="Rectangle 506" width="2.275" height="62.302" transform="translate(563.201 183.464)" fill="#183658"/>
  <rect id="Rectangle_507" data-name="Rectangle 507" width="2.275" height="62.302" transform="translate(628.142 183.464)" fill="#183658"/>
  <rect id="Rectangle_508" data-name="Rectangle 508" width="2.275" height="62.302" transform="translate(649.612 183.464)" fill="#183658"/>
  <rect id="Rectangle_509" data-name="Rectangle 509" width="122.656" height="3.973" rx="0.466" transform="translate(535.639 180.227)" fill="#fee4cb"/>
  <path id="Path_1198" data-name="Path 1198" d="M298.107,68.676V74.9a.892.892,0,0,1-.51.808,5.477,5.477,0,0,1-5.058.013.877.877,0,0,1-.426-.763V69.339Z" transform="translate(324.367 75.264)" fill="#ffc0bb"/>
  <path id="Path_1199" data-name="Path 1199" d="M298.107,72.011V68.676l-5.993.663v2.83A10.376,10.376,0,0,0,298.107,72.011Z" transform="translate(324.367 75.264)" fill="#f99893"/>
  <path id="Path_1200" data-name="Path 1200" d="M291.925,66.3a1.54,1.54,0,1,1-2.014-1.317A1.719,1.719,0,0,1,291.925,66.3Z" transform="translate(320.729 70.942)" fill="#f99893"/>
  <path id="Path_1201" data-name="Path 1201" d="M290.9,76.059a7.967,7.967,0,0,1-.511-1.355,14.936,14.936,0,0,1-.547-3.745c-.006-.251-.028-.494-.054-.739a8.024,8.024,0,1,1,15.983-.291,1.73,1.73,0,0,1,1.566-.014,2.423,2.423,0,0,1-2.217,4.176,1.516,1.516,0,0,1-.342-.251,7.525,7.525,0,0,1-7.935,6.379,7.187,7.187,0,0,1-4.732-2.369,3.263,3.263,0,0,1-.251-.273,7.018,7.018,0,0,1-.96-1.518Z" transform="translate(321.639 66.817)" fill="#ffc0bb"/>
  <path id="Path_1202" data-name="Path 1202" d="M293.833,65.77a.7.7,0,1,0,.758-.639A.7.7,0,0,0,293.833,65.77Z" transform="translate(326.345 71.178)" fill="#333"/>
  <path id="Path_1203" data-name="Path 1203" d="M291.033,65.715a.7.7,0,1,0,.752-.64.7.7,0,0,0-.752.64Z" transform="translate(323.119 71.113)" fill="#333"/>
  <path id="Path_1204" data-name="Path 1204" d="M293.495,65.169a6.6,6.6,0,0,1,1.024-.251,3.483,3.483,0,0,1,.981-.01,3.179,3.179,0,0,1,.936.271l.118.048c.039.016.074.041.113.06l.23.125c.154.084.3.189.47.272a3.127,3.127,0,0,0-.311-.465,2.54,2.54,0,0,0-.418-.383,2.275,2.275,0,0,0-1.072-.43,2.38,2.38,0,0,0-1.146.125A2.192,2.192,0,0,0,293.495,65.169Z" transform="translate(325.959 70.32)" fill="#333"/>
  <path id="Path_1205" data-name="Path 1205" d="M242.238,94.493l3.242,46.328h-1.621L238.726,95Z" transform="translate(262.865 105.006)" fill="#07085b"/>
  <path id="Path_1206" data-name="Path 1206" d="M226.273,94.493l-3.241,46.328h1.621L229.784,95Z" transform="translate(244.784 105.006)" fill="#07085b"/>
  <path id="Path_1207" data-name="Path 1207" d="M271.178,71.559s-25.911-.768-27.587-.649-3.227,5.512-3.227,5.512-7.569,28.08-7.418,28.852-7.061,18.867-7.061,18.867,6.22-.165,6.5,0,24.053-2.041,24.388-2.255,1.541-4.358,1.6-4.579,1.872-16.33,1.872-16.33l.936-8.881s3.578-7.621,3.633-7.642,3.359-6.7,3.578-7.031,3.633-4.026,3.743-4.358S271.178,71.559,271.178,71.559Z" transform="translate(248.071 77.823)" fill="#57ace5"/>
  <path id="Path_1208" data-name="Path 1208" d="M271.175,71.451s-8.934-.266-16.648-.46c3,1.765,4.679,6.7,3.431,15.478-1.06,7.462-2.239,15.557-6.937,25.267-2.419,5-12.837,2.2-21.376,2.695-1.84,4.774-3.758,9.6-3.758,9.6s6.22-.165,6.5,0,24.053-2.041,24.388-2.255,1.541-4.358,1.6-4.579,1.872-16.33,1.872-16.33l.936-8.881s3.578-7.621,3.633-7.642,3.357-6.7,3.578-7.031,3.633-4.026,3.743-4.358S271.175,71.451,271.175,71.451Z" transform="translate(248.074 77.931)" fill="#57ace5" opacity="0.3"/>
  <path id="Path_1209" data-name="Path 1209" d="M223.687,124.756h0a1.611,1.611,0,0,1,1.5-1.71c2.769-.188,8.757-.616,14.916-1.2,11.8-1.12,16.072-2.037,17.6-2.516a1.593,1.593,0,0,0,1.067-1.128,62.017,62.017,0,0,0,.861-7.939c.77-10.873,2.042-28.8,13.212-38.643a1.609,1.609,0,0,1,2.336.233h0a1.61,1.61,0,0,1-.209,2.189c-10.176,8.936-11.344,25.414-12.127,36.45-.446,6.291-.722,9.38-2.1,10.817-.663.693-1.9,1.982-19.844,3.707-6.368.611-12.636,1.06-15.5,1.253a1.609,1.609,0,0,1-1.714-1.512ZM258.491,119Z" transform="translate(245.535 78.198)" fill="#026eaf"/>
  <path id="Path_1210" data-name="Path 1210" d="M294.27,65.189a2.2,2.2,0,0,0-.877-.694,2.351,2.351,0,0,0-1.135-.208,2.255,2.255,0,0,0-1.1.355,2.491,2.491,0,0,0-.445.353,3.1,3.1,0,0,0-.341.442c.178-.071.327-.165.487-.239l.238-.1c.04-.016.076-.038.116-.051l.125-.04a3.164,3.164,0,0,1,.953-.205,3.4,3.4,0,0,1,.976.078,6.5,6.5,0,0,1,1,.314Z" transform="translate(322.364 70.202)" fill="#333"/>
  <path id="Path_1211" data-name="Path 1211" d="M293.682,65.039a9.935,9.935,0,0,0-.779,1.1,9.573,9.573,0,0,0-.638,1.2,3.646,3.646,0,0,0-.217.663,1.3,1.3,0,0,0-.02.188.587.587,0,0,0,.006.1.537.537,0,0,0,.034.115c.011.02.022.04.035.059l.03.035c.021.023.04.046.063.068.044.04.086.083.133.118a3.165,3.165,0,0,0,.581.367,4.388,4.388,0,0,0,.626.259,7.394,7.394,0,0,1-1.062-.792,1.515,1.515,0,0,1-.108-.115l-.048-.059-.023-.029a.045.045,0,0,0,0-.015.512.512,0,0,1,.015-.25,3.6,3.6,0,0,1,.214-.605c.172-.4.376-.8.571-1.2S293.492,65.447,293.682,65.039Z" transform="translate(324.27 71.074)" fill="#f99893"/>
  <path id="Path_1212" data-name="Path 1212" d="M303.806,61.778s-2.21-2.057-7.391-1.888-6.249,2.93-6.669,6.9l-.008,4.37s1.547-1,3.419-4.913c0,0,2.786,3.444,4.058,3.083s-.386-2.83-.386-2.83,5.472,5.462,8.944,5.556c0,0,2.285-6.127-.222-8.456,0,0,1.939.153,2.055-.239s-.895-1.013-2.769-.846c0,0,1.416-2.652.681-2.954S303.806,61.778,303.806,61.778Z" transform="translate(321.631 64.739)" fill="#333"/>
  <path id="Path_1213" data-name="Path 1213" d="M291.72,67.728a2.7,2.7,0,0,0,4.833-.046Z" transform="translate(323.914 74.119)" fill="#fff"/>
  <path id="Path_1214" data-name="Path 1214" d="M45.25,36.237H198.643a1.568,1.568,0,0,1,1.568,1.568v93.677a3.007,3.007,0,0,1-3.007,3.007H45.25a3.007,3.007,0,0,1-3.007-3.007V39.244A3.007,3.007,0,0,1,45.25,36.237Z" transform="translate(36.513 37.894)" fill="#09083c"/>
  <rect id="Rectangle_510" data-name="Rectangle 510" width="152.346" height="90.699" rx="0.285" transform="translate(81.528 77.909)" fill="#70c0fd"/>
  <path id="Path_1215" data-name="Path 1215" d="M195.88,48.79V39.041A.973.973,0,0,0,195,37.992H44.406a.976.976,0,0,0-.877,1.049v61.327Z" transform="translate(37.994 39.916)" fill="#97cef7" opacity="0.5"/>
  <path id="Path_1216" data-name="Path 1216" d="M47.286,58.66,47.3,59.9l.142,3.089-6.081-.8-.663-.9-.054-2.348-.2-2.2h4.041Z" transform="translate(34.443 61.519)" fill="#ffc0bb"/>
  <path id="Path_1217" data-name="Path 1217" d="M50.614,94.751a8.862,8.862,0,0,1,0,3.116c-.3,1.754-8.191,43.315-8.191,43.315l4.163.608s13.583-38.6,14.341-41.188,1.592-6.231-.986-9.043S50.614,94.751,50.614,94.751Z" transform="translate(36.721 100.763)" fill="#ffc0bb"/>
  <path id="Path_1218" data-name="Path 1218" d="M52.58,117.994,47.6,111.98l-4.98,2.07,1.253,1.724L49.3,118.5s2.319.466,2.439.432A7.946,7.946,0,0,0,52.58,117.994Z" transform="translate(36.946 125.152)" fill="#ffc0bb"/>
  <path id="Path_1219" data-name="Path 1219" d="M52.988,116.884l1.079,1.353A.8.8,0,0,1,53.2,119.5l-10.451-3.474a.705.705,0,0,1-.446-.891l.725-2.191C49.252,117.477,51.879,117.6,52.988,116.884Z" transform="translate(36.539 126.261)" fill="#07085b"/>
  <path id="Path_1220" data-name="Path 1220" d="M43.57,50.289a5.511,5.511,0,0,0-5.561,0c-2.96,1.706-2.959,7.458-1.793,8.835s-.06,3.241,2.271,5.037,6.045,2.457,8.164.357.565-6.783.565-6.783Z" transform="translate(28.732 53.208)" fill="#07085b"/>
  <path id="Path_1221" data-name="Path 1221" d="M49.706,116.821l-5.723-3.575-4.97,2.978,1.725,1.243,6.007.877s2.346-.289,2.45-.358A7.944,7.944,0,0,0,49.706,116.821Z" transform="translate(32.792 126.609)" fill="#ffc0bb"/>
  <path id="Path_1222" data-name="Path 1222" d="M37.568,91.949s.819,19.808.894,23.228,1.82,28.8,2.578,31l4.247-.3s2.9-49.142,1.987-53.928S37.568,91.949,37.568,91.949Z" transform="translate(31.127 99.624)" fill="#ffc0bb"/>
  <path id="Path_1223" data-name="Path 1223" d="M36.058,83.324c-1.463-.3-1.829.643-3.309.335l.348,2.286c-.2.445-.643,1.629-.643,1.629-1.647,4.784-1.557,4.269-1.393,4.358s1.4-1.681,1.542-1.516-.708,3.007-.456,2.937,1.356-2.608,1.5-2.513-.717,2.83-.345,2.925,1.213-2.931,1.477-2.736-.675,3.277-.322,3.31c.3.028,1.432-3.393,1.786-4.482a.185.185,0,0,1,.322-.056c1.419,1.776,1.629,1.832,1.791,1.629a30.075,30.075,0,0,0-1.2-3.926l-.772-2.255Z" transform="translate(23.535 92.069)" fill="#ffc0bb"/>
  <path id="Path_1224" data-name="Path 1224" d="M49.706,115.227l1.449.945a.8.8,0,0,1-.428,1.471H39.716a.7.7,0,0,1-.7-.7v-2.309C46.346,116.968,48.879,116.257,49.706,115.227Z" transform="translate(32.792 128.203)" fill="#07085b"/>
  <path id="Path_1225" data-name="Path 1225" d="M61.449,60.344a.177.177,0,0,0,.3.091c.772-.769,3.213-3.175,3.453-3.023.286.18-1.844,2.38-1.705,2.665s2.162-1.919,2.437-1.676-1.639,2.187-1.558,2.33,2.111-1.525,2.356-1.48-1.7,2.091-1.656,2.291,1.863-.762,1.963-.615.192.227-3.275,3.565L62.34,65.746l-1.713.4-1.209-1.738s.985-6.122,1.216-6.228S61.015,58.221,61.449,60.344Z" transform="translate(56.299 62.281)" fill="#ffc0bb"/>
  <path id="Path_1226" data-name="Path 1226" d="M43.126,111.484l3.523,13.065c8.136-.009,20.274-.764,26.308-4.792,0,0-7.882-36.706-13.114-45.906l-17.972-.988s-12.464,17.4-3.364,51.442c0,0,1.556.114,4.039.187Z" transform="translate(28.378 80.088)" fill="#09083c"/>
  <path id="Path_1227" data-name="Path 1227" d="M46.085,53.825a1.6,1.6,0,1,0,2.136-1.293A1.789,1.789,0,0,0,46.085,53.825Z" transform="translate(40.766 56.577)" fill="#f99893"/>
  <path id="Path_1228" data-name="Path 1228" d="M40.415,56.486s.162,1.253.266,2.756a6.5,6.5,0,0,0,4.948,1.428,6.4,6.4,0,0,0,1.708-.465,7.9,7.9,0,0,1,.125-2.331C47.879,56.668,40.415,56.486,40.415,56.486Z" transform="translate(34.407 61.221)" fill="#f99893"/>
  <path id="Path_1229" data-name="Path 1229" d="M46.6,59.437,63.624,72.359l10.9-11.2s3.257,2.521,3.257,2.474S67.536,79.643,65.021,80.483s-18.748-10.5-18.748-10.5Z" transform="translate(41.155 64.621)" fill="#fff"/>
  <path id="Path_1230" data-name="Path 1230" d="M55.506,64.116a8.09,8.09,0,0,0,.578-1.387,15.441,15.441,0,0,0,.7-3.866c.016-.251.048-.511.083-.764A8.328,8.328,0,1,0,40.3,57.222a1.8,1.8,0,0,0-1.629-.07,2.516,2.516,0,0,0,2.151,4.411,1.6,1.6,0,0,0,.365-.251,7.818,7.818,0,0,0,8,6.9,7.465,7.465,0,0,0,4.994-2.289,3.538,3.538,0,0,0,.272-.274,7.267,7.267,0,0,0,1.051-1.533Z" transform="translate(31.259 52.138)" fill="#ffc0bb"/>
  <path id="Path_1231" data-name="Path 1231" d="M43.323,53.54A.783.783,0,1,1,42.5,52.8.783.783,0,0,1,43.323,53.54Z" transform="translate(35.953 56.97)" fill="#333"/>
  <path id="Path_1232" data-name="Path 1232" d="M46.307,53.54a.783.783,0,1,1-.822-.743A.783.783,0,0,1,46.307,53.54Z" transform="translate(39.391 56.97)" fill="#333"/>
  <path id="Path_1233" data-name="Path 1233" d="M44.018,52.447c0,.251-.008.5,0,.758s.021.5.045.752a5.362,5.362,0,0,0,.125.738,1.824,1.824,0,0,0,.281.668c.019.021.035.048.055.066l.064.065a.77.77,0,0,1,.07.073.963.963,0,0,1,.063.079.851.851,0,0,1,.154.376.931.931,0,0,1-.251.745,1.541,1.541,0,0,1-.645.422,2.255,2.255,0,0,1-.752.125,3.32,3.32,0,0,0,.376-.065,2.129,2.129,0,0,0,.353-.125,1.562,1.562,0,0,0,.588-.428.834.834,0,0,0,.2-.655.752.752,0,0,0-.135-.316.7.7,0,0,0-.055-.069.722.722,0,0,0-.061-.063l-.07-.07a.763.763,0,0,1-.065-.078,1.447,1.447,0,0,1-.187-.35,2.331,2.331,0,0,1-.111-.376,4.761,4.761,0,0,1-.1-.76,7.986,7.986,0,0,1,.061-1.512Z" transform="translate(37.647 56.568)" fill="#f99893"/>
  <path id="Path_1234" data-name="Path 1234" d="M66.475,77c.06-.064,2.672-2.856,2.165-8.092A15.424,15.424,0,0,0,65.6,61.677,6.221,6.221,0,0,0,60.675,59.1c-3.573-.066-9.271-.144-9.271-.144s-7.358-.809-9.69,2.067S31.486,83.859,31.038,93.388s1.879,20.769,1.879,20.769a24.865,24.865,0,0,0,3.768,0c1.166-.18-.269-18.431.987-21.4s6.908-17.172,7.266-18.521l1.4,7.438a7.687,7.687,0,0,1-.347,4.094c-1.188,3.207-3.481,9.371-4.4,11.651,0,0,17.664,2.848,26.366-1.467l-.08-.336A59.632,59.632,0,0,1,66.475,77Z" transform="translate(23.538 63.944)" fill="#fff"/>
  <path id="Path_1235" data-name="Path 1235" d="M45.115,52.966a4.846,4.846,0,0,0-1.1-.423,3.476,3.476,0,0,0-1.14-.088,2.959,2.959,0,0,0-.561.106c-.093.024-.182.058-.272.089-.046.016-.089.038-.134.055a1.371,1.371,0,0,0-.133.058,5.882,5.882,0,0,0-1,.626,3.132,3.132,0,0,1,.9-.823,2.781,2.781,0,0,1,1.175-.395,2.854,2.854,0,0,1,1.229.158,3.226,3.226,0,0,1,.556.262,2.491,2.491,0,0,1,.486.375Z" transform="translate(34.818 56.237)" fill="#07085b"/>
  <path id="Path_1236" data-name="Path 1236" d="M44.255,52.967a2.491,2.491,0,0,1,.484-.376,3.226,3.226,0,0,1,.556-.262,2.854,2.854,0,0,1,1.229-.158,2.766,2.766,0,0,1,1.175.395,3.154,3.154,0,0,1,.9.823,5.888,5.888,0,0,0-1-.626,1.254,1.254,0,0,0-.133-.058c-.045-.018-.088-.039-.134-.055-.09-.031-.179-.065-.272-.089a2.965,2.965,0,0,0-.56-.106,3.483,3.483,0,0,0-1.141.088A4.847,4.847,0,0,0,44.255,52.967Z" transform="translate(38.831 56.237)" fill="#07085b"/>
  <path id="Path_1237" data-name="Path 1237" d="M39.827,58.855s5.62,7.141,6.815,9.713a18.6,18.6,0,0,0,3.444-9.509Z" transform="translate(33.73 63.95)" fill="#ffc0bb"/>
  <path id="Path_1238" data-name="Path 1238" d="M43.279,63.37q.227,3.713.3,7.433c.034,1.24.043,2.479.059,3.719s.006,2.48,0,3.721c0,.626-.013,1.24-.026,1.86s-.02,1.24-.039,1.86c-.044,1.239-.078,2.479-.15,3.718-.125,2.477-.319,4.955-.678,7.41l.063-.928.07-.926c.036-.619.063-1.238.094-1.857L43,88.918l.018-.464.034-.928.035-.926.024-.928c.071-2.475.108-4.954.125-7.43s.03-4.955.035-7.433Z" transform="translate(37.093 69.152)" fill="#81caef"/>
  <path id="Path_1239" data-name="Path 1239" d="M38.08,68.8c-.036.2-.065.4-.106.6s-.081.4-.133.594a8.073,8.073,0,0,1-.376,1.156,10.031,10.031,0,0,0,.274-1.178c.075-.4.125-.8.18-1.194.1-.8.145-1.6.168-2.408l.015-.6v-.6c.008-.4-.02-.806-.025-1.209,0-.2-.021-.4-.03-.6l-.03-.605c-.025-.4-.061-.806-.083-1.21.068.4.125.8.182,1.2s.09.8.118,1.209l.038.606c.014.2.019.4.023.608l.01.609Z" transform="translate(31.008 67.036)" fill="#81caef"/>
  <path id="Path_1240" data-name="Path 1240" d="M55.844,52.47c-1.54-5.3-8.569-5.491-8.569-5.491-10.872.752-9.16,10.312-8.8,11.893a1.772,1.772,0,0,1,1.274.223,2.978,2.978,0,0,1,.546.376c1.28-.392,1.667-2.522,2.33-3.549.9-1.392,4.867-.674,6.37-1.662a3.712,3.712,0,0,0,1.655-2.519c5.8.921,5.709,7.062,5.709,7.062a2.157,2.157,0,0,1,.561-.029S57.22,57.207,55.844,52.47Z" transform="translate(31.809 50.269)" fill="#07085b"/>
  <path id="Path_1241" data-name="Path 1241" d="M47.056,55.136a2.58,2.58,0,0,1-4.615.05Z" transform="translate(36.741 59.667)" fill="#fff"/>
  <ellipse id="Ellipse_83" data-name="Ellipse 83" cx="24.96" cy="25.012" rx="24.96" ry="25.012" transform="translate(114.601 11.771)" fill="#09083c"/>
  <ellipse id="Ellipse_84" data-name="Ellipse 84" cx="21.372" cy="21.416" rx="21.372" ry="21.416" transform="translate(118.189 15.366)" fill="#fff"/>
  <rect id="Rectangle_511" data-name="Rectangle 511" width="0.606" height="7.879" transform="translate(116.576 36.968) rotate(-90)" fill="#09083c"/>
  <rect id="Rectangle_512" data-name="Rectangle 512" width="0.606" height="7.879" transform="translate(154.716 36.968) rotate(-90)" fill="#09083c"/>
  <rect id="Rectangle_513" data-name="Rectangle 513" width="0.605" height="7.895" transform="translate(139.225 13.912)" fill="#09083c"/>
  <rect id="Rectangle_514" data-name="Rectangle 514" width="0.605" height="7.895" transform="translate(139.225 51.977)" fill="#09083c"/>
  <path id="Path_1242" data-name="Path 1242" d="M71.5,19.231a.653.653,0,1,1-.653-.653A.653.653,0,0,1,71.5,19.231Z" transform="translate(68.714 17.551)" fill="#09083c"/>
  <path id="Path_1243" data-name="Path 1243" d="M76.921,25.611a.291.291,0,0,1-.207-.086L65,13.781a.292.292,0,0,1,.412-.412l11.72,11.744a.293.293,0,0,1-.207.5Z" transform="translate(62.639 11.464)" fill="#09083c"/>
  <path id="Path_1244" data-name="Path 1244" d="M74.34,30.75a.216.216,0,0,1-.106-.125L70.445,19.161a.212.212,0,0,1,.4-.133l3.79,11.46a.213.213,0,0,1-.3.251Z" transform="translate(68.989 17.901)" fill="#09083c"/>
  <path id="Path_1245" data-name="Path 1245" d="M294.981,75.058l.007-.025Z" transform="translate(327.671 82.588)" fill="#ffc0bb"/>
  <path id="Path_1246" data-name="Path 1246" d="M295.056,74.809q0-.017.01-.034a.342.342,0,0,0-.01.034Z" transform="translate(327.757 82.291)" fill="#ffc0bb"/>
  <path id="Path_1247" data-name="Path 1247" d="M295.128,74.553v-.019A.073.073,0,0,1,295.128,74.553Z" transform="translate(327.84 82.012)" fill="#ffc0bb"/>
  <path id="Path_1248" data-name="Path 1248" d="M295.258,74.1v0Z" transform="translate(327.99 81.493)" fill="#ffc0bb"/>
  <path id="Path_1249" data-name="Path 1249" d="M295.419,73.538l.011-.039Z" transform="translate(328.176 80.821)" fill="#ffc0bb"/>
  <path id="Path_1250" data-name="Path 1250" d="M319.4,85.066a16.2,16.2,0,0,1-9.68-4.107h0a1.729,1.729,0,0,1-.507.584c-1.761.993-24.042,5.763-26.245,5.572s-4.275,2-4.715,3.7H315.6S319.521,84.852,319.4,85.066Z" transform="translate(308.4 89.415)" fill="#ffc0bb"/>
  <path id="Path_1251" data-name="Path 1251" d="M295.37,73.706l.008-.026Z" transform="translate(328.12 81.029)" fill="#ffc0bb"/>
  <path id="Path_1252" data-name="Path 1252" d="M295.314,73.922l.015-.055Z" transform="translate(328.055 81.244)" fill="#ffc0bb"/>
  <path id="Path_1253" data-name="Path 1253" d="M300.231,72.752a6.5,6.5,0,0,0-1.639,2.881c-.952,3.414-4.259,13.381-5.928,16.036,0,0,4.455,4.482,10.137,4.712a35.1,35.1,0,0,0,4.4-13.414C307.944,74.33,303.92,69.071,300.231,72.752Z" transform="translate(325.002 78.589)" fill="#0a9"/>
  <path id="Path_1254" data-name="Path 1254" d="M189.117,55.462a6.449,6.449,0,0,0-.555-2.273,9.341,9.341,0,0,0-1.889-2.13,11.809,11.809,0,0,1-2.816-4.489,30.814,30.814,0,0,0-1.3-3.92c-.376-.752-.9-1.423-1.328-2.145-1.017-1.709-1.572-3.727-2.953-5.156a6.2,6.2,0,0,0,1.4,4.9,8.014,8.014,0,0,1,.993,1.209,6.221,6.221,0,0,1,.484,2.776,12.188,12.188,0,0,0,1.458,5.105c.906,1.664,2.214,3.144,2.7,4.977.363,1.378.251,2.913,1.03,4.1a1.048,1.048,0,0,1,.2.411.942.942,0,0,1-.015.258l-.053.331c-.175,1.128-.358,2.553.608,3.4a1.242,1.242,0,0,0,2-.179,5.237,5.237,0,0,0,.406-2.8C189.437,58.379,189.281,56.915,189.117,55.462Z" transform="translate(193.152 36.872)" fill="#4188e4"/>
  <path id="Path_1255" data-name="Path 1255" d="M186.97,57.426c-.376-1.3-.958-2.539-1.253-3.861a18.164,18.164,0,0,1-.287-3.922V45.325a16.1,16.1,0,0,0-.149-2.681c-.318-1.9-1.307-3.659-1.475-5.58-.071-.831.013-1.67-.079-2.5a3.937,3.937,0,0,0-.393-1.378.613.613,0,0,0-1.1.03,5.6,5.6,0,0,0-.59,3.279,12.75,12.75,0,0,0,.626,1.934c.962,2.864.451,6.033,1.2,8.961a13.274,13.274,0,0,1,.6,2.661c.1,2.181-1.533,4.173-1.384,6.35.125,1.785,1.406,3.257,1.944,4.969.3.956.367,1.974.69,2.923.251.737.834,1.629,1.741,1.408.861-.213.6-.916.563-1.587A29.854,29.854,0,0,0,186.97,57.426Z" transform="translate(197.037 34.004)" fill="#70c0fd"/>
  <path id="Path_1256" data-name="Path 1256" d="M186.958,57.92a10.448,10.448,0,0,1-.058-2.026,11.984,11.984,0,0,1,.466-1.647,14.865,14.865,0,0,0,.45-3.176l.4-5.828a75.712,75.712,0,0,1,.978-9.02,3.96,3.96,0,0,0-.039-2.474c-.078-.159-.232-.327-.4-.274-.125.038-.179.17-.223.288-1.238,3.352-1.7,6.964-3.076,10.262a13.216,13.216,0,0,0-.884,2.407,13.635,13.635,0,0,0-.066,3.077,14.533,14.533,0,0,1-.512,4.377,17.647,17.647,0,0,0-.615,2.229A11.753,11.753,0,0,0,183.444,59a44.262,44.262,0,0,1,.178,5.544c-.034,1.087.884,1.059,1.492.391a3.1,3.1,0,0,0,.566-1.561C186.153,61.456,187.071,59.99,186.958,57.92Z" transform="translate(199.023 34.701)" fill="#4188e4"/>
  <path id="Path_1257" data-name="Path 1257" d="M185.285,49.532c-.812-1.3-2.428-2.045-2.947-3.49-.132-.368-.184-.764-.345-1.12a3.639,3.639,0,0,0-1.973-1.6.169.169,0,0,0-.239.152h0a.581.581,0,0,0,.251.489,3.257,3.257,0,0,1,1.294,1.764c.251.848.14,1.776.447,2.6.258.694.789,1.263,1.039,1.961a10.989,10.989,0,0,1,.311,2,2.116,2.116,0,0,0,1.019,1.662C186.365,54.979,185.809,50.375,185.285,49.532Z" transform="translate(194.96 46.037)" fill="#70c0fd"/>
  <path id="Path_1258" data-name="Path 1258" d="M188.792,50.665a5.519,5.519,0,0,1-.185,1.872,5.532,5.532,0,0,1-.674,1c-.818,1.158-1.115,2.8-2.373,3.448a.427.427,0,0,1-.267.065.413.413,0,0,1-.259-.269,3.554,3.554,0,0,1,.243-2.281.556.556,0,0,0,0-.4c-.069-.134-.227-.192-.334-.3a.98.98,0,0,1-.152-.852,19.36,19.36,0,0,1,.448-2.2,3.843,3.843,0,0,1,.471-1.178,5.2,5.2,0,0,1,.993-.982,11.776,11.776,0,0,0,3.435-5.073,3.346,3.346,0,0,1,.575-1.2.959.959,0,0,1,1.2-.244c.259.183-.806,1.9-.93,2.1a6.755,6.755,0,0,0-.561,1.754C189.929,47.523,188.886,48.953,188.792,50.665Z" transform="translate(200.698 44.474)" fill="#4188e4"/>
  <path id="Path_1259" data-name="Path 1259" d="M188.725,54.428a7.774,7.774,0,0,0,.544-1.852c.085-.712-.028-1.439.094-2.146a23.348,23.348,0,0,1,.947-2.589,17.008,17.008,0,0,0,.35-1.964c.326-1.879,1.208-3.707.955-5.594-.055-.411-.241-.888-.648-.958a.786.786,0,0,0-.8.635,3.493,3.493,0,0,0,0,1.119,4.622,4.622,0,0,1-.827,2.96c-.579.819-1.419,1.437-1.941,2.294a13.37,13.37,0,0,0-1.052,3.524c-.649,2.361-2.276,4.421-2.572,6.853a2.351,2.351,0,0,0,1,2.529C187.361,60.355,188.14,55.939,188.725,54.428Z" transform="translate(199.526 41.442)" fill="#70c0fd"/>
  <path id="Path_1260" data-name="Path 1260" d="M187.471,47.163h-5.927a.626.626,0,0,0-.61.774l2.16,9.109a.626.626,0,0,0,.61.484h7.12a.626.626,0,0,0,.61-.484l2.166-9.109a.626.626,0,0,0-.611-.774Z" transform="translate(196.266 50.482)" fill="#fff"/>
  <path id="Path_1261" data-name="Path 1261" d="M224.739,71.767c1.3-5.086,3.383-7.1,6.991-9a11.937,11.937,0,0,1,9.382-.837c6.831,2.214,8.6,9.7,9.286,13.575,2.353,13.2,13.392,24.429,9.375,33.462s-22.875,8.067-22.875,8.067l-8.644-6.233s-.768-15.176-.77-16.411-3.277-1.15-3.277-7.354C224.2,82.088,223.2,77.747,224.739,71.767Z" transform="translate(245.765 66.806)" fill="#333"/>
  <path id="Path_1262" data-name="Path 1262" d="M216.85,76.3a.193.193,0,0,1-.311.138c-.937-.732-3.9-3.018-4.134-2.821-.286.234,2.311,2.34,2.2,2.663s-2.6-1.8-2.861-1.5,2.062,2.155,1.994,2.32-2.487-1.378-2.749-1.292,2.122,2.04,2.1,2.264-2.118-.58-2.209-.407-.178.271,4.018,3.433l1.705,1.174,1.908.205,1.082-2.042s-1.872-6.5-2.137-6.59S217.041,73.941,216.85,76.3Z" transform="translate(230.751 80.942)" fill="#ffc0bb"/>
  <path id="Path_1263" data-name="Path 1263" d="M242.844,73.472s-14.619,16.584-15.236,16.662-10.414-11.4-10.414-11.4a34.407,34.407,0,0,0-4.122,3.936s10.468,17.45,13.154,18.44,20.546-15.855,20.546-15.855Z" transform="translate(233.31 80.79)" fill="#ef5488"/>
  <path id="Path_1264" data-name="Path 1264" d="M226.114,83.547l.175.09.045-.376Z" transform="translate(248.335 92.066)" fill="#f4a640"/>
  <path id="Path_1265" data-name="Path 1265" d="M251.879,74.145a6.126,6.126,0,0,0-1.541,2.71c-1,3.569-4.317,15.149-5.718,15.938-1.656.933-22.6,5.421-24.68,5.238s-4.019,1.879-4.434,3.475h35.112s7.024-8.652,7.807-17.759C259.132,75.63,255.35,70.685,251.879,74.145Z" transform="translate(236.116 80.276)" fill="#ffc0bb"/>
  <path id="Path_1266" data-name="Path 1266" d="M234.18,70.4v5.853a.837.837,0,0,1-.48.76,5.164,5.164,0,0,1-4.761.011.831.831,0,0,1-.4-.718V71.025Z" transform="translate(251.128 77.256)" fill="#ffc0bb"/>
  <path id="Path_1267" data-name="Path 1267" d="M234.177,73.538V70.406l-5.637.62v2.66A9.753,9.753,0,0,0,234.177,73.538Z" transform="translate(251.13 77.257)" fill="#f99893"/>
  <path id="Path_1268" data-name="Path 1268" d="M227.4,77.35a7.472,7.472,0,0,1-.481-1.274,14.084,14.084,0,0,1-.515-3.52c-.006-.233-.026-.464-.05-.7a7.544,7.544,0,1,1,15.026-.273,1.629,1.629,0,0,1,1.472-.013,2.278,2.278,0,0,1-2.083,3.925,1.484,1.484,0,0,1-.322-.237,7.074,7.074,0,0,1-7.46,6,6.765,6.765,0,0,1-4.449-2.227c-.076-.074-.155-.159-.238-.251a6.574,6.574,0,0,1-.9-1.432Z" transform="translate(248.566 69.31)" fill="#ffc0bb"/>
  <path id="Path_1269" data-name="Path 1269" d="M229.984,68.079a.606.606,0,1,0,.655-.554A.606.606,0,0,0,229.984,68.079Z" transform="translate(252.791 73.936)" fill="#333"/>
  <path id="Path_1270" data-name="Path 1270" d="M227.561,68.03a.606.606,0,1,0,.655-.554.606.606,0,0,0-.655.554Z" transform="translate(249.999 73.88)" fill="#333"/>
  <path id="Path_1271" data-name="Path 1271" d="M229.692,67.559a5.838,5.838,0,0,1,.886-.212,3.007,3.007,0,0,1,.847-.009,2.756,2.756,0,0,1,.811.234l.1.041c.034.015.064.035.1.051l.2.105c.134.073.258.163.406.236a2.552,2.552,0,0,0-.268-.4,2.119,2.119,0,0,0-.362-.331,1.972,1.972,0,0,0-.927-.376,2.06,2.06,0,0,0-.992.111,1.9,1.9,0,0,0-.8.551Z" transform="translate(252.457 73.193)" fill="#333"/>
  <path id="Path_1272" data-name="Path 1272" d="M230.363,67.576a1.909,1.909,0,0,0-.759-.6,2.046,2.046,0,0,0-.981-.179,1.968,1.968,0,0,0-.952.307,2.212,2.212,0,0,0-.383.306,2.634,2.634,0,0,0-.3.383c.154-.063.283-.144.422-.207l.205-.091c.035-.014.066-.033.1-.045l.1-.034a2.771,2.771,0,0,1,.824-.178,2.98,2.98,0,0,1,.844.068,5.667,5.667,0,0,1,.869.272Z" transform="translate(249.346 73.092)" fill="#333"/>
  <path id="Path_1273" data-name="Path 1273" d="M229.854,67.445a8.7,8.7,0,0,0-.674.952,8.247,8.247,0,0,0-.551,1.035,3.092,3.092,0,0,0-.188.573,1.151,1.151,0,0,0-.018.163v.089a.453.453,0,0,0,.03.1.413.413,0,0,0,.03.051l.026.03c.018.02.035.041.054.059a1.456,1.456,0,0,0,.115.1,2.8,2.8,0,0,0,.5.318,3.7,3.7,0,0,0,.541.223,6.351,6.351,0,0,1-.92-.68c-.034-.031-.063-.066-.093-.1l-.041-.051-.02-.025V70.27a.439.439,0,0,1,.013-.219,3.207,3.207,0,0,1,.185-.525c.149-.35.324-.692.5-1.037S229.689,67.8,229.854,67.445Z" transform="translate(250.995 73.847)" fill="#f99893"/>
  <path id="Path_1274" data-name="Path 1274" d="M224.538,109.6l.347,8.678-4.168.029-.4-8.194Z" transform="translate(241.658 122.412)" fill="#ffc0bb"/>
  <path id="Path_1275" data-name="Path 1275" d="M217.6,116.632l11.982.081a.461.461,0,0,0,.47-.461v-.346a.48.48,0,0,0-.479-.469l-11.982-.08a.46.46,0,0,0-.47.461v.346a.477.477,0,0,0,.479.467Z" transform="translate(237.97 129.043)" fill="#fff"/>
  <path id="Path_1276" data-name="Path 1276" d="M229.421,113.984l.46,3.548c.056.437-.19.833-.517.831l-11.394-.078a.846.846,0,0,1-.752-.526,1.511,1.511,0,0,1,.306-1.577c1-1.406,4.356-1.728,5.985-2.923l5.308.036A.706.706,0,0,1,229.421,113.984Z" transform="translate(237.962 126.624)" fill="#09083c"/>
  <path id="Path_1277" data-name="Path 1277" d="M221.764,115.159h0a.236.236,0,0,0,.061-.289,2.24,2.24,0,0,0-2.358-1.441c-.083.014-.137.125-.125.23h0c.015.106.089.177.169.164a1.929,1.929,0,0,1,2.061,1.253.133.133,0,0,0,.192.083Z" transform="translate(240.533 126.785)" fill="#fff"/>
  <path id="Path_1278" data-name="Path 1278" d="M221.218,115.368h0a.232.232,0,0,0,.063-.288,2.24,2.24,0,0,0-2.358-1.441.2.2,0,0,0-.125.231h0c.014.106.089.177.168.164a1.931,1.931,0,0,1,2.062,1.253.125.125,0,0,0,.19.081Z" transform="translate(239.9 127.028)" fill="#fff"/>
  <path id="Path_1279" data-name="Path 1279" d="M220.709,115.562h0a.236.236,0,0,0,.063-.288,2.242,2.242,0,0,0-2.359-1.441.2.2,0,0,0-.125.231h0c.015.108.089.178.169.165a1.929,1.929,0,0,1,2.061,1.253C220.561,115.569,220.64,115.6,220.709,115.562Z" transform="translate(239.312 127.252)" fill="#fff"/>
  <path id="Path_1280" data-name="Path 1280" d="M221.389,117.28c.877-2.858,2.418-3.163,3.257-3.091l.3,2.281c.056.437-.19.833-.517.831Z" transform="translate(242.892 127.686)" fill="#e87b50" opacity="0.3"/>
  <path id="Path_1281" data-name="Path 1281" d="M215.422,109.6l.347,8.3-4.169.029-.4-7.819Z" transform="translate(231.158 122.412)" fill="#ffc0bb"/>
  <path id="Path_1282" data-name="Path 1282" d="M208.48,116.632l11.982.081a.461.461,0,0,0,.47-.461v-.346a.48.48,0,0,0-.479-.469l-11.982-.08a.46.46,0,0,0-.47.461v.346a.477.477,0,0,0,.479.467Z" transform="translate(227.469 129.043)" fill="#fff"/>
  <path id="Path_1283" data-name="Path 1283" d="M220.306,113.984l.46,3.548c.056.437-.19.833-.517.831l-11.394-.078a.844.844,0,0,1-.752-.526,1.511,1.511,0,0,1,.306-1.577c1-1.406,4.356-1.728,5.985-2.923l5.308.036A.707.707,0,0,1,220.306,113.984Z" transform="translate(227.461 126.624)" fill="#09083c"/>
  <path id="Path_1284" data-name="Path 1284" d="M212.649,115.159h0a.236.236,0,0,0,.061-.289,2.24,2.24,0,0,0-2.358-1.441c-.083.014-.137.125-.125.23h0c.015.106.089.177.168.164a1.931,1.931,0,0,1,2.062,1.253.133.133,0,0,0,.192.083Z" transform="translate(230.032 126.785)" fill="#fff"/>
  <path id="Path_1285" data-name="Path 1285" d="M212.1,115.368h0a.232.232,0,0,0,.063-.288,2.242,2.242,0,0,0-2.359-1.441.2.2,0,0,0-.125.231h0c.014.106.089.177.168.164a1.932,1.932,0,0,1,2.062,1.253.125.125,0,0,0,.192.081Z" transform="translate(229.398 127.028)" fill="#fff"/>
  <path id="Path_1286" data-name="Path 1286" d="M211.594,115.562h0a.233.233,0,0,0,.061-.288,2.24,2.24,0,0,0-2.358-1.441.194.194,0,0,0-.125.231h0c.015.108.089.178.169.165a1.929,1.929,0,0,1,2.061,1.253C211.446,115.569,211.525,115.6,211.594,115.562Z" transform="translate(228.811 127.252)" fill="#fff"/>
  <path id="Path_1287" data-name="Path 1287" d="M212.275,117.28c.877-2.858,2.418-3.163,3.263-3.091l.3,2.281c.056.437-.19.833-.517.831Z" transform="translate(232.393 127.686)" fill="#e87b50" opacity="0.3"/>
  <path id="Path_1288" data-name="Path 1288" d="M235.8,88.55s-20.736.075-23.937,4.243-5.638,32.322,0,44.639c0,0,7.3.251,8.961-.769,0,0-.512-20.781-.257-26.3s4.1-6.285,4.609-6.8S235.8,88.55,235.8,88.55Z" transform="translate(228.025 98.159)" fill="#09083c"/>
  <path id="Path_1289" data-name="Path 1289" d="M230.478,120.4c-.187-1.734-.428-3.986-.691-6.534h0c-.47-5.011-1.061-8.007-.433-7.945,5,.484,18.584-1.943,26.61-3.508a7.668,7.668,0,0,0,5.512-10.774,5.306,5.306,0,0,0-.995-1.451c-3.748-3.743-11.484-2.542-11.475-3.066-43.781,3.654-34.135,11.171-30.029,37.124h0c.024.111.046.223.07.333h0c1.78,8.582,3.461,15.645,3.461,15.645s6.4.251,10.112-.641C232.624,139.626,231.467,129.49,230.478,120.4Z" transform="translate(235.681 96.518)" fill="#09083c"/>
  <path id="Path_1290" data-name="Path 1290" d="M246.539,73.932c-1.427-1.348-4.808-1.656-7.934-1.612l.07.03a3.841,3.841,0,0,1-5.637.358h0c-.558.066-.886.115-.886.115a14.028,14.028,0,0,0-4.317,3.771,10.793,10.793,0,0,0-2.675,5.669c-.169,2.179,2.631,5.359,2.631,6.6S226.5,99.141,226.5,99.141l.487-.061v.061a7.774,7.774,0,0,1-2.269.428c-.056,1.612-.085,2.616-.085,2.616v3.146c16.662,2.766,26.639,7.435,26.639,7.435C252.1,80.268,246.761,74.143,246.539,73.932Z" transform="translate(246.632 79.458)" fill="#ea426e"/>
  <path id="Path_1291" data-name="Path 1291" d="M247.724,74.145a6.126,6.126,0,0,0-1.541,2.71c-1,3.569-4.317,15.149-5.718,15.938-1.317.742-14.828,3.731-21.35,4.833,0,0,.477,1.944.906,3.884H246.47s7.024-8.652,7.807-17.759C254.976,75.63,251.194,70.685,247.724,74.145Z" transform="translate(240.272 80.276)" fill="#f76390"/>
  <path id="Path_1292" data-name="Path 1292" d="M194.768,74.716h31.526l8.939,21.865h15.186a.768.768,0,0,1,.768.77h0a.769.769,0,0,1-.768.77H205.245Z" transform="translate(212.223 82.223)" fill="#07085b"/>
  <path id="Path_1293" data-name="Path 1293" d="M202.052,81.589a1.516,1.516,0,1,0,1.136-1.982A1.62,1.62,0,0,0,202.052,81.589Z" transform="translate(220.571 87.827)" fill="#daeef7"/>
  <path id="Path_1294" data-name="Path 1294" d="M229.853,64.547s8.468,7.816,12.469,8.706c0,0,.532-6.06.481-6.264s-5.073-4.979-5.387-4.927S228,63.411,228,63.411l-2.5,6.171Z" transform="translate(247.628 67.644)" fill="#333"/>
  <path id="Path_1295" data-name="Path 1295" d="M225.289,65.152l2.21,6.264s4.452-3.152,6.167-6.264-4.444-1.971-4.444-1.971Z" transform="translate(247.385 68.699)" fill="#333"/>
  <path id="Path_1296" data-name="Path 1296" d="M231.586,69.684a1.926,1.926,0,0,0-1.574.325,1.416,1.416,0,0,0-1.49.081,1.586,1.586,0,0,0,1.754,1.041A1.419,1.419,0,0,0,231.586,69.684Z" transform="translate(251.11 76.369)" fill="#f99893" opacity="0.3"/>
  <path id="Path_1297" data-name="Path 1297" d="M232.571,69.428a4.006,4.006,0,0,1-.461.376,4.078,4.078,0,0,1-.5.313,3.55,3.55,0,0,1-1.1.376,3.029,3.029,0,0,1-1.158-.046,4.306,4.306,0,0,1-1.091-.452,3.733,3.733,0,0,0,.5.331,3.22,3.22,0,0,0,.56.233,2.77,2.77,0,0,0,.6.11,3.022,3.022,0,0,0,.611-.026,3.162,3.162,0,0,0,1.135-.43,3.417,3.417,0,0,0,.9-.784Z" transform="translate(250.807 76.13)" fill="#f99893"/>
  <rect id="Rectangle_515" data-name="Rectangle 515" width="12.185" height="2.492" transform="translate(109.846 166.116)" fill="#fff"/>
  <rect id="Rectangle_516" data-name="Rectangle 516" width="12.185" height="2.492" transform="translate(129.331 166.116)" fill="#fff"/>
  <rect id="Rectangle_517" data-name="Rectangle 517" width="4.927" height="2.428" transform="translate(520.913 89.57)" fill="#97cef7"/>
  <rect id="Rectangle_518" data-name="Rectangle 518" width="5.349" height="2.428" transform="translate(532.393 83.777)" fill="#97cef7"/>
  <rect id="Rectangle_519" data-name="Rectangle 519" width="5.232" height="1.377" transform="translate(526.461 106.8)" fill="#97cef7"/>
  <rect id="Rectangle_520" data-name="Rectangle 520" width="4.927" height="1.563" transform="translate(567.233 86.205)" fill="#97cef7"/>
  <rect id="Rectangle_521" data-name="Rectangle 521" width="4.927" height="1.563" transform="translate(567.233 107.235)" fill="#97cef7"/>
  <rect id="Rectangle_522" data-name="Rectangle 522" width="5.232" height="2.685" transform="translate(572.781 91.996)" fill="#97cef7"/>
  <rect id="Rectangle_523" data-name="Rectangle 523" width="5.349" height="1.71" transform="translate(578.713 83.281)" fill="#fff"/>
  <rect id="Rectangle_524" data-name="Rectangle 524" width="5.243" height="21.164" transform="translate(566.838 169.733) rotate(90)" fill="#97cef7"/>
  <rect id="Rectangle_525" data-name="Rectangle 525" width="5.361" height="29.378" transform="translate(571.996 174.974) rotate(90)" fill="#142666"/>
  <rect id="Rectangle_526" data-name="Rectangle 526" width="4.937" height="26.139" transform="translate(568.756 164.795) rotate(90)" fill="#fff"/>
  <rect id="Rectangle_527" data-name="Rectangle 527" width="4.937" height="1.56" transform="translate(566.559 164.794) rotate(90)" fill="#97cef7"/>
  <rect id="Rectangle_528" data-name="Rectangle 528" width="4.937" height="1.56" transform="translate(545.572 164.795) rotate(90)" fill="#97cef7"/>
  <rect id="Rectangle_529" data-name="Rectangle 529" width="5.361" height="1.706" transform="translate(569.478 174.975) rotate(90)" fill="#fff"/>
  <rect id="Rectangle_530" data-name="Rectangle 530" width="5.547" height="1.913" transform="translate(303.395 81.001)" fill="#fff"/>
  <rect id="Rectangle_531" data-name="Rectangle 531" width="3.304" height="9.109" transform="translate(310.935 86.664)" fill="#97cef7"/>
  <rect id="Rectangle_532" data-name="Rectangle 532" width="6.023" height="1.439" transform="translate(316.32 78.678)" fill="#97cef7"/>
  <rect id="Rectangle_533" data-name="Rectangle 533" width="6.023" height="1.887" transform="translate(316.32 103.534)" fill="#97cef7"/>
  <path id="Path_1298" data-name="Path 1298" d="M176.165,94.465l3.242,46.327h-1.621l-5.133-45.825Z" transform="translate(186.747 104.974)" fill="#07085b"/>
  <path id="Path_1299" data-name="Path 1299" d="M160.2,94.465l-3.241,46.327h1.621l5.131-45.825Z" transform="translate(168.667 104.974)" fill="#07085b"/>
  <path id="Path_1300" data-name="Path 1300" d="M205.1,71.529s-25.911-.768-27.587-.648-3.227,5.512-3.227,5.512-7.569,28.08-7.418,28.853-7.061,18.867-7.061,18.867,6.22-.165,6.5,0,24.053-2.042,24.388-2.263,1.542-4.358,1.6-4.579,1.872-16.329,1.872-16.329l.936-8.882s3.578-7.621,3.633-7.642,3.359-6.7,3.578-7.029,3.633-4.028,3.743-4.358S205.1,71.529,205.1,71.529Z" transform="translate(171.954 77.79)" fill="#57ace5"/>
  <path id="Path_1301" data-name="Path 1301" d="M205.1,71.421s-8.934-.264-16.648-.459c3,1.764,4.679,6.7,3.431,15.478-1.06,7.46-2.239,15.557-6.937,25.266-2.419,5-12.837,2.2-21.376,2.695-1.84,4.774-3.758,9.6-3.758,9.6s6.22-.165,6.5,0,24.053-2.042,24.388-2.263,1.542-4.358,1.6-4.579,1.872-16.329,1.872-16.329l.936-8.882s3.578-7.621,3.633-7.642,3.357-6.7,3.578-7.029,3.633-4.028,3.743-4.358S205.1,71.421,205.1,71.421Z" transform="translate(171.956 77.899)" fill="#57ace5" opacity="0.3"/>
  <path id="Path_1302" data-name="Path 1302" d="M157.613,124.727h0a1.609,1.609,0,0,1,1.5-1.709c2.769-.188,8.757-.616,14.916-1.2,11.8-1.12,16.072-2.037,17.6-2.516a1.594,1.594,0,0,0,1.067-1.128,61.992,61.992,0,0,0,.861-7.939c.77-10.872,2.042-28.8,13.212-38.642a1.607,1.607,0,0,1,2.336.232h0a1.61,1.61,0,0,1-.209,2.189c-10.176,8.936-11.344,25.414-12.127,36.456-.446,6.29-.722,9.378-2.1,10.815-.663.693-1.9,1.982-19.844,3.707-6.368.611-12.636,1.061-15.5,1.253a1.609,1.609,0,0,1-1.714-1.517ZM192.418,118.974Z" transform="translate(169.417 78.165)" fill="#026eaf"/>
  <path id="Path_1303" data-name="Path 1303" d="M151.293,109.412l-.981,7.9-5.283.411.083-7.321Z" transform="translate(154.923 122.193)" fill="#ffc0bb"/>
  <path id="Path_1304" data-name="Path 1304" d="M141.607,116.779l14.432.1a.555.555,0,0,0,.566-.556V115.9a.576.576,0,0,0-.576-.564l-14.432-.1a.556.556,0,0,0-.566.556v.416a.576.576,0,0,0,.576.564Z" transform="translate(150.318 128.911)" fill="#fff"/>
  <path id="Path_1305" data-name="Path 1305" d="M155.853,113.587l.554,4.275c.069.526-.228,1-.626,1l-13.726-.093a1.022,1.022,0,0,1-.9-.634,1.825,1.825,0,0,1,.368-1.9c1.213-1.694,5.247-2.081,7.209-3.52l6.389.044A.845.845,0,0,1,155.853,113.587Z" transform="translate(150.308 125.999)" fill="#ea426e"/>
  <path id="Path_1306" data-name="Path 1306" d="M146.633,115h0a.282.282,0,0,0,.074-.347,2.7,2.7,0,0,0-2.84-1.735.234.234,0,0,0-.147.277h0c.018.125.108.213.2.2a2.33,2.33,0,0,1,2.483,1.5.159.159,0,0,0,.227.1Z" transform="translate(153.408 126.195)" fill="#fff"/>
  <path id="Path_1307" data-name="Path 1307" d="M145.97,115.256h0a.284.284,0,0,0,.074-.348,2.7,2.7,0,0,0-2.84-1.735.234.234,0,0,0-.147.277h0c.017.125.108.213.2.2a2.324,2.324,0,0,1,2.483,1.5.16.16,0,0,0,.227.105Z" transform="translate(152.644 126.484)" fill="#fff"/>
  <path id="Path_1308" data-name="Path 1308" d="M145.354,115.49h0a.282.282,0,0,0,.075-.348,2.7,2.7,0,0,0-2.841-1.735c-.1.016-.164.144-.147.277h0c.016.125.106.213.2.2a2.33,2.33,0,0,1,2.483,1.5C145.176,115.5,145.271,115.539,145.354,115.49Z" transform="translate(151.939 126.753)" fill="#fff"/>
  <path id="Path_1309" data-name="Path 1309" d="M146.18,117.559c1.05-3.441,2.911-3.81,3.93-3.723l.356,2.749c.069.526-.228,1-.626,1Z" transform="translate(156.249 127.277)" fill="#e87b50" opacity="0.3"/>
  <path id="Path_1310" data-name="Path 1310" d="M159.737,79.5l-.873,9.1,3.469.663,1.909-3.608-.313-4.778L161.232,79Z" transform="translate(170.862 87.157)" fill="#f9b5b2"/>
  <path id="Path_1311" data-name="Path 1311" d="M162.789,72.566s-3.52,9.18-3.52,14.344a7.16,7.16,0,0,0,4.51.877c2.665-.336.425-10.813.524-11.088A34.389,34.389,0,0,0,162.789,72.566Z" transform="translate(171.328 79.746)" fill="#f4a640"/>
  <path id="Path_1312" data-name="Path 1312" d="M155.837,109.491l-2.335,7.618-5.377.036.937-5.561Z" transform="translate(158.49 122.283)" fill="#ffc0bb"/>
  <path id="Path_1313" data-name="Path 1313" d="M182.021,85.854l-6.462,9.765-8.6-1.7-14.581-10.9,2.557-3.791s13.662,8.206,14.824,8.436S174.1,80.48,174.1,80.48Z" transform="translate(163.395 87.425)" fill="#f9b5b2"/>
  <path id="Path_1314" data-name="Path 1314" d="M144.845,116.843l14.432.1a.556.556,0,0,0,.566-.556v-.416a.576.576,0,0,0-.576-.564l-14.432-.1a.555.555,0,0,0-.566.556v.416A.576.576,0,0,0,144.845,116.843Z" transform="translate(154.048 128.984)" fill="#fff"/>
  <path id="Path_1315" data-name="Path 1315" d="M159.09,113.653l.552,4.273c.069.527-.228,1-.626,1l-13.724-.093a1.02,1.02,0,0,1-.9-.634,1.829,1.829,0,0,1,.367-1.9c1.214-1.693,5.248-2.08,7.21-3.519l6.389.043A.848.848,0,0,1,159.09,113.653Z" transform="translate(154.038 126.075)" fill="#f76390"/>
  <path id="Path_1316" data-name="Path 1316" d="M149.865,115.07h0a.282.282,0,0,0,.075-.347,2.7,2.7,0,0,0-2.841-1.736c-.1.016-.164.145-.147.278h0c.018.125.108.214.2.2a2.331,2.331,0,0,1,2.483,1.5C149.687,115.078,149.782,115.119,149.865,115.07Z" transform="translate(157.136 126.27)" fill="#fff"/>
  <path id="Path_1317" data-name="Path 1317" d="M149.2,115.321h0a.281.281,0,0,0,.075-.347,2.7,2.7,0,0,0-2.841-1.736c-.1.016-.164.145-.147.278h0c.016.125.107.214.2.2a2.33,2.33,0,0,1,2.483,1.5C149.027,115.329,149.122,115.37,149.2,115.321Z" transform="translate(156.376 126.559)" fill="#fff"/>
  <path id="Path_1318" data-name="Path 1318" d="M148.591,115.555h0a.281.281,0,0,0,.075-.347,2.7,2.7,0,0,0-2.84-1.736c-.1.016-.165.145-.148.278h0c.018.125.108.214.2.2a2.33,2.33,0,0,1,2.483,1.5C148.413,115.563,148.507,115.605,148.591,115.555Z" transform="translate(155.668 126.828)" fill="#fff"/>
  <path id="Path_1319" data-name="Path 1319" d="M149.417,117.625c1.051-3.441,2.911-3.811,3.93-3.723l.356,2.747c.069.527-.228,1-.626,1Z" transform="translate(159.979 127.352)" fill="#e87b50" opacity="0.3"/>
  <path id="Path_1320" data-name="Path 1320" d="M202.322,95.719c-.734-6.841-8.838-6.95-8.838-6.95l-4.36-.376-.105-.926s-30.055-3.578-34.165,10.055-7.222,40.606-7.222,40.606a10.474,10.474,0,0,0,9.352,0s7.617-28.968,10.47-31.808,23.347-3.307,23.347-3.307S203.056,102.56,202.322,95.719Z" transform="translate(157.922 96.424)" fill="#09083c"/>
  <path id="Path_1321" data-name="Path 1321" d="M159.964,102.491s.709-24.93,2.026-27.8,5.976-3.42,5.976-3.42,12.144-1.8,15.3,1.179c.237.223,5.726,7.51,4.848,42.072,0,0-10.429-5.738-28.15-8.679Z" transform="translate(172.129 77.626)" fill="#feb546"/>
  <path id="Path_1322" data-name="Path 1322" d="M170.114,68.676V74.9a.891.891,0,0,1-.511.808,5.477,5.477,0,0,1-5.058.013.885.885,0,0,1-.425-.763V69.339Z" transform="translate(176.918 75.264)" fill="#ffc0bb"/>
  <path id="Path_1323" data-name="Path 1323" d="M170.114,72.684V69.349l-5.993.659v2.829A10.32,10.32,0,0,0,170.114,72.684Z" transform="translate(176.918 76.04)" fill="#f99893"/>
  <rect id="Rectangle_534" data-name="Rectangle 534" width="33.398" height="4.634" transform="translate(269.033 175.593)" fill="#fff"/>
  <rect id="Rectangle_535" data-name="Rectangle 535" width="33.398" height="4.634" transform="translate(264.996 170.959)" fill="#70c0fd"/>
  <path id="Path_1324" data-name="Path 1324" d="M173.82,87.574s-22.452-.71-27.554,4.118-1.68,41.166-.829,44.5c0,0,4.655,2.219,8.34,1.082s2.268-17.038,2.268-17.038-.425-15.195.142-17.325,8.361-3.692,8.361-3.692,12.044-8.377,11.336-8.377S173.82,87.574,173.82,87.574Z" transform="translate(153.191 96.993)" fill="#09083c"/>
  <path id="Path_1325" data-name="Path 1325" d="M161.1,83.2l-3.59-9.925a.669.669,0,0,0-.926-.376l-6.8,3.346a.764.764,0,0,0-.362.99l5.878,13.495a.844.844,0,0,0,1.067.456l5.961-2.209Z" transform="translate(159.922 80.046)" fill="#07085b"/>
  <path id="Path_1326" data-name="Path 1326" d="M152.178,78.792a.526.526,0,0,1,.013-.078c.168-.646.351-.725.474-.724a.566.566,0,0,1,.008-.291c.3-.923.651-.086.651-.086.861,1.282,3.524,2.433,3.524,2.433l.91.2a20.9,20.9,0,0,1,.5-2.162s1.9,3.451,1.918,3.492a8.509,8.509,0,0,1-1.363,2.035c-.421.464-1.242,1.591-1.294,1.68,0,0-1.973-1.253-2.68-1.872a31.87,31.87,0,0,1-2.615-2.34,1.169,1.169,0,0,1-.293-1.127A1.041,1.041,0,0,1,152.178,78.792Z" transform="translate(162.771 85.16)" fill="#ffc0bb"/>
  <path id="Path_1327" data-name="Path 1327" d="M152,77.949a2.189,2.189,0,0,0,.269.734,3.333,3.333,0,0,0,.463.634,3.852,3.852,0,0,0,.591.515c.105.078.22.142.329.212a2.514,2.514,0,0,0,.347.177c-.212-.149-.425-.294-.626-.459a5.687,5.687,0,0,1-.562-.521,4.675,4.675,0,0,1-.472-.6,3.191,3.191,0,0,1-.339-.689Z" transform="translate(162.957 85.947)" fill="#f99893"/>
  <path id="Path_1328" data-name="Path 1328" d="M151.881,78.51a2.191,2.191,0,0,0,.326.71,3.411,3.411,0,0,0,.511.6,3.894,3.894,0,0,0,.626.466c.11.069.229.125.343.185a3.352,3.352,0,0,0,.361.148c-.223-.125-.447-.259-.658-.407a5.981,5.981,0,0,1-.6-.476,4.692,4.692,0,0,1-.517-.562,3.14,3.14,0,0,1-.391-.66Z" transform="translate(162.817 86.593)" fill="#f99893"/>
  <path id="Path_1329" data-name="Path 1329" d="M152.222,77.6a2.207,2.207,0,0,0,.268.733,3.353,3.353,0,0,0,.463.635,3.916,3.916,0,0,0,.593.515c.105.078.219.142.328.212a2.531,2.531,0,0,0,.348.177c-.213-.15-.426-.294-.626-.459a5.837,5.837,0,0,1-.561-.522,4.556,4.556,0,0,1-.472-.6,3.158,3.158,0,0,1-.341-.689Z" transform="translate(163.21 85.548)" fill="#f99893"/>
  <path id="Path_1330" data-name="Path 1330" d="M184.111,85.857l-6.462,9.765-8.59-1.7-14.581-10.9,2.554-3.8s13.655,8.206,14.823,8.436,4.332-7.192,4.332-7.192Z" transform="translate(165.809 87.422)" fill="#ffc0bb"/>
  <path id="Path_1331" data-name="Path 1331" d="M179.052,78.59c-.707,3.874-2.561,12.844-5.242,16.986,0,0-6.481-.475-10.131-4.907,0,0,4.989-12.326,6.291-14.852,1.046-2.03,6.092-8.065,8.588-2.077A8.6,8.6,0,0,1,179.052,78.59Z" transform="translate(176.409 78.125)" fill="#f4a640"/>
  <rect id="Rectangle_536" data-name="Rectangle 536" width="2.275" height="62.302" transform="translate(264.996 183.464)" fill="#183658"/>
  <rect id="Rectangle_537" data-name="Rectangle 537" width="2.275" height="62.302" transform="translate(286.466 183.464)" fill="#183658"/>
  <rect id="Rectangle_538" data-name="Rectangle 538" width="2.275" height="62.302" transform="translate(351.408 183.464)" fill="#183658"/>
  <rect id="Rectangle_539" data-name="Rectangle 539" width="2.275" height="62.302" transform="translate(372.878 183.464)" fill="#183658"/>
  <rect id="Rectangle_540" data-name="Rectangle 540" width="122.656" height="3.973" rx="0.466" transform="translate(258.903 180.227)" fill="#fee4cb"/>
  <path id="Path_1332" data-name="Path 1332" d="M178.859,73.056s2.073-7.425-1.949-10.431a10.891,10.891,0,0,0-11.5-1.353c-3.069,1.545-5.121,7.334-3.927,10.753l10.08-2.741Z" transform="translate(173.479 65.511)" fill="#07085b"/>
  <path id="Path_1333" data-name="Path 1333" d="M163.789,66.831a1.528,1.528,0,1,1-2.061-1.2A1.707,1.707,0,0,1,163.789,66.831Z" transform="translate(173.157 71.658)" fill="#f99893"/>
  <path id="Path_1334" data-name="Path 1334" d="M163.092,76.729a7.809,7.809,0,0,1-.574-1.317,14.753,14.753,0,0,1-.725-3.682c-.02-.251-.053-.487-.09-.729a7.956,7.956,0,1,1,15.814-1.076,1.715,1.715,0,0,1,1.551-.091,2.4,2.4,0,0,1-1.991,4.244,1.489,1.489,0,0,1-.352-.232,7.463,7.463,0,0,1-7.544,6.709,7.131,7.131,0,0,1-4.8-2.112c-.084-.074-.172-.159-.264-.258a6.9,6.9,0,0,1-1.021-1.456Z" transform="translate(174.02 67.348)" fill="#ffc0bb"/>
  <path id="Path_1335" data-name="Path 1335" d="M164.941,65.455c-.053.453-.093.9-.152,1.33a2.868,2.868,0,0,1-.342,1.161l-.039.045a.628.628,0,0,1-.046.055,1.122,1.122,0,0,0-.134.162.909.909,0,0,0-.153.407.942.942,0,0,0,.286.764,1.532,1.532,0,0,0,1.342.376,1.9,1.9,0,0,1-1.072-.614.605.605,0,0,1-.125-.47.518.518,0,0,1,.1-.209.717.717,0,0,1,.083-.094l.063-.071.07-.083a1.769,1.769,0,0,0,.274-.709,3.7,3.7,0,0,0,.055-.7A4.754,4.754,0,0,0,164.941,65.455Z" transform="translate(176.861 71.554)" fill="#f99893"/>
  <path id="Path_1336" data-name="Path 1336" d="M165.675,66.195a.694.694,0,1,0,.719-.67.694.694,0,0,0-.719.67Z" transform="translate(178.707 71.633)" fill="#333"/>
  <path id="Path_1337" data-name="Path 1337" d="M162.9,66.278a.694.694,0,1,0,.719-.67A.694.694,0,0,0,162.9,66.278Z" transform="translate(175.51 71.729)" fill="#333"/>
  <path id="Path_1338" data-name="Path 1338" d="M165.329,65.44a7.247,7.247,0,0,1,1.031-.159,3.509,3.509,0,0,1,.963.059,3.272,3.272,0,0,1,.9.322c.155.063.287.169.442.251s.286.2.454.292a3,3,0,0,0-.268-.489,2.462,2.462,0,0,0-.388-.412,2.236,2.236,0,0,0-1.039-.5,2.328,2.328,0,0,0-1.149.058,2.13,2.13,0,0,0-.951.58Z" transform="translate(178.309 70.749)" fill="#07085b"/>
  <path id="Path_1339" data-name="Path 1339" d="M165.918,65.458a2.142,2.142,0,0,0-.968-.552,2.339,2.339,0,0,0-1.151-.023,2.245,2.245,0,0,0-1.022.534,2.358,2.358,0,0,0-.376.425,2.852,2.852,0,0,0-.251.5c.165-.1.3-.212.445-.307a3.14,3.14,0,0,1,.435-.263,3.257,3.257,0,0,1,.893-.35,3.486,3.486,0,0,1,.961-.088A7.161,7.161,0,0,1,165.918,65.458Z" transform="translate(174.648 70.824)" fill="#07085b"/>
  <path id="Path_1340" data-name="Path 1340" d="M176.09,70.991a1.211,1.211,0,0,1,.823-.331l-.1-2.435-.689-1.495s-2.777-4.063-2.881-4.164-2.294-1.472-2.43-1.543-3.307.268-3.307.268-5.492-1.378-4.683,1.568,4.789,4.644,5,4.524a4.879,4.879,0,0,1-.618-2.532C169.94,68.089,175.262,70.61,176.09,70.991Z" transform="translate(175.326 66.385)" fill="#07085b"/>
  <path id="Path_1341" data-name="Path 1341" d="M163.568,67.873a2.067,2.067,0,0,0,3.98.259Z" transform="translate(176.281 74.34)" fill="#fff"/>
  <rect id="Rectangle_541" data-name="Rectangle 541" width="35.343" height="3.973" rx="0.466" transform="translate(346.216 180.227)" fill="#e0a689" opacity="0.5"/>
  <rect id="Rectangle_542" data-name="Rectangle 542" width="15.8" height="3.089" transform="translate(266.582 171.677)" fill="#97cef7"/>
  <rect id="Rectangle_543" data-name="Rectangle 543" width="1.706" height="4.634" transform="translate(293.667 175.593)" fill="#c9eafd"/>
  <rect id="Rectangle_544" data-name="Rectangle 544" width="650.266" height="3.389" rx="0.786" transform="translate(20.633 245.821)" fill="#70c0fd"/>
  <rect id="Rectangle_545" data-name="Rectangle 545" width="2.275" height="62.302" transform="translate(403.333 183.464)" fill="#183658"/>
  <rect id="Rectangle_546" data-name="Rectangle 546" width="2.275" height="62.302" transform="translate(424.803 183.464)" fill="#183658"/>
  <rect id="Rectangle_547" data-name="Rectangle 547" width="2.275" height="62.302" transform="translate(489.743 183.464)" fill="#183658"/>
  <rect id="Rectangle_548" data-name="Rectangle 548" width="2.275" height="62.302" transform="translate(511.215 183.464)" fill="#183658"/>
  <rect id="Rectangle_549" data-name="Rectangle 549" width="122.656" height="3.973" rx="0.466" transform="translate(397.241 180.227)" fill="#fee4cb"/>
  <rect id="Rectangle_550" data-name="Rectangle 550" width="35.343" height="3.973" rx="0.466" transform="translate(484.404 180.227)" fill="#e0a689" opacity="0.5"/>
  <rect id="Rectangle_551" data-name="Rectangle 551" width="35.343" height="3.973" rx="0.466" transform="translate(622.968 180.227)" fill="#e0a689" opacity="0.5"/>
</svg>
