<svg xmlns="http://www.w3.org/2000/svg" width="55.337" height="31.127" viewBox="0 0 55.337 31.127">
  <g id="Group_10" data-name="Group 10" opacity="0.9">
    <path id="Path_314" data-name="Path 314" d="M0,37.625V68.752H55.337V37.625Zm3.459,3.459h48.42v24.21H3.459Zm17.293,5.188v9.511a1.047,1.047,0,0,1-.865.865,1.047,1.047,0,0,1-.865-.865v-.865H15.563v.865a4.323,4.323,0,1,0,8.646,0V46.271Zm11.24,0a4.323,4.323,0,1,0,0,8.646,1.047,1.047,0,0,1,.865.865c0,.52-.2.865-.865.865-.635,0-.736-.135-.757-.162s-.108-.135-.108-.54H27.668a4.2,4.2,0,0,0,1.081,2.918,4.472,4.472,0,0,0,7.566-3.08,4.319,4.319,0,0,0-4.323-4.323.865.865,0,0,1,0-1.729c.459,0,.6.108.7.216a.727.727,0,0,1,.162.486h3.459a4.155,4.155,0,0,0-1.135-2.864,4.392,4.392,0,0,0-3.188-1.3Z" transform="translate(0 -37.625)" fill="#181e27"/>
  </g>
</svg>
