<svg xmlns="http://www.w3.org/2000/svg" width="168" height="36.816" viewBox="0 0 168 36.816">
  <path id="Path_929" data-name="Path 929" d="M38.221,23.664h46V36.816h-46Zm43.935,9.443a.935.935,0,0,1-.243.038c-.259,0-.395-.115-.395-.447V30.2c0-1.313-1.038-1.952-2.285-1.952a5.532,5.532,0,0,0-2.464.519l-.223,1.324,1.313.14.188-.646a1.8,1.8,0,0,1,.881-.166c.932,0,.944.7.944,1.3v.18a7.743,7.743,0,0,0-.944-.052c-1.313,0-2.679.332-2.679,1.747a1.619,1.619,0,0,0,1.773,1.646,2.073,2.073,0,0,0,1.85-1.147,1.173,1.173,0,0,0,1.265,1.147,2.219,2.219,0,0,0,1.039-.259Zm-3.534-.038a.6.6,0,0,1-.676-.666c0-.626.52-.779,1.1-.779a5.985,5.985,0,0,1,.828.075,1.274,1.274,0,0,1-1.251,1.369Zm-3.831-7.734L72.3,34.111h1.62l2.489-8.776Zm-3.342,0-2.487,8.777h1.62l2.487-8.777Zm-5.289,5.1h1.722V28.359H66.161Zm0,3.686h1.722V32.044H66.161Zm-2.777-1.259H61.52l3.191-3.636-.127-.868H59.531l-.206,2.019,1.187.126.259-.893h1.8l-3.165,3.634.166.868h5.024l.359-2.019-1.3-.126Zm-7.973-4.619a2.874,2.874,0,0,0-3.086,3.074,2.765,2.765,0,0,0,3,2.92,2.924,2.924,0,0,0,3.164-3,2.856,2.856,0,0,0-3.078-3Zm-.041,4.724c-.894,0-1.353-.765-1.353-1.76,0-1.086.519-1.712,1.365-1.712.779,0,1.4.52,1.4,1.686,0,1.1-.56,1.786-1.417,1.786Zm-4.534-2.736a1.86,1.86,0,0,0-1.978-1.991,1.927,1.927,0,0,0-1.873,1.238,1.862,1.862,0,0,0-1.875-1.238,1.9,1.9,0,0,0-1.747.981v-.867H40.951V29.6h.765V32.86H40.95v1.251h3.51V32.86h-1.1v-2c0-.8.332-1.367,1.112-1.367.649,0,.981.385.981,1.38v3.243h2.411V32.866H47.1V30.861c0-.8.332-1.367,1.111-1.367.649,0,.981.385.981,1.38v3.235H51.6V32.857h-.766Zm60.488-17.189h-4.829c.177-1.485.891-2.731,2.513-2.731a2.308,2.308,0,0,1,2.315,2.731ZM168.116,0V22.368H38.221V0ZM55.076,5.286H52.12L47.248,15.362h-.08L42.16,5.285H39.212V6.552h1.681V16.874H39.272v1.267h4.55V16.874H42.277V8.629h.077L46.768,17.5h.779L51.862,8.69h.081v8.184H50.436V18.14H55V16.873h-1.6V6.553h1.681Zm7.672,12.867a6.1,6.1,0,0,0,6.513-6.464c0-3.721-2.375-6.413-6.571-6.413h-5.76V6.522h1.623V16.906H56.929v1.246ZM83.513,5.286H78.58V6.552h1.939V15.2h-.077L73.119,5.286H70.348V6.552h1.7V16.874H70.567v1.267h4.9V16.874H73.43V8.018h.077l7.465,10.135H81.9V6.552h1.6Zm20.505,4.061H100.06v1.126h1.4l-1.426,5.564h-.1L97.188,9.345h-.929l-2.628,6.693h-.1l-1.643-5.564h1.484V9.346H89.222v1.126H90.39l2.5,7.679h1.038l2.635-6.73h.1l2.684,6.729h1.069l2.4-7.679h1.208Zm5.147,9c2.178,0,3.465-1.215,3.708-2.739l-1.169-.259a2.272,2.272,0,0,1-2.434,1.8c-1.753,0-2.71-1.127-2.791-3.086h6.186a4.883,4.883,0,0,0,.12-1.039,3.634,3.634,0,0,0-3.741-3.862c-2.492,0-4.038,1.981-4.038,4.714,0,2.85,1.66,4.472,4.155,4.472Zm10.293,0c2.812,0,3.941-2.5,3.941-4.832,0-2.8-1.584-4.353-3.78-4.353a3.3,3.3,0,0,0-3.148,2V4.533h-2.71V5.662h1.3v9.921a17.5,17.5,0,0,1-.259,2.572h1.386q.106-.73.18-1.463a3.357,3.357,0,0,0,3.086,1.662Zm20.112-1.327h-1.524V4.532h-3.531V5.661h2.148v5.107a3.235,3.235,0,0,0-2.949-1.6c-2.871,0-3.979,2.457-3.979,4.811,0,2.751,1.5,4.374,3.78,4.374a3.486,3.486,0,0,0,3.148-1.978v1.783h2.9Zm5.345,1.327a4.275,4.275,0,0,0,4.408-4.611c0-2.5-1.485-4.592-4.335-4.592s-4.353,2.1-4.353,4.673c0,2.654,1.6,4.533,4.275,4.533Zm9.936,0a3.549,3.549,0,0,0,3.736-3.157l-1.188-.261c-.256,1.447-1.01,2.239-2.375,2.239-1.743,0-2.692-1.257-2.692-3.376,0-1.9.754-3.445,2.633-3.445a3.378,3.378,0,0,1,1.881.5l.322,1.486,1.148-.138-.338-2.117a4.684,4.684,0,0,0-3.009-.911c-2.73,0-4.116,2.277-4.116,4.714,0,2.829,1.563,4.472,4,4.472Zm8.572,0c2.119,0,3.742-1.029,3.721-2.76,0-3.5-5.451-1.685-5.451-3.98,0-.9.791-1.3,1.9-1.3a3.726,3.726,0,0,1,1.818.435l.2,1.431,1.148-.138-.218-2.057a6.245,6.245,0,0,0-3.068-.814c-1.6,0-3.267.693-3.267,2.555,0,3.424,5.522,1.584,5.522,4,0,1.01-1.148,1.485-2.376,1.485a4.462,4.462,0,0,1-1.96-.436l.06-1.168-1.109-.12-.278,2a6.69,6.69,0,0,0,3.347.87Zm-41.488-4.691c0,1.822-.812,3.5-2.751,3.5a2.652,2.652,0,0,1-2.713-2.653V13.183a2.911,2.911,0,0,1,2.791-2.83c1.5,0,2.672,1.109,2.674,3.3Zm14.724-.814v1.407a3.058,3.058,0,0,1-2.79,2.91c-1.524,0-2.672-1.129-2.672-3.286,0-1.862.87-3.524,2.83-3.524a2.579,2.579,0,0,1,2.633,2.493Zm11.206.87c0,1.981-1.029,3.445-2.91,3.445s-2.871-1.5-2.871-3.424c0-1.958,1.029-3.4,2.871-3.4s2.91,1.365,2.91,3.382Zm-80.14-1.991c0,3.194-1.781,5.192-5.047,5.192H60.01V6.532H62.67c3.266,0,5.047,2.08,5.057,5.193ZM.116,0H36.932V36.816H.116ZM32.278,16.9c-.028-.555-.092-1.112-.131-1.663a1.336,1.336,0,0,0-.3-.752,1.892,1.892,0,0,0-.788-.568c-.62-.241-1.245-.51-1.869-.749a16.512,16.512,0,0,1-2.566-1.13,2.016,2.016,0,0,1-.995-1.514A2.268,2.268,0,0,0,24.5,8.819a3.118,3.118,0,0,0-2.271-.269,3.457,3.457,0,0,1-1.712-.025l-.854-.261-.232-.069-.67-.2A6.121,6.121,0,0,0,15.1,7.781a11.268,11.268,0,0,0-5.443,2.992l-4.89,5.19H9.153l-2.69,2.848h4.626L8.4,21.659h3.719l-1.188,3.117a19.866,19.866,0,0,0,9.4,5.6,45.464,45.464,0,0,1,.634-7.17,4.03,4.03,0,0,1,.585-1.182,3.233,3.233,0,0,1,2.6-1.188,8.231,8.231,0,0,1,2.929.539,2.009,2.009,0,0,0,1.748-.094q.583-.348,1.15-.722a.644.644,0,0,1,.427-.138.947.947,0,0,0,.975-.563c.123-.253.269-.491.4-.745a4.187,4.187,0,0,0,.486-2.211Z" transform="translate(-0.116)" fill="#fff" opacity="0.7"/>
</svg>
