<svg xmlns="http://www.w3.org/2000/svg" xmlns:xlink="http://www.w3.org/1999/xlink" width="74.792" height="74.679" viewBox="0 0 74.792 74.679">
  <defs>
    <filter id="Union_8" x="0" y="0" width="74.792" height="74.679" filterUnits="userSpaceOnUse">
      <feOffset input="SourceAlpha"/>
      <feGaussianBlur stdDeviation="6" result="blur"/>
      <feFlood flood-color="#e8d1b7" flood-opacity="0.302"/>
      <feComposite operator="in" in2="blur"/>
      <feComposite in="SourceGraphic"/>
    </filter>
  </defs>
  <g id="channel" transform="translate(17 17)">
    <g transform="matrix(1, 0, 0, 1, -17, -17)" filter="url(#Union_8)">
      <path id="Union_8-2" data-name="Union 8" d="M-4647.313-753.32l-.3-.825-.793.372-2.384-2.384.372-.794-.824-.3v-3.37l.826-.3-.373-.795,2.384-2.382.794.371.3-.824h3.37l.3.826.793-.372,2.384,2.384-.371.795.824.3v3.37l-.825.3.371.794-2.383,2.384-.795-.372-.3.824Zm.561-2.037.126.276.187.513h1.622l.283-.777.674-.278.747.35,1.147-1.147-.35-.747.267-.643.276-.126.513-.188v-1.62l-.777-.283-.278-.674.349-.747-1.146-1.147-.748.35-.642-.267-.127-.276-.187-.513h-1.622l-.283.778-.674.278-.747-.351-1.147,1.147.35.748-.266.642-.276.127-.514.187v1.62l.778.284.278.673-.35.748,1.147,1.147.747-.351Zm-19.463-4.825v-2.237a3.128,3.128,0,0,0-.331-1.394l-.746-1.492a1.652,1.652,0,0,1-.171-.73,1.6,1.6,0,0,1,.461-1.169,1.568,1.568,0,0,1,1.118-.464,3.372,3.372,0,0,1,2.164.77v-4.287a8.072,8.072,0,0,1-3.743-2.536v7.35l-1.015-.81a10.766,10.766,0,0,0-3.354-1.808v4.44h-1.247v2.5h3.744a1.874,1.874,0,0,1,1.872,1.872v2.5a1.874,1.874,0,0,1-1.872,1.872h-1.872v.989a1.508,1.508,0,0,1-1.506,1.506,1.5,1.5,0,0,1-1.065-.44l-2.054-2.055h-.99a1.874,1.874,0,0,1-1.872-1.872v-2.5a1.874,1.874,0,0,1,1.872-1.872h2.5v-3.006l-1.68-4.481h-.815a1.874,1.874,0,0,1-1.872-1.872v-1.248a1.874,1.874,0,0,1,1.872-1.872h1.62a10.806,10.806,0,0,0,6.226-1.995,8.123,8.123,0,0,1-.359-2.372,8.12,8.12,0,0,1,8.11-8.11,8.12,8.12,0,0,1,8.11,8.11,8.154,8.154,0,0,1-6.863,8.008v1.487l1.248.312,1.249.312,2.5.623,1.078.269a1.869,1.869,0,0,1,1.417,1.816v5.889a6.87,6.87,0,0,1-6.862,6.862A6.87,6.87,0,0,1-4666.216-760.182Zm.1-6.142a.338.338,0,0,0-.1.238.461.461,0,0,0,.04.223l.746,1.491a4.389,4.389,0,0,1,.461,1.953v2.237a5.62,5.62,0,0,0,5.615,5.614,5.62,5.62,0,0,0,5.615-5.614v-5.889a.625.625,0,0,0-.473-.606l-.775-.194v5.44h-1.249v-5.751l-1.247-.312v6.064h-1.249v-6.375l-1.248-.312v6.687h-1.247v-13.725a.624.624,0,0,0-.625-.623.624.624,0,0,0-.624.623v13.725h-1.247v-2.876a2.1,2.1,0,0,0-.621-1.495,2.1,2.1,0,0,0-1.5-.62A.37.37,0,0,0-4666.12-766.325Zm-11.326,6.142v2.5a.624.624,0,0,0,.624.623h1.505l2.42,2.42a.268.268,0,0,0,.441-.183v-2.237h3.12a.624.624,0,0,0,.624-.623v-2.5a.624.624,0,0,0-.624-.625h-7.487A.624.624,0,0,0-4677.446-760.182Zm4.175-5.615h.191v-3.521a10.561,10.561,0,0,0-1.586-.2Zm-.433-7.586v2.7a12.078,12.078,0,0,1,4.992,1.8v-6.305A12.1,12.1,0,0,1-4673.7-773.384Zm-3.742.723v1.248a.624.624,0,0,0,.624.624h1.62c.085,0,.167.008.251.009v-2.514c-.084,0-.168.009-.251.009h-1.62A.624.624,0,0,0-4677.446-772.661Zm17.467.51a6.859,6.859,0,0,0,4.021-2.381h-4.021Zm-3.742-.359v-2.022h-2.794A6.821,6.821,0,0,0-4663.721-772.51Zm5.961-3.269h2.636a6.854,6.854,0,0,0,.73-2.5h-3.106A17.413,17.413,0,0,1-4657.759-775.779Zm-2.333,0h1.062a15.727,15.727,0,0,0,.284-2.5h-4.958a16.13,16.13,0,0,0,.227,2.213,1.866,1.866,0,0,1,1.627-.966A1.87,1.87,0,0,1-4660.092-775.779Zm-7.243,0h2.643a17.277,17.277,0,0,1-.259-2.5h-3.107A6.877,6.877,0,0,0-4667.335-775.779Zm9.84-3.743h3.1a6.821,6.821,0,0,0-.727-2.5h-2.63A17.079,17.079,0,0,1-4657.5-779.523Zm-6.212,0h4.964a15.588,15.588,0,0,0-.287-2.5h-4.392A15.59,15.59,0,0,0-4663.708-779.523Zm-4.35,0h3.1a17.287,17.287,0,0,1,.255-2.5h-2.629A6.794,6.794,0,0,0-4668.057-779.523Zm10.017-3.743h2.1a6.893,6.893,0,0,0-2.972-2.084A8.648,8.648,0,0,1-4658.04-783.266Zm-5.063,0h3.754c-.492-1.543-1.206-2.5-1.876-2.5S-4662.61-784.809-4663.1-783.266Zm-3.412,0h2.1a8.667,8.667,0,0,1,.869-2.084A6.882,6.882,0,0,0-4666.515-783.266Zm20.262,17.469v-3.743H-4645v3.743Zm0-4.992v-1.247H-4645v1.247Zm0-2.5v-3.743H-4645v3.743Zm-28.7-2.5v-4.992h-3.743V-792h8.733v11.229h-3.743v4.992Zm-2.5-6.239h6.238v-8.735h-6.238Zm26.088,3.743.391-2.341a3.768,3.768,0,0,1,2.963-3.062.61.61,0,0,0,.411-.3,3.1,3.1,0,0,1-1.128-2.117l-.478-.479a2.708,2.708,0,0,1-.8-1.926,3.5,3.5,0,0,1,3.5-3.5h1.74a3.5,3.5,0,0,1,3.5,3.5,2.713,2.713,0,0,1-.8,1.927l-.479.478a3.1,3.1,0,0,1-1.127,2.118.615.615,0,0,0,.41.3,3.767,3.767,0,0,1,2.965,3.061l.39,2.341Zm3.6-4.179a2.517,2.517,0,0,0-1.979,2.042l-.148.889h8.509l-.148-.889a2.517,2.517,0,0,0-1.979-2.042c-.014,0-.026-.009-.04-.012l-.6.9a1.79,1.79,0,0,1-1.489.8,1.791,1.791,0,0,1-1.49-.8l-.6-.9C-4647.73-782.463-4647.743-782.457-4647.757-782.453Zm1.1-.676.58.87a.562.562,0,0,0,.9,0l.58-.87a1.889,1.889,0,0,1-.177-.27,3.073,3.073,0,0,1-.854.134,3.062,3.062,0,0,1-.854-.134A1.848,1.848,0,0,1-4646.66-783.13Zm-.659-4.428a.628.628,0,0,0-.182.442v.732a1.874,1.874,0,0,0,1.872,1.87,1.874,1.874,0,0,0,1.872-1.87v-.732a.631.631,0,0,0-.183-.442l-.882-.883.882-.882.882.882a1.848,1.848,0,0,1,.393.584,1.454,1.454,0,0,0,.155-.646,2.252,2.252,0,0,0-2.25-2.25h-1.74a2.251,2.251,0,0,0-2.249,2.25,1.463,1.463,0,0,0,.155.646,1.872,1.872,0,0,1,.393-.582l1.323-1.323,1.688,1.688-.882.883-.807-.807Zm-28.88,4.292v-1.248h3.743v1.248Zm0-2.5v-1.248h3.743v1.248Zm0-2.5V-789.5h3.743v1.248Z" transform="translate(4696.69 810)" fill="#e8d1b7"/>
    </g>
    <path id="Path_938" data-name="Path 938" d="M52.119,49a3.119,3.119,0,1,0,3.119,3.119A3.123,3.123,0,0,0,52.119,49Zm0,4.991a1.872,1.872,0,1,1,1.872-1.872A1.874,1.874,0,0,1,52.119,53.991Z" transform="translate(-18.054 -18.054)" fill="#e8d1b7"/>
    <path id="Path_942" data-name="Path 942" d="M13,53h1.248v1.248H13Z" transform="translate(-4.514 -19.559)" fill="#e8d1b7"/>
    <path id="Path_943" data-name="Path 943" d="M5,53H6.248v1.248H5Z" transform="translate(-1.505 -19.559)" fill="#e8d1b7"/>
    <path id="Path_944" data-name="Path 944" d="M9,53h1.248v1.248H9Z" transform="translate(-3.009 -19.559)" fill="#e8d1b7"/>
  </g>
</svg>
