<svg xmlns="http://www.w3.org/2000/svg" width="76" height="52.085" viewBox="0 0 76 52.085">
  <g id="mkkpLogo_1_" data-name="mkkpLogo (1)" transform="translate(-6.313 -509.114)" opacity="0.7">
    <path id="Path_368" data-name="Path 368" d="M62.162,543.227c.151.463.283.907.442,1.34.141.385.177.407.572.394.732-.024,1.465-.065,2.238-.1-.076-.225-.138-.407-.2-.589-.178-.5-.368-1-.535-1.5a.254.254,0,0,0-.292-.2c-.381.009-.762,0-1.143,0-.08,0-.162-.009-.258-.015a.407.407,0,0,1,.448-.279c.812-.019,1.624-.033,2.437-.056.457-.011.913-.032,1.37-.05a.481.481,0,0,1,.5.275,7.45,7.45,0,0,1,.881,2.028c.214-.054.416-.093.613-.156A31.1,31.1,0,0,0,73,542.682a39.808,39.808,0,0,0,5.981-3.669c.162-.115.307-.255.459-.381l-.028-.074-6.907.654c.019-.108.026-.182.046-.255q.725-2.676,1.452-5.355c.13-.478.132-.478.613-.431l4.241.4c.1.009.2,0,.349,0a2.331,2.331,0,0,0-.236-.208c-.611-.394-1.214-.8-1.84-1.169-.7-.411-1.42-.786-2.136-1.169-.139-.074-.2-.147-.149-.314.089-.288.151-.585.232-.907a4.628,4.628,0,0,1,.478.221,19.958,19.958,0,0,1,3.269,2.355,4.843,4.843,0,0,1,.742.8,1.669,1.669,0,0,0,1.277.717,9.182,9.182,0,0,1,1.143.216c.112.028.2.158.294.242l-.045.095H78.817V537.7a21.8,21.8,0,0,1,3.5.087.534.534,0,0,1-.435.364c-.437.093-.885.139-1.318.245a2.274,2.274,0,0,0-.589.3.716.716,0,0,0-.182.21,19.23,19.23,0,0,1-5.541,5.039,25.909,25.909,0,0,1-3.676,2.044c-.193.082-.392.147-.619.232.076.2.136.388.223.569.7,1.464,1.409,2.924,2.106,4.388.086.182.221.177.375.177q4.494,0,8.988,0H82v1.057H46.105v2.671h-.641v-2.626c-.243-.11-.385.009-.528.154q-2.557,2.6-5.12,5.185c-.7.708-1.422,1.4-2.136,2.1-.143.141-.3.269-.5.446l-2.444-2.574-1.589,1.537Q21.4,547.571,9.634,535.829c-.013.128-.026.2-.026.27-.006,3.546-.013,7.092,0,10.639a2.22,2.22,0,0,0,.206.952,6.6,6.6,0,0,1,.379,4.6,1.093,1.093,0,0,0,.045.608,32.414,32.414,0,0,1,1.52,5.3,4.206,4.206,0,0,1,.063.63c.011.219,0,.439,0,.693-.309.05-.611.1-.916.147-1.255.184-2.509.364-3.762.552-.5.074-.738-.043-.782-.535a6.41,6.41,0,0,1,.026-1.74c.243-1.292.552-2.574.883-3.849a10.406,10.406,0,0,1,.611-1.526,1.128,1.128,0,0,0,.084-.757A5.53,5.53,0,0,1,8.292,548a3.253,3.253,0,0,0,.318-1.491c-.03-3.386-.043-6.771-.058-10.157,0-.465,0-.933.046-1.4a.911.911,0,0,1,.234-.5c.554-.58,1.128-1.145,1.7-1.706.494-.483,1-.954,1.5-1.433.115-.112.221-.232.327-.353.072-.082.13-.178.208-.255.762-.753,1.53-1.5,2.294-2.254.368-.362.73-.729,1.1-1.093.749-.747,1.494-1.5,2.245-2.24.563-.558,1.141-1.1,1.7-1.665.461-.466.9-.953,1.355-1.429.112-.115.234-.219.355-.325.095-.084.2-.154.292-.244q3.348-3.36,6.695-6.724,2.255-2.267,4.516-4.528c.022-.022.05-.043.054-.046l1.494,1.394c.08-.065.2-.149.3-.247.665-.664,1.327-1.331,1.991-1.994.262-.26.27-.264.559-.03a7.233,7.233,0,0,1,.543.5q4.324,4.349,8.646,8.7c1.176,1.18,2.377,2.338,3.561,3.511.262.26.5.545.794.872a9.154,9.154,0,0,0-1.11.093,1.459,1.459,0,0,1-1.437-.526Q44.135,518,39.738,513.6c-.729-.73-1.481-1.439-2.215-2.165-.175-.175-.31-.212-.5-.02-.574.585-1.156,1.162-1.738,1.738-.5.493-1.013.972-1.509,1.47s-.965,1.013-1.457,1.509c-.452.453-.924.887-1.377,1.338-.517.513-1.019,1.039-1.533,1.552q-6.186,6.181-12.376,12.362-1.419,1.419-2.823,2.849c-.141.143-.269.3-.424.472.121.134.227.262.344.381,1.82,1.842,3.632,3.693,5.466,5.524q7.968,7.956,15.951,15.9c.455.453.9.918,1.361,1.368.292.284.318.292.619.007q1.1-1.051,2.176-2.132c1.3-1.308,2.578-2.641,3.89-3.938.732-.725.755-.7,1.786-.7h4.2c.054-.862.108-1.708.165-2.6H48.1a.633.633,0,0,1,.561-.368,5.543,5.543,0,0,1,.58.048c.426.046.621-.136.6-.558a2.788,2.788,0,0,1-.013-.556,2.51,2.51,0,0,1,.186-.5l.106.02v.253c0,.364,0,.729,0,1.091,0,.132.026.206.18.2.953-.017,1.907-.026,2.872-.039.082-.838-.223-1.63.056-2.388.03,0,.059,0,.089,0,.095.764.19,1.528.288,2.312a.96.96,0,0,0,.151.022c.838,0,1.676,0,2.515.008.214,0,.3-.08.275-.281q-.114-.942-.24-1.885c-.022-.171-.061-.342.2-.461a5.324,5.324,0,0,1,.167.621c.082.569.143,1.141.208,1.712a.243.243,0,0,0,.234.249c.167.019.335.054.5.056.768.006,1.535,0,2.331,0-.095-.476-.184-.9-.262-1.333-.071-.39-.128-.784-.2-1.175-.052-.3-.147-.383-.461-.381-.3,0-.593.013-.888.019a.561.561,0,0,1-.238-.033c.427-.283.909-.128,1.3-.173.115-.147.2-.257.286-.364l.214.37h2.388c.342,0,.37-.039.264-.372-.1-.308-.21-.613-.3-.924A.4.4,0,0,1,62.162,543.227Zm-8.8,7.888c-.054-.911-.106-1.777-.158-2.637a.407.407,0,0,0-.1-.026c-.965.019-1.927.041-2.892.058-.175,0-.177.108-.18.236-.019.617-.041,1.232-.065,1.849-.019.468.082.567.55.556.608-.015,1.217-.026,1.825-.033C52.666,551.111,52.993,551.114,53.358,551.114Zm3.225-2.65H53.547c.059.892.117,1.762.173,2.595h3.219C56.815,550.157,56.7,549.317,56.582,548.464Zm.4,0c.091.684.175,1.351.273,2.018.085.571.095.569.671.572.727,0,1.453.013,2.18.007.331,0,.4-.1.342-.431s-.117-.664-.178-1c-.072-.394-.151-.788-.223-1.171Zm6.263-.494c-.262-.888-.509-1.747-.773-2.6a.287.287,0,0,0-.221-.138c-.8-.009-1.591-.006-2.386-.006a1.145,1.145,0,0,0-.162.028c.191.861.387,1.706.561,2.556.041.2.11.264.312.256.836-.032,1.675-.048,2.511-.072A.638.638,0,0,0,63.242,547.966Zm3.293.028c-.039-.134-.059-.216-.087-.292-.271-.753-.552-1.5-.812-2.26-.058-.165-.125-.225-.3-.223-.76.009-1.522,0-2.282.006a2.257,2.257,0,0,0-.238.026c.286.885.561,1.743.851,2.6a.323.323,0,0,0,.245.141c.507.013,1.015.007,1.522.007C65.786,547.994,66.139,547.994,66.535,547.994Zm-6.109.459c.058.251.113.472.156.693.106.556.206,1.111.31,1.667.028.151.089.208.271.2.835-.032,1.671-.039,2.507-.047.4,0,.453-.054.342-.442-.184-.639-.387-1.275-.576-1.913a.334.334,0,0,0-.379-.258c-.7.026-1.4.045-2.1.067C60.786,548.427,60.619,548.442,60.426,548.453Zm7.118,2.357a.407.407,0,0,0,0-.115c-.262-.723-.528-1.444-.784-2.167a.231.231,0,0,0-.264-.173c-.829,0-1.66,0-2.489,0a1.884,1.884,0,0,0-.217.026.723.723,0,0,0,.007.126c.227.753.45,1.505.688,2.253.019.061.151.121.23.123q.661.014,1.32,0C66.539,550.863,67.042,550.832,67.544,550.81Zm8.932-13.124v-3.214H74.4v3.214Zm-11.482,4.9c.032.106.052.184.078.262q.245.694.493,1.385c.225.632.225.643.905.615a5.414,5.414,0,0,0,1.825-.18,1.932,1.932,0,0,0-.071-.262c-.232-.543-.474-1.082-.7-1.628a.32.32,0,0,0-.355-.21c-.634.007-1.269,0-1.905,0C65.182,542.569,65.1,542.578,64.994,542.583Zm2.156,5.771a1.934,1.934,0,0,0,.056.266q.19.524.387,1.045c.11.292.221.583.34.872a.4.4,0,0,0,.439.264c.558-.032,1.115-.045,1.675-.067.078,0,.156-.02.214-.028-.37-.751-.727-1.479-1.089-2.2a.274.274,0,0,0-.178-.143C68.392,548.351,67.793,548.354,67.15,548.354Zm-1.214-3.13c.351.918.678,1.784,1.02,2.645a.281.281,0,0,0,.216.119c.279.015.558.006.836.006h.846a.77.77,0,0,0-.033-.165q-.633-1.254-1.275-2.5a.212.212,0,0,0-.158-.1C66.924,545.221,66.461,545.224,65.937,545.224Z" transform="translate(0 0)" fill="#fff"/>
    <path id="Path_369" data-name="Path 369" d="M1629.3,1308.413a47.6,47.6,0,0,1,12.7-3.455,41.73,41.73,0,0,1,21.506,3.558.927.927,0,0,1-.112.017c-1.464,0-2.929.046-4.39-.008a12.465,12.465,0,0,1-1.8-.377c-1.485-.281-2.966-.586-4.461-.809-1.345-.2-2.7-.359-4.057-.439-1.569-.093-3.146-.143-4.717-.093s-3.123.2-4.673.39a39.913,39.913,0,0,0-5.724,1.2,3.733,3.733,0,0,1-.924.143c-1.041.015-2.082,0-3.123-.006a1.337,1.337,0,0,1-.21-.03A.624.624,0,0,1,1629.3,1308.413Z" transform="translate(-1592.822 -780.819)" fill="#fff"/>
    <path id="Path_370" data-name="Path 370" d="M948.125,1623.924c.08-.006.16-.017.24-.017q1.637,0,3.275.011c.344,0,.427-.048.455-.394.03-.362.019-.727.021-1.091,0-.608,0-1.215,0-1.857h-4c-.044-.258.1-.331.277-.366.73-.138,1.461-.277,2.191-.407a1.286,1.286,0,0,0,.762-.415,2.8,2.8,0,0,1,.516-.444q2.219-1.5,4.448-2.981c.076-.05.154-.1.256-.164.074.3.149.586.2.872.009.05-.063.141-.121.173-1.433.8-2.87,1.581-4.3,2.377a5.144,5.144,0,0,0-.483.344l.028.061,1.145-.1c1.414-.125,2.831-.245,4.243-.377.2-.019.273.054.323.244.3,1.16.632,2.314.927,3.475.208.816.379,1.643.58,2.517q-3.861-.357-7.708-.712c-.011.024-.02.05-.032.074a40.692,40.692,0,0,0,11.956,6.316,1.2,1.2,0,0,1-.178.162c-.547.3-1.1.6-1.643.905a1.1,1.1,0,0,1-1.095.013,29,29,0,0,1-6-3.621,17.943,17.943,0,0,1-2.888-2.806c-.212-.262-.374-.565-.584-.827a.786.786,0,0,0-.392-.275c-.609-.139-1.227-.234-1.838-.368a3.913,3.913,0,0,1-.6-.238C948.108,1623.982,948.115,1623.952,948.125,1623.924Zm6.152-3.349v3.223h2.156c0-1.039,0-2.057-.005-3.078,0-.048-.082-.139-.126-.139C955.618,1620.573,954.936,1620.575,954.276,1620.575Z" transform="translate(-924.283 -1086.117)" fill="#fff"/>
    <path id="Path_371" data-name="Path 371" d="M1606.847,1802.153l-1.524,2.907c-.258.493-.526.981-.779,1.478a.356.356,0,0,1-.314.191c-.624.112-.95-.147-1.223-.719-.63-1.321-1.349-2.6-2.032-3.9v4.593H1599.4V1800.6h.316c.567,0,1.134.008,1.7,0a.329.329,0,0,1,.349.214c.69,1.381,1.389,2.756,2.084,4.132a.7.7,0,0,0,.074.091c.225-.47.431-.928.662-1.374q.747-1.452,1.517-2.892a.323.323,0,0,1,.215-.16c.7-.013,1.4-.008,2.126-.008v6.122c-.5,0-1,.006-1.495-.009-.041,0-.111-.134-.111-.2,0-1.091,0-2.184.008-3.275C1606.847,1802.851,1606.847,1802.474,1606.847,1802.153Z" transform="translate(-1563.478 -1267.474)" fill="#fff"/>
    <path id="Path_372" data-name="Path 372" d="M3124.4,1807.807V1801.7h7.013v6.1c-.5,0-1.008.006-1.511-.009-.041,0-.11-.13-.112-.2-.011-.431-.005-.862-.005-1.293,0-1.134-.005-2.268,0-3.4,0-.212-.063-.271-.271-.27-1.074.009-2.148,0-3.223.005-.074,0-.15.008-.249.011-.007.124-.021.24-.021.355q0,2.22,0,4.44c0,.364,0,.364-.376.364C3125.234,1807.807,3124.822,1807.807,3124.4,1807.807Z" transform="translate(-3060.134 -1268.562)" fill="#fff"/>
    <path id="Path_373" data-name="Path 373" d="M2201.1,1806.5v-6.085h1.63v2.762c.338-.275.628-.509.915-.747.747-.621,1.5-1.241,2.238-1.87a.707.707,0,0,1,.507-.175c.541.011,1.082,0,1.656.057l-3.62,2.972c1.328,1.026,2.641,2.039,4.016,3.1-.727,0-1.375,0-2.024,0a.378.378,0,0,1-.2-.1q-1.667-1.283-3.334-2.567c-.031-.024-.069-.043-.141-.089v2.741C2202.185,1806.5,2201.657,1806.5,2201.1,1806.5Z" transform="translate(-2153.995 -1267.276)" fill="#fff"/>
    <path id="Path_374" data-name="Path 374" d="M2666.506,1803.614l4.019,3.1c-.719,0-1.368,0-2.017-.006a.437.437,0,0,1-.217-.111q-1.612-1.232-3.218-2.469c-.064-.05-.132-.094-.24-.171v2.738H2663.2V1800.6h1.63v2.762c.453-.374.857-.7,1.257-1.035.643-.535,1.282-1.076,1.929-1.606a.567.567,0,0,1,.314-.13c.567-.013,1.134-.005,1.7-.005.03,0,.06.009.141.02Z" transform="translate(-2607.506 -1267.469)" fill="#fff"/>
    <path id="Path_375" data-name="Path 375" d="M2240.325,2169.16h-.926v-3.86h4.007v3.857h-.913c0-.08-.012-.169-.012-.259,0-.914-.008-1.827,0-2.741,0-.229-.073-.288-.292-.283q-.786.022-1.572,0c-.227-.006-.307.052-.3.294.015.9.005,1.793.005,2.689C2240.325,2168.95,2240.325,2169.043,2240.325,2169.16Z" transform="translate(-2191.583 -1625.404)" fill="#fff"/>
    <path id="Path_376" data-name="Path 376" d="M2001.892,2165.508c.054.034.079.052.109.067a.852.852,0,0,1,.576.762.921.921,0,0,1-.542.9,2.909,2.909,0,0,1-1.01.275c-.587.045-1.18.013-1.8.013-.006-.074-.021-.162-.021-.251,0-1.109.006-2.217-.006-3.327,0-.236.073-.3.3-.3.55.02,1.1.009,1.65.024a1.429,1.429,0,0,1,.963.4.839.839,0,0,1-.037,1.288C2002.023,2165.406,2001.969,2165.445,2001.892,2165.508Zm-1.874,1.461c.47-.042.9-.05,1.318-.126a.428.428,0,0,0,.39-.526.479.479,0,0,0-.468-.418c-.353-.031-.708-.035-1.061-.031a.226.226,0,0,0-.169.148C2000.009,2166.306,2000.018,2166.6,2000.018,2166.969Zm.561-1.693a5.549,5.549,0,0,0,.645-.087.421.421,0,0,0,.327-.454.4.4,0,0,0-.34-.411,4.626,4.626,0,0,0-.751-.059c-.511,0-.441-.073-.444.437C2000.014,2165.252,2000.016,2165.252,2000.579,2165.276Z" transform="translate(-1955.845 -1623.791)" fill="#fff"/>
    <path id="Path_377" data-name="Path 377" d="M2548.033,2167.685v-2.891c0-.388,0-.388-.379-.39-.5,0-1,.009-1.5,0-.2-.006-.264.063-.262.261.008.922,0,1.844,0,2.766,0,.082-.009.164-.014.259H2545v-3.862a1.955,1.955,0,0,1,.214-.022c1.167,0,2.334,0,3.5,0,.141,0,.242.009.24.2-.005,1.184,0,2.368-.005,3.552a.992.992,0,0,1-.024.136Z" transform="translate(-2491.503 -1623.932)" fill="#fff"/>
    <path id="Path_378" data-name="Path 378" d="M2348.646,3082.508c.141-.005.244,0,.342-.017a.407.407,0,0,0,.325-.544c-.277-.588-.562-1.169-.845-1.755-.3.212-.634.017-.963.136v2.632h-.617V3080.3H2346v-.594h.5c.727,0,1.455.01,2.182-.005a.333.333,0,0,1,.37.251c.186.468.389.929.6,1.44.18-.5.351-.946.5-1.4.069-.213.168-.331.409-.286a2.016,2.016,0,0,0,.333,0,2.086,2.086,0,0,1-.063.21c-.32.769-.639,1.541-.967,2.307a3.677,3.677,0,0,1-.279.509.676.676,0,0,1-.777.285C2348.51,3082.951,2348.693,3082.705,2348.646,3082.508Z" transform="translate(-2296.201 -2522.803)" fill="#fff"/>
    <path id="Path_379" data-name="Path 379" d="M2203.4,3084.635V3081.4h.625v1.269c.377,0,.73.007,1.082-.01.041,0,.108-.134.11-.206.011-.346.006-.692.006-1.056h.621v3.235h-.621v-.888c0-.515,0-.515-.528-.515h-.653v1.4Z" transform="translate(-2156.251 -2524.478)" fill="#fff"/>
    <path id="Path_380" data-name="Path 380" d="M3783.2,3128.595h.57c0,.25-.011.494.007.734.005.072.09.19.147.2.121.013.275.08.335-.149a1.03,1.03,0,0,1,1.243-.841,1.093,1.093,0,0,1,.857,1.128,2.331,2.331,0,0,1-.04.527.931.931,0,0,1-.9.806,1.016,1.016,0,0,1-1.152-.769c-.036-.117-.058-.194-.205-.2-.209-.01-.319.033-.3.276.021.2,0,.405,0,.625h-.57Zm2.57,1.191c-.021-.158-.026-.293-.054-.426a.4.4,0,0,0-.413-.338c-.2,0-.388.076-.41.3a4.73,4.73,0,0,0,0,.872c.019.232.21.31.421.318a.372.372,0,0,0,.388-.3C3785.736,3130.065,3785.748,3129.912,3785.77,3129.786Z" transform="translate(-3706.689 -2570.72)" fill="#fff"/>
    <path id="Path_381" data-name="Path 381" d="M3377.5,3083.6h2.407v3.243h-.615v-2.656h-1.181v2.66h-.612Z" transform="translate(-3308.53 -2526.636)" fill="#fff"/>
    <path id="Path_382" data-name="Path 382" d="M3774.926,2859.949h-.454c-.006-.054-.011-.095-.013-.136-.017-.468-.017-.468-.476-.468-.3,0-.609.017-.912-.006-.248-.018-.316.084-.292.305.009.091,0,.184,0,.3-.1.005-.182.007-.263.017-.16.018-.234-.043-.224-.212.008-.193,0-.388,0-.584,0-.167-.058-.372.232-.373.045,0,.115-.1.128-.169q.126-.6.227-1.21a2.81,2.81,0,0,0,0-.418h1.8v1.782c.091.024.162.041.236.06Zm-1.472-2.422c-.082.429-.16.845-.241,1.273h.875v-1.273Z" transform="translate(-3695.985 -2304.248)" fill="#fff"/>
    <path id="Path_383" data-name="Path 383" d="M2719.658,3129.925c-.127.362-.269.721-.372,1.089-.06.214-.193.208-.361.212s-.256-.03-.307-.21c-.092-.331-.214-.655-.325-.98a.223.223,0,0,0-.112-.134v1.3h-.481v-2.329h.719c.169.505.342,1.015.54,1.6.165-.491.327-.9.44-1.322.067-.245.184-.326.422-.294a3.506,3.506,0,0,0,.413,0v2.344h-.5v-1.268C2719.707,3129.932,2719.683,3129.929,2719.658,3129.925Z" transform="translate(-2660.993 -2571.048)" fill="#fff"/>
    <path id="Path_384" data-name="Path 384" d="M3917.7,2857.942l.727-1.259c-.262-.115-.078-.682-.6-.674v-.377a.549.549,0,0,1,.775.372c.076.183.158.368.236.55l.089-.028v-.913h.613v.915c.024.007.048.017.075.024a1.314,1.314,0,0,0,.15-.2,3.312,3.312,0,0,0,.128-.33c.155-.407.287-.479.781-.417v.4c-.3-.043-.366.159-.438.379a1.627,1.627,0,0,1-.16.3c.24.417.466.813.727,1.266a4.515,4.515,0,0,1-.567-.008.272.272,0,0,1-.167-.151c-.085-.182-.143-.379-.23-.561a1.693,1.693,0,0,0-.206-.273l-.083.037v.937h-.613v-.944c-.021-.008-.04-.017-.06-.024a1.756,1.756,0,0,0-.169.193,2.092,2.092,0,0,0-.141.3C3918.354,2857.98,3918.356,2857.98,3917.7,2857.942Z" transform="translate(-3838.69 -2302.859)" fill="#fff"/>
    <path id="Path_385" data-name="Path 385" d="M2932.728,2857.876h-.563v-1.34l-.059-.022c-.108.172-.216.346-.322.521a2.96,2.96,0,0,0-.284.477c-.146.395-.435.434-.8.352v-2.315h.571v1.315l.063.017c.2-.319.392-.637.584-.958.268-.444.268-.444.81-.37Z" transform="translate(-2870.034 -2302.79)" fill="#fff"/>
    <path id="Path_386" data-name="Path 386" d="M3072.8,2855.7h.542V2857l.06.018a1.054,1.054,0,0,0,.11-.136,7.079,7.079,0,0,0,.491-.825c.169-.387.452-.422.818-.344v2.316h-.558v-1.414a1.987,1.987,0,0,0-.156.188,9.078,9.078,0,0,0-.519.868.584.584,0,0,1-.786.352C3072.8,2857.266,3072.8,2856.493,3072.8,2855.7Z" transform="translate(-3009.494 -2302.956)" fill="#fff"/>
    <path id="Path_387" data-name="Path 387" d="M3951.689,3134.3H3951c.217-.347.42-.67.632-1.011a.708.708,0,0,1-.428-.794.577.577,0,0,1,.565-.546c.472-.017.946,0,1.438,0v2.344h-.565v-.913c-.292-.105-.433.065-.554.251C3951.946,3133.847,3951.821,3134.077,3951.689,3134.3Zm.944-1.654c.046-.227-.03-.321-.277-.312-.4.016-.545.078-.552.3-.008.232.146.309.552.328C3952.6,3132.968,3952.679,3132.875,3952.633,3132.646Z" transform="translate(-3871.37 -2574.079)" fill="#fff"/>
    <path id="Path_388" data-name="Path 388" d="M3637.977,3134.742h-.566c-.008-.091-.022-.188-.024-.285,0-.447,0-.9,0-1.344,0-.166-.057-.223-.223-.219-.669.014-.544-.079-.559.538-.006.253,0,.508-.021.761-.037.489-.3.684-.781.6-.065-.011-.13-.031-.2-.05v-.422c.021-.013.034-.032.047-.032.342,0,.345,0,.351-.338.005-.421,0-.846.005-1.268,0-.091.01-.182.015-.28h1.959Z" transform="translate(-3561.833 -2574.53)" fill="#fff"/>
    <path id="Path_389" data-name="Path 389" d="M3522.17,3133.031c.124-.388.248-.777.369-1.166s.117-.375.507-.369c.058,0,.118.007.2.011-.019.074-.03.137-.05.2-.287.836-.576,1.671-.861,2.5a.807.807,0,0,1-.648.6c-.444.081-.566-.019-.538-.511.069,0,.142,0,.214,0a.417.417,0,0,0,.4-.589c-.228-.651-.46-1.3-.691-1.95-.027-.078-.052-.156-.078-.232.021-.011.028-.017.036-.017.57-.05.57-.05.741.491.107.343.219.686.329,1.029C3522.127,3133.028,3522.149,3133.03,3522.17,3133.031Z" transform="translate(-3449.364 -2573.633)" fill="#fff"/>
    <path id="Path_390" data-name="Path 390" d="M3510.226,2859.528h-.572v-1.816h-.781c0,.307.005.6,0,.894a3.911,3.911,0,0,1-.047.528.5.5,0,0,1-.513.459c-.44.028-.5-.043-.427-.483.377-.047.384-.049.39-.448.005-.481,0-.963,0-1.463h1.95Z" transform="translate(-3436.465 -2304.444)" fill="#fff"/>
    <path id="Path_391" data-name="Path 391" d="M2455.891,2858.842h-.591v-2.331h.591c0,.2.007.4,0,.595-.007.177.041.254.24.254.586,0,.586.008.59-.581,0-.067,0-.136.009-.2a.266.266,0,0,1,.032-.076h.552v2.336h-.58v-.961c-.259,0-.483-.011-.7.009-.05.006-.125.119-.128.188C2455.882,2858.323,2455.891,2858.574,2455.891,2858.842Z" transform="translate(-2403.47 -2303.757)" fill="#fff"/>
    <path id="Path_392" data-name="Path 392" d="M3382.057,2854.373a1.148,1.148,0,0,1-1.969.9,1.477,1.477,0,0,1-.128-1.632,1.146,1.146,0,0,1,2.1.734Zm-1.1-.765a.537.537,0,0,0-.508.406,2.07,2.07,0,0,0,.005.738.429.429,0,0,0,.425.331.459.459,0,0,0,.473-.273.9.9,0,0,0-.017-.894C3381.26,2853.785,3381.088,2853.709,3380.958,2853.607Z" transform="translate(-3310.762 -2300.45)" fill="#fff"/>
    <path id="Path_393" data-name="Path 393" d="M2989.4,3130h.587v2.33h-.587c0-.236-.008-.477,0-.719.007-.169-.04-.251-.226-.238s-.384,0-.605,0v.963H2988v-2.331h.565v.842c.257,0,.491.01.721-.009.045,0,.108-.115.114-.178C2989.414,3130.452,2989.4,3130.24,2989.4,3130Z" transform="translate(-2926.269 -2572.174)" fill="#fff"/>
    <path id="Path_394" data-name="Path 394" d="M3658.681,2854.73H3657.2c0,.389.21.6.517.547a.38.38,0,0,0,.176-.084c.071-.063.126-.2.19-.2a2.628,2.628,0,0,1,.515.08.982.982,0,0,1-1.171.693.972.972,0,0,1-.829-.866,2.746,2.746,0,0,1,.056-.9.987.987,0,0,1,1.892.016C3658.61,2854.229,3658.631,2854.453,3658.681,2854.73Zm-.645-.423c-.048-.374-.207-.545-.457-.521-.23.022-.372.221-.362.521Z" transform="translate(-3582.431 -2300.616)" fill="#fff"/>
    <path id="Path_395" data-name="Path 395" d="M2865.24,3127.959a1.02,1.02,0,0,1-1.664.457,1.487,1.487,0,0,1,.045-1.994.973.973,0,0,1,1.541.357,5.029,5.029,0,0,1,.175.825h-1.48c-.017.27.059.463.281.543a.359.359,0,0,0,.505-.2.163.163,0,0,1,.13-.08C2864.931,3127.891,2865.083,3127.927,2865.24,3127.959Zm-.545-.763c-.045-.363-.217-.545-.463-.519s-.371.216-.349.519Z" transform="translate(-2803.803 -2568.427)" fill="#fff"/>
    <path id="Path_396" data-name="Path 396" d="M2196.186,2854.5a.9.9,0,0,1-.92.7.934.934,0,0,1-1.028-.682,1.41,1.41,0,0,1,.288-1.528.97.97,0,0,1,1.58.364,5.477,5.477,0,0,1,.158.787h-1.453a.432.432,0,0,0,.266.548.365.365,0,0,0,.5-.176.225.225,0,0,1,.171-.1A4.337,4.337,0,0,1,2196.186,2854.5Zm-1.375-.766h.79c.018-.32-.149-.528-.411-.518S2194.786,2853.425,2194.811,2853.735Z" transform="translate(-2147.163 -2300.046)" fill="#fff"/>
    <path id="Path_397" data-name="Path 397" d="M2792.914,2859.427v-.961c-.255,0-.481-.01-.706.007-.047,0-.119.108-.123.169-.013.253-.006.505-.006.781h-.58V2857.1h.58c0,.207.006.414,0,.623-.006.156.043.236.216.226.191-.011.385,0,.606,0v-.842h.595v2.325C2793.306,2859.427,2793.126,2859.427,2792.914,2859.427Z" transform="translate(-2733.421 -2304.346)" fill="#fff"/>
    <path id="Path_398" data-name="Path 398" d="M2065.3,3081.963h-.9v-.563h2.4v.565h-.855v2.671h-.636C2065.3,3083.755,2065.3,3082.879,2065.3,3081.963Z" transform="translate(-2019.835 -2524.478)" fill="#fff"/>
    <path id="Path_399" data-name="Path 399" d="M2313.6,2857.16c.25-.381.461-.723.694-1.052a.25.25,0,0,0,0-.335c-.215-.308-.42-.626-.628-.937.571-.2.883.082,1.083.656.221-.536.489-.868,1.069-.654-.18.271-.354.567-.56.834a.342.342,0,0,0,0,.485c.225.305.422.63.632.95-.641.26-.888-.172-1.124-.678a3.586,3.586,0,0,0-.268.417.467.467,0,0,1-.554.315A2.589,2.589,0,0,0,2313.6,2857.16Z" transform="translate(-2264.404 -2302.063)" fill="#fff"/>
    <path id="Path_400" data-name="Path 400" d="M3276.832,2855.9v.4c-.522-.032-.335.551-.605.674.243.415.479.816.738,1.259h-.649c-.231-.3-.212-.764-.63-1.021v1.018h-.586v-2.33h.562v.9l.063.038a.942.942,0,0,0,.19-.184,1.756,1.756,0,0,0,.121-.3C3276.206,2855.916,3276.327,2855.843,3276.832,2855.9Z" transform="translate(-3208.033 -2303.155)" fill="#fff"/>
    <path id="Path_401" data-name="Path 401" d="M2657.184,2856.7h.578v2.331h-.571v-.887c-.184.023-.33.047-.477.054a.775.775,0,0,1-.9-.812c-.011-.219,0-.439,0-.677h.6c0,.209,0,.424,0,.639a.434.434,0,0,0,.671.364.319.319,0,0,0,.1-.23C2657.19,2857.229,2657.184,2856.977,2657.184,2856.7Z" transform="translate(-2600.248 -2303.954)" fill="#fff"/>
    <path id="Path_402" data-name="Path 402" d="M3239.5,3083.6h.591v3.251h-.591Z" transform="translate(-3173.095 -2526.636)" fill="#fff"/>
    <path id="Path_403" data-name="Path 403" d="M2596.5,2856.7h.565v2.334h-.565Z" transform="translate(-2542.046 -2303.954)" fill="#fff"/>
    <path id="Path_404" data-name="Path 404" d="M2666.356,3130.2v2.327h-.556V3130.2Z" transform="translate(-2610.058 -2572.37)" fill="#fff"/>
    <path id="Path_405" data-name="Path 405" d="M3114.561,3132.83H3114V3130.5h.561Z" transform="translate(-3049.927 -2572.665)" fill="#fff"/>
    <path id="Path_406" data-name="Path 406" d="M3297.271,3226v.6h-.57v-.6Z" transform="translate(-3229.232 -2666.39)" fill="#fff"/>
    <path id="Path_407" data-name="Path 407" d="M2665.4,3081.852v-.552h.562v.552Z" transform="translate(-2609.665 -2524.379)" fill="#fff"/>
    <path id="Path_408" data-name="Path 408" d="M3114.4,3080.8h.554v.566h-.554Z" transform="translate(-3050.32 -2523.889)" fill="#fff"/>
  </g>
</svg>
