<svg xmlns="http://www.w3.org/2000/svg" xmlns:xlink="http://www.w3.org/1999/xlink" width="75.008" height="75.008" viewBox="0 0 75.008 75.008">
  <defs>
    <filter id="Path_903" x="0" y="0" width="75.008" height="75.008" filterUnits="userSpaceOnUse">
      <feOffset input="SourceAlpha"/>
      <feGaussianBlur stdDeviation="6" result="blur"/>
      <feFlood flood-color="#e8d1b7" flood-opacity="0.451"/>
      <feComposite operator="in" in2="blur"/>
      <feComposite in="SourceGraphic"/>
    </filter>
  </defs>
  <g id="mobile-app" transform="translate(17 17)">
    <g transform="matrix(1, 0, 0, 1, -17, -17)" filter="url(#Path_903)">
      <path id="Path_903-2" data-name="Path 903" d="M40.008,21.133a8.82,8.82,0,0,0-6.921-8.6V4.146A3.149,3.149,0,0,0,29.942,1H13.583a3.149,3.149,0,0,0-3.146,3.146v6.921H6.8l-.379,1.52-1.343-.806L1.713,15.144l.806,1.344L1,16.867v4.758L2.52,22l-.807,1.344,3.364,3.364,1.343-.806.38,1.519h3.637v9.437a3.149,3.149,0,0,0,3.146,3.146H29.942a3.149,3.149,0,0,0,3.146-3.146v-7.13a8.82,8.82,0,0,0,6.921-8.6Zm-1.258,0a7.494,7.494,0,0,1-.821,3.406,3.139,3.139,0,0,0-2.191-1.976L33.087,21.9v-.15a3.149,3.149,0,0,0,1.258-2.5V17.988a3.146,3.146,0,0,0-3.425-3.134,3.236,3.236,0,0,0-2.866,3.263v1.128a3.149,3.149,0,0,0,1.258,2.5v.15l-2.651.663a3.139,3.139,0,0,0-2.191,1.976A7.546,7.546,0,1,1,38.75,21.133Zm-9.437-8.6a8.736,8.736,0,0,0-1.258.382V11.067H15.471v8.808h7.021a8.723,8.723,0,0,0,6.82,9.858V31.2h-15.1V9.808h15.1Zm-6.55,6.083H16.729V12.325H26.8v1.192A8.839,8.839,0,0,0,22.763,18.617ZM13.583,2.258H29.942a1.89,1.89,0,0,1,1.887,1.887V6.033H11.7V4.146A1.89,1.89,0,0,1,13.583,2.258ZM10.437,22.122a3.146,3.146,0,1,1,0-5.753ZM7.783,26.167,7.477,24.94,7.349,24.6l-.719-.292-1.358.815L3.3,23.152l.815-1.358L3.8,21.026l-1.541-.384V17.85L3.8,17.465l.316-.768L3.3,15.339l1.974-1.975,1.358.815.768-.312.385-1.543h2.654v2.709a4.4,4.4,0,1,0,0,8.425v2.709ZM29.942,38.75H13.583A1.89,1.89,0,0,1,11.7,36.862V34.975H31.829v1.887A1.89,1.89,0,0,1,29.942,38.75Zm1.887-5.033H11.7V7.292H31.829v5.065c-.209-.015-.417-.032-.629-.032s-.42.017-.629.032V8.55H12.954V32.458H30.571V29.91c.209.015.417.032.629.032s.42-.017.629-.032ZM31.2,28.683a7.529,7.529,0,0,1-5.662-2.573v-.5a1.886,1.886,0,0,1,1.429-1.832l3.6-.9V21.052l-.313-.182a1.867,1.867,0,0,1-.946-1.624V18.118a1.972,1.972,0,0,1,1.717-2.01,1.887,1.887,0,0,1,2.058,1.88v1.258a1.867,1.867,0,0,1-.946,1.624l-.313.182v1.832l3.6.9a1.886,1.886,0,0,1,1.429,1.832v.5A7.529,7.529,0,0,1,31.2,28.683Z" transform="translate(17 17)" fill="#e8d1b7"/>
    </g>
    <path id="Path_904" data-name="Path 904" d="M38,5h1.258V6.258H38Z" transform="translate(-13.721 -1.483)" fill="#e8d1b7"/>
    <path id="Path_905" data-name="Path 905" d="M28,5h5.033V6.258H28Z" transform="translate(-10.013 -1.483)" fill="#e8d1b7"/>
    <path id="Path_906" data-name="Path 906" d="M30,57h5.033v1.258H30Z" transform="translate(-10.754 -20.767)" fill="#e8d1b7"/>
    <path id="Path_907" data-name="Path 907" d="M44,57h1.258v1.258H44Z" transform="translate(-15.946 -20.767)" fill="#e8d1b7"/>
    <path id="Path_908" data-name="Path 908" d="M22,57h1.258v1.258H22Z" transform="translate(-7.788 -20.767)" fill="#e8d1b7"/>
    <path id="Path_909" data-name="Path 909" d="M24,33h5.662v1.258H24Z" transform="translate(-8.529 -11.867)" fill="#e8d1b7"/>
    <path id="Path_910" data-name="Path 910" d="M24,37h5.662v1.258H24Z" transform="translate(-8.529 -13.35)" fill="#e8d1b7"/>
    <path id="Path_911" data-name="Path 911" d="M24,41h5.662v1.258H24Z" transform="translate(-8.529 -14.833)" fill="#e8d1b7"/>
    <path id="Path_912" data-name="Path 912" d="M24,45h5.662v1.258H24Z" transform="translate(-8.529 -16.317)" fill="#e8d1b7"/>
    <path id="Path_913" data-name="Path 913" d="M55.888,13.808a1.883,1.883,0,0,0,.629-3.659V5H55.258v5.149a1.883,1.883,0,0,0,.629,3.659Zm0-2.517a.629.629,0,1,1-.629.629A.63.63,0,0,1,55.888,11.292Z" transform="translate(-19.654 -1.483)" fill="#e8d1b7"/>
    <path id="Path_914" data-name="Path 914" d="M56,1h1.258V2.258H56Z" transform="translate(-20.396)" fill="#e8d1b7"/>
    <path id="Path_915" data-name="Path 915" d="M9.887,45a1.883,1.883,0,0,0-.629,3.659v5.149h1.258V48.659A1.883,1.883,0,0,0,9.887,45Zm0,2.517a.629.629,0,1,1,.629-.629A.63.63,0,0,1,9.887,47.517Z" transform="translate(-2.596 -16.317)" fill="#e8d1b7"/>
    <path id="Path_916" data-name="Path 916" d="M10,61h1.258v1.258H10Z" transform="translate(-3.338 -22.25)" fill="#e8d1b7"/>
  </g>
</svg>
