<svg xmlns="http://www.w3.org/2000/svg" xmlns:xlink="http://www.w3.org/1999/xlink" width="71.722" height="66.301" viewBox="0 0 71.722 66.301">
  <defs>
    <filter id="Path_1004" x="0" y="0" width="71.722" height="66.301" filterUnits="userSpaceOnUse">
      <feOffset input="SourceAlpha"/>
      <feGaussianBlur stdDeviation="6" result="blur"/>
      <feFlood flood-color="#e8d1b7" flood-opacity="0.659"/>
      <feComposite operator="in" in2="blur"/>
      <feComposite in="SourceGraphic"/>
    </filter>
  </defs>
  <g id="animation" transform="translate(17.999 18)">
    <g transform="matrix(1, 0, 0, 1, -18, -18)" filter="url(#Path_1004)">
      <path id="Path_1004-2" data-name="Path 1004" d="M34.154,0H1.57A1.569,1.569,0,0,0,0,1.569v21.72A1.569,1.569,0,0,0,1.57,24.858H14.006V27.6H12.525a1.35,1.35,0,0,0,0,2.7H23.2a1.35,1.35,0,1,0,0-2.7H21.718V24.858H34.154a1.569,1.569,0,0,0,1.569-1.569V1.569A1.569,1.569,0,0,0,34.154,0ZM23.5,28.951a.3.3,0,0,1-.3.3H12.525a.3.3,0,1,1,0-.609H23.2a.3.3,0,0,1,.3.3Zm11.174-5.662a.524.524,0,0,1-.523.523h-16.4a.523.523,0,1,0,0,1.046h2.914V27.6H15.052V24.858h.264a.523.523,0,1,0,0-1.046H1.57a.524.524,0,0,1-.523-.523V1.569a.524.524,0,0,1,.523-.523H34.154a.524.524,0,0,1,.523.523Zm0,0" transform="translate(18 18)" fill="#e8d1b7"/>
    </g>
    <path id="Path_1005" data-name="Path 1005" d="M61.185,33.769H31.476a.873.873,0,0,0-.872.872V52.133a.873.873,0,0,0,.872.872H61.185a.873.873,0,0,0,.872-.872V34.641A.873.873,0,0,0,61.185,33.769ZM35.439,34.815v5.823H33.6a.523.523,0,1,0,0,1.046h1.836v2.927a.175.175,0,0,1-.174.174H31.651V34.816ZM31.651,51.959V45.832h3.614a1.222,1.222,0,0,0,1.22-1.22v-9.8H61.01v9.941H57.117a.175.175,0,0,1-.174-.174V36.7a.523.523,0,1,0-1.046,0v7.88a1.222,1.222,0,0,0,1.22,1.22H61.01v6.156Zm0,0" transform="translate(-28.469 -31.413)" fill="#e8d1b7"/>
    <path id="Path_1006" data-name="Path 1006" d="M82.9,240.73H78.663a1.8,1.8,0,0,0-3.445,0H62.336a1.8,1.8,0,0,0-3.445,0H55.664a.523.523,0,0,0,0,1.046h3.227a1.8,1.8,0,0,0,3.445,0H75.218a1.8,1.8,0,0,0,3.445,0h4.232a.523.523,0,0,0,0-1.046Zm-22.282,1.277a.754.754,0,1,1,.754-.754A.755.755,0,0,1,60.613,242.008Zm16.327,0a.754.754,0,1,1,.754-.754A.755.755,0,0,1,76.941,242.008Zm0,0" transform="translate(-51.293 -222.747)" fill="#e8d1b7"/>
    <path id="Path_1007" data-name="Path 1007" d="M82.9,204H67.641a1.8,1.8,0,0,0-3.445,0H55.664a.523.523,0,0,0,0,1.046H64.2a1.8,1.8,0,0,0,3.445,0H82.895a.523.523,0,0,0,0-1.046Zm-16.976,1.277a.755.755,0,0,1-.754-.753h0a.754.754,0,1,1,.754.755Zm0,0" transform="translate(-51.293 -188.582)" fill="#e8d1b7"/>
    <path id="Path_1008" data-name="Path 1008" d="M206.743,67.592a1.208,1.208,0,0,0,1.22,0l6.383-3.685a1.22,1.22,0,0,0,0-2.114l-6.383-3.685a1.22,1.22,0,0,0-1.831,1.057v7.371a1.208,1.208,0,0,0,.61,1.057Zm.436-8.427a.169.169,0,0,1,.087-.151.177.177,0,0,1,.088-.024.171.171,0,0,1,.087.024l6.383,3.685a.175.175,0,0,1,0,.3l-6.383,3.685a.174.174,0,0,1-.261-.151Zm0,0" transform="translate(-191.75 -53.9)" fill="#e8d1b7"/>
  </g>
</svg>
