<svg xmlns="http://www.w3.org/2000/svg" width="48" height="48" viewBox="0 0 48 48">
  <g id="Group_46" data-name="Group 46" transform="translate(-14 -14)" opacity="0.7">
    <path id="Union_1" data-name="Union 1" d="M0,24A24,24,0,1,1,24,48,24,24,0,0,1,0,24ZM17.681,8.784A16.355,16.355,0,1,0,24.023,7.5a16.355,16.355,0,0,0-6.342,1.284Zm8.94,22.026a3.415,3.415,0,0,1-1.113-1.333,6.622,6.622,0,0,1-.62-2.208,30.357,30.357,0,0,1-.161-3.525,17.559,17.559,0,0,1,.713-5.854,2.4,2.4,0,0,1,2.246-1.85,2.117,2.117,0,0,1,1.582.8v-.557h1.777v4.775H29.268q0-3.075-1.182-3.076a.717.717,0,0,0-.67.406A4.533,4.533,0,0,0,27.1,19.95q-.1,1.157-.1,3.53,0,2.588.088,3.78a4.647,4.647,0,0,0,.312,1.615.743.743,0,0,0,.7.425q.694,0,.9-.913a13.377,13.377,0,0,0,.2-2.71h-1V23.9h3.163v1.338a9.228,9.228,0,0,1-.874,4.428,2.693,2.693,0,0,1-2.446,1.578,2.526,2.526,0,0,1-1.422-.434Zm-6.68.19V29.223h.937L18.76,23.4l2.04-5.34h-.9V16.283h3.7V18.06h-.947L20.74,23.027l2.26,6.2h.968V31Zm-4.482,0V29.223H16.5V18.06H15.459V16.283h3.965V18.06h-.84V29.223h.84V31Z" transform="translate(14 14)" fill="#fff"/>
  </g>
</svg>
