<svg xmlns="http://www.w3.org/2000/svg" xmlns:xlink="http://www.w3.org/1999/xlink" width="65.666" height="73.606" viewBox="0 0 65.666 73.606">
  <defs>
    <filter id="Path_932" x="0" y="0" width="65.666" height="73.606" filterUnits="userSpaceOnUse">
      <feOffset input="SourceAlpha"/>
      <feGaussianBlur stdDeviation="6" result="blur"/>
      <feFlood flood-color="#e8d1b7" flood-opacity="0.529"/>
      <feComposite operator="in" in2="blur"/>
      <feComposite in="SourceGraphic"/>
    </filter>
  </defs>
  <g id="rocket" transform="translate(-68 18)">
    <g id="Group_375" data-name="Group 375" transform="translate(95.074 13.264)">
      <g id="Group_374" data-name="Group 374" transform="translate(0)">
        <path id="Path_930" data-name="Path 930" d="M199.831,153.7a5.759,5.759,0,1,0,1.687,4.072A5.721,5.721,0,0,0,199.831,153.7Zm-8.086,4.072a4.014,4.014,0,0,1,6.167-3.387l-5.541,5.541A3.986,3.986,0,0,1,191.745,157.773Zm6.852,2.838a4.02,4.02,0,0,1-4.991.549l5.54-5.54a4.014,4.014,0,0,1-.549,4.991Z" transform="translate(-190 -152.014)" fill="#e8d1b7"/>
      </g>
    </g>
    <g id="Group_377" data-name="Group 377" transform="translate(113.921 31.149)">
      <g id="Group_376" data-name="Group 376">
        <path id="Path_931" data-name="Path 931" d="M407.489,357.256a.872.872,0,1,0,.256.617A.879.879,0,0,0,407.489,357.256Z" transform="translate(-406 -357)" fill="#e8d1b7"/>
      </g>
    </g>
    <g id="Group_379" data-name="Group 379" transform="translate(86 0)">
      <g id="Group_378" data-name="Group 378" transform="translate(0)">
        <g transform="matrix(1, 0, 0, 1, -18, -18)" filter="url(#Path_932)">
          <path id="Path_932-2" data-name="Path 932" d="M114.793,29.114a.873.873,0,0,0,.873-.873v-.324a5.87,5.87,0,0,0-3.516-5.377l-1.679-.735c.088-.91.137-1.871.137-2.881a23.462,23.462,0,0,0-4.623-14.078,21.14,21.14,0,0,0-4.666-4.7.872.872,0,0,0-.971,0,21.14,21.14,0,0,0-4.666,4.7,23.461,23.461,0,0,0-4.623,14.078c0,1.01.049,1.971.137,2.881l-1.679.735A5.87,5.87,0,0,0,86,27.917v8.817a.873.873,0,0,0,1.254.785l8.116-3.946a11.39,11.39,0,0,0,1.109,1.341.873.873,0,0,0,.611.25H99.96v1.571a.873.873,0,1,0,1.745,0V35.163h2.87a.872.872,0,0,0,.611-.25,11.37,11.37,0,0,0,1.109-1.341l8.116,3.946a.873.873,0,0,0,1.254-.785V35.4a.873.873,0,0,0-1.743-.056l-6.664-3.24c.221-.374.449-.785.676-1.235a24.934,24.934,0,0,0,2.3-7.257l1.211.53a4.125,4.125,0,0,1,2.471,3.779v.324A.873.873,0,0,0,114.793,29.114ZM97.041,5.94a21.2,21.2,0,0,1,3.793-3.98,21.057,21.057,0,0,1,3.749,3.924,21.868,21.868,0,0,1,1.738,2.754H95.334A22.321,22.321,0,0,1,97.041,5.94Zm-9.3,29.4V27.917a4.125,4.125,0,0,1,2.471-3.779l1.211-.53a24.934,24.934,0,0,0,2.3,7.257c.227.45.454.86.676,1.235ZM106.415,30a16.5,16.5,0,0,1-2.222,3.416h-2.488V29.87a.873.873,0,1,0-1.745,0v3.548H97.472c-.968-1.109-4.669-5.91-4.669-14.5a21.682,21.682,0,0,1,1.695-8.54h12.654a21.788,21.788,0,0,1,1.711,8.54A24.7,24.7,0,0,1,106.415,30Z" transform="translate(-68 18)" fill="#e8d1b7"/>
        </g>
      </g>
    </g>
    <g id="Group_381" data-name="Group 381" transform="translate(87.526 37.527)">
      <g id="Group_380" data-name="Group 380" transform="translate(0)">
        <path id="Path_933" data-name="Path 933" d="M125.75,432a4.354,4.354,0,0,0-1.228.177,4.683,4.683,0,0,0-7.716-.107,4.683,4.683,0,0,0-7.716.107,4.366,4.366,0,0,0-5.6,4.191.873.873,0,1,0,1.745,0,2.623,2.623,0,0,1,5.246,0,.873.873,0,0,0,1.745,0A4.361,4.361,0,0,0,110.645,433a2.94,2.94,0,0,1,5.283,1.775.873.873,0,0,0,.873.872h.012a.873.873,0,0,0,.873-.872A2.94,2.94,0,0,1,122.968,433a4.361,4.361,0,0,0-1.586,3.365.873.873,0,1,0,1.745,0,2.623,2.623,0,0,1,5.246,0,.873.873,0,0,0,1.745,0A4.373,4.373,0,0,0,125.75,432Z" transform="translate(-103.494 -430.089)" fill="#e8d1b7"/>
      </g>
    </g>
    <g id="Group_383" data-name="Group 383" transform="translate(99.96 26.205)">
      <g id="Group_382" data-name="Group 382" transform="translate(0)">
        <path id="Path_934" data-name="Path 934" d="M247.489,300.587a.872.872,0,1,0,.256.617A.879.879,0,0,0,247.489,300.587Z" transform="translate(-246 -300.331)" fill="#e8d1b7"/>
      </g>
    </g>
  </g>
</svg>
