<svg xmlns="http://www.w3.org/2000/svg" xmlns:xlink="http://www.w3.org/1999/xlink" width="78.997" height="78.997" viewBox="0 0 78.997 78.997">
  <defs>
    <filter id="Union_9" x="0" y="0" width="78.997" height="78.997" filterUnits="userSpaceOnUse">
      <feOffset input="SourceAlpha"/>
      <feGaussianBlur stdDeviation="6" result="blur"/>
      <feFlood flood-color="#e8d1b7" flood-opacity="0.451"/>
      <feComposite operator="in" in2="blur"/>
      <feComposite in="SourceGraphic"/>
    </filter>
  </defs>
  <g id="relational" transform="translate(2 2)">
    <g transform="matrix(1, 0, 0, 1, -2, -2)" filter="url(#Union_9)">
      <path id="Union_9-2" data-name="Union 9" d="M-4622.67-815.5a2.87,2.87,0,0,1-2.867-2.867V-828.4a2.87,2.87,0,0,1,2.867-2.867h4.3a2.869,2.869,0,0,1,2.867,2.867v10.032a2.869,2.869,0,0,1-2.867,2.867Zm-1.434-2.867a1.435,1.435,0,0,0,1.434,1.433h4.3a1.436,1.436,0,0,0,1.435-1.433V-824.1h-7.167Zm0-10.032v2.867h7.167V-828.4a1.436,1.436,0,0,0-1.435-1.433h-4.3A1.435,1.435,0,0,0-4624.1-828.4Zm-6.449,2.15a3.588,3.588,0,0,1-3.583-3.583V-832.7h1.434v2.867a2.152,2.152,0,0,0,2.15,2.15h4.3v1.433Zm7.882-7.167a2.869,2.869,0,0,1-2.867-2.867v-10.032a2.871,2.871,0,0,1,2.867-2.867h4.3a2.87,2.87,0,0,1,2.867,2.867v10.032a2.868,2.868,0,0,1-2.867,2.867Zm-1.434-2.867a1.435,1.435,0,0,0,1.434,1.433h4.3a1.436,1.436,0,0,0,1.435-1.433v-5.732h-7.167Zm0-10.032v2.867h7.167v-2.867a1.436,1.436,0,0,0-1.435-1.433h-4.3A1.435,1.435,0,0,0-4624.1-846.319Zm-11.465,12.9a2.87,2.87,0,0,1-2.867-2.867v-10.032a2.871,2.871,0,0,1,2.867-2.867h4.3a2.871,2.871,0,0,1,2.867,2.867v10.032a2.87,2.87,0,0,1-2.867,2.867Zm-1.434-2.867a1.435,1.435,0,0,0,1.434,1.433h4.3a1.435,1.435,0,0,0,1.434-1.433v-5.732H-4637Zm0-10.032v2.867h7.167v-2.867a1.435,1.435,0,0,0-1.434-1.433h-4.3A1.435,1.435,0,0,0-4637-846.319Zm-18.632,6.45a2.871,2.871,0,0,1-2.867-2.867v-12.9a2.87,2.87,0,0,1,2.867-2.867h7.167a2.868,2.868,0,0,1,2.866,2.867v12.9a2.87,2.87,0,0,1-2.866,2.867Zm-1.434-2.867a1.435,1.435,0,0,0,1.434,1.433h7.167a1.436,1.436,0,0,0,1.434-1.433v-8.6h-10.034Zm0-12.9v2.867h10.034v-2.867a1.436,1.436,0,0,0-1.434-1.433h-7.167A1.435,1.435,0,0,0-4657.069-855.635Zm17.2,13.616a2.872,2.872,0,0,1-2.867-2.867,1.434,1.434,0,0,0-1.432-1.433h-.718v-1.433h.718a2.871,2.871,0,0,1,2.866,2.867,1.435,1.435,0,0,0,1.433,1.433h.717v1.433Z" transform="translate(4676.5 876.5)" fill="#e8d1b7"/>
    </g>
    <path id="Path_964" data-name="Path 964" d="M48,48h2.866v1.433H48Z" transform="translate(-29.134 -29.134)" fill="#e8d1b7"/>
    <path id="Path_965" data-name="Path 965" d="M96,48h2.866v1.433H96Z" transform="translate(-72.834 -29.134)" fill="#e8d1b7"/>
    <path id="Path_966" data-name="Path 966" d="M48,112h2.866v1.433H48Z" transform="translate(-29.134 -87.401)" fill="#e8d1b7"/>
    <path id="Path_967" data-name="Path 967" d="M96,112h2.866v1.433H96Z" transform="translate(-72.834 -87.401)" fill="#e8d1b7"/>
    <path id="Path_968" data-name="Path 968" d="M48,144h2.866v1.433H48Z" transform="translate(-29.134 -116.534)" fill="#e8d1b7"/>
    <path id="Path_969" data-name="Path 969" d="M96,144h1.433v1.433H96Z" transform="translate(-72.834 -116.534)" fill="#e8d1b7"/>
    <path id="Path_970" data-name="Path 970" d="M48,176h2.866v1.433H48Z" transform="translate(-29.134 -145.668)" fill="#e8d1b7"/>
    <path id="Path_971" data-name="Path 971" d="M96,176h2.866v1.433H96Z" transform="translate(-72.834 -145.668)" fill="#e8d1b7"/>
    <path id="Path_974" data-name="Path 974" d="M272,152h2.866v1.433H272Z" transform="translate(-233.068 -123.817)" fill="#e8d1b7"/>
    <path id="Path_975" data-name="Path 975" d="M272,216h2.866v1.433H272Z" transform="translate(-233.068 -182.085)" fill="#e8d1b7"/>
    <path id="Path_976" data-name="Path 976" d="M272,248h2.866v1.433H272Z" transform="translate(-233.068 -211.218)" fill="#e8d1b7"/>
    <path id="Path_978" data-name="Path 978" d="M416,152h2.866v1.433H416Z" transform="translate(-364.169 -123.817)" fill="#e8d1b7"/>
    <path id="Path_979" data-name="Path 979" d="M416,216h2.866v1.433H416Z" transform="translate(-364.169 -182.085)" fill="#e8d1b7"/>
    <path id="Path_980" data-name="Path 980" d="M416,248h2.866v1.433H416Z" transform="translate(-364.169 -211.218)" fill="#e8d1b7"/>
    <path id="Path_982" data-name="Path 982" d="M416,352h2.866v1.433H416Z" transform="translate(-364.169 -305.902)" fill="#e8d1b7"/>
    <path id="Path_983" data-name="Path 983" d="M416,416h2.866v1.433H416Z" transform="translate(-364.169 -364.169)" fill="#e8d1b7"/>
    <path id="Path_984" data-name="Path 984" d="M416,448h2.866v1.433H416Z" transform="translate(-364.169 -393.303)" fill="#e8d1b7"/>
    <path id="Path_985" data-name="Path 985" d="M360,192h1.433v1.433H360Z" transform="translate(-313.185 -160.234)" fill="#e8d1b7"/>
  </g>
</svg>
