<svg id="Server" xmlns="http://www.w3.org/2000/svg" width="39.89" height="39.89" viewBox="0 0 39.89 39.89">
  <path id="Path_872" data-name="Path 872" d="M20.094,9.014H7.628a.615.615,0,0,0,0,1.23H20.094a.615.615,0,0,0,0-1.23Z" transform="translate(-2.642 -3.396)" fill="#181e27"/>
  <circle id="Ellipse_43" data-name="Ellipse 43" cx="2" cy="2" r="2" transform="translate(30.945 3.945)" fill="#181e27"/>
  <path id="Path_873" data-name="Path 873" d="M37.4,0H2.493A2.493,2.493,0,0,0,0,2.493V9.972a2.493,2.493,0,0,0,2.493,2.493H37.4A2.493,2.493,0,0,0,39.89,9.972V2.493A2.493,2.493,0,0,0,37.4,0Zm1.247,9.972A1.248,1.248,0,0,1,37.4,11.219H2.493A1.248,1.248,0,0,1,1.247,9.972V2.493A1.248,1.248,0,0,1,2.493,1.247H37.4a1.248,1.248,0,0,1,1.247,1.247Z" transform="translate(0)" fill="#181e27"/>
  <path id="Path_874" data-name="Path 874" d="M20.094,31.014H7.628a.615.615,0,0,0,0,1.23H20.094a.615.615,0,0,0,0-1.23Z" transform="translate(-2.642 -11.684)" fill="#181e27"/>
  <circle id="Ellipse_44" data-name="Ellipse 44" cx="2" cy="2" r="2" transform="translate(30.945 17.945)" fill="#181e27"/>
  <path id="Path_875" data-name="Path 875" d="M37.4,22H2.493A2.493,2.493,0,0,0,0,24.493v7.479a2.493,2.493,0,0,0,2.493,2.493H37.4a2.493,2.493,0,0,0,2.493-2.493V24.493A2.493,2.493,0,0,0,37.4,22Zm1.247,9.972A1.248,1.248,0,0,1,37.4,33.219H2.493a1.248,1.248,0,0,1-1.247-1.247V24.493a1.248,1.248,0,0,1,1.247-1.247H37.4a1.248,1.248,0,0,1,1.247,1.247Z" transform="translate(0 -8.288)" fill="#181e27"/>
  <path id="Path_876" data-name="Path 876" d="M20.094,53.014H7.628a.615.615,0,0,0,0,1.23H20.094a.615.615,0,0,0,0-1.23Z" transform="translate(-2.642 -19.972)" fill="#181e27"/>
  <circle id="Ellipse_45" data-name="Ellipse 45" cx="2" cy="2" r="2" transform="translate(30.945 31.945)" fill="#181e27"/>
  <path id="Path_877" data-name="Path 877" d="M37.4,44H2.493A2.493,2.493,0,0,0,0,46.493v7.479a2.493,2.493,0,0,0,2.493,2.493H37.4a2.493,2.493,0,0,0,2.493-2.493V46.493A2.493,2.493,0,0,0,37.4,44Zm1.247,9.972A1.248,1.248,0,0,1,37.4,55.219H2.493a1.248,1.248,0,0,1-1.247-1.247V46.493a1.248,1.248,0,0,1,1.247-1.247H37.4a1.248,1.248,0,0,1,1.247,1.247Z" transform="translate(0 -16.576)" fill="#181e27"/>
</svg>
