<svg xmlns="http://www.w3.org/2000/svg" xmlns:xlink="http://www.w3.org/1999/xlink" width="400.492" height="389.19" viewBox="0 0 400.492 389.19">
  <defs>
    <linearGradient id="linear-gradient" x1="1.137" y1="1.112" x2="0.365" y2="0.402" gradientUnits="objectBoundingBox">
      <stop offset="0" stop-color="#dae3fe"/>
      <stop offset="1" stop-color="#e9effd"/>
    </linearGradient>
    <linearGradient id="linear-gradient-2" x1="0" y1="0.5" x2="1" y2="0.5" xlink:href="#linear-gradient"/>
    <linearGradient id="linear-gradient-3" x1="-0.597" y1="0.932" x2="-0.374" y2="-0.163" gradientUnits="objectBoundingBox">
      <stop offset="0" stop-color="#09005d"/>
      <stop offset="1" stop-color="#1a0f91"/>
    </linearGradient>
    <linearGradient id="linear-gradient-4" x1="-0.015" y1="0.97" x2="1.022" y2="0.027" gradientUnits="objectBoundingBox">
      <stop offset="0" stop-color="#ff928e"/>
      <stop offset="1" stop-color="#fe7062"/>
    </linearGradient>
    <linearGradient id="linear-gradient-5" x1="-0.013" y1="-1.659" x2="-0.905" y2="3.409" xlink:href="#linear-gradient-3"/>
    <linearGradient id="linear-gradient-6" x1="1.45" y1="-0.48" x2="3.545" y2="-2.705" gradientUnits="objectBoundingBox">
      <stop offset="0" stop-color="#4f52ff"/>
      <stop offset="1" stop-color="#4042e2"/>
    </linearGradient>
    <linearGradient id="linear-gradient-7" x1="-30.054" y1="0.499" x2="-29.054" y2="0.499" xlink:href="#linear-gradient-6"/>
    <linearGradient id="linear-gradient-8" x1="-30.948" y1="0.5" x2="-29.948" y2="0.5" xlink:href="#linear-gradient-3"/>
    <linearGradient id="linear-gradient-9" x1="1.469" y1="-0.169" x2="7.998" y2="-4.236" gradientUnits="objectBoundingBox">
      <stop offset="0" stop-color="#febbba"/>
      <stop offset="1" stop-color="#ff928e"/>
    </linearGradient>
    <linearGradient id="linear-gradient-10" x1="-90.434" y1="0.499" x2="-89.434" y2="0.499" xlink:href="#linear-gradient-6"/>
    <linearGradient id="linear-gradient-11" x1="-61.278" y1="0.5" x2="-60.278" y2="0.5" xlink:href="#linear-gradient-3"/>
    <linearGradient id="linear-gradient-12" x1="0.936" y1="0.228" x2="5.844" y2="-2.821" xlink:href="#linear-gradient-9"/>
    <linearGradient id="linear-gradient-13" x1="1.675" y1="-0.919" x2="0.702" y2="0.261" xlink:href="#linear-gradient-6"/>
    <linearGradient id="linear-gradient-14" x1="-12.459" y1="-0.062" x2="-16.067" y2="2.028" xlink:href="#linear-gradient-6"/>
    <linearGradient id="linear-gradient-15" x1="-68.73" y1="5.015" x2="-68.373" y2="4.208" gradientUnits="objectBoundingBox">
      <stop offset="0" stop-color="#53d8ff"/>
      <stop offset="1" stop-color="#3840f7"/>
    </linearGradient>
    <linearGradient id="linear-gradient-16" x1="-65.038" y1="1.033" x2="-67.427" y2="2.075" xlink:href="#linear-gradient-9"/>
    <linearGradient id="linear-gradient-17" x1="-29.97" y1="-0.503" x2="-37.895" y2="3.117" xlink:href="#linear-gradient-6"/>
    <linearGradient id="linear-gradient-18" x1="-35.547" y1="-0.121" x2="-46.159" y2="4.13" xlink:href="#linear-gradient-6"/>
    <linearGradient id="linear-gradient-19" x1="-27.469" y1="0.5" x2="-26.469" y2="0.5" xlink:href="#linear-gradient-9"/>
    <linearGradient id="linear-gradient-20" x1="-40.529" y1="-0.004" x2="-40.543" y2="1.888" xlink:href="#linear-gradient-9"/>
    <linearGradient id="linear-gradient-21" x1="-50.866" y1="8.188" x2="-52.386" y2="9.525" xlink:href="#linear-gradient-9"/>
    <linearGradient id="linear-gradient-22" x1="-29.118" y1="5.575" x2="-28.095" y2="5.575" xlink:href="#linear-gradient-3"/>
    <linearGradient id="linear-gradient-23" x1="-146.204" y1="25.269" x2="-142.914" y2="22.913" xlink:href="#linear-gradient-9"/>
    <linearGradient id="linear-gradient-24" x1="-73.513" y1="0.5" x2="-72.513" y2="0.5" xlink:href="#linear-gradient-9"/>
    <linearGradient id="linear-gradient-25" x1="-1.636" y1="-0.218" x2="-2.98" y2="1.835" xlink:href="#linear-gradient-3"/>
    <linearGradient id="linear-gradient-26" x1="-9.943" y1="1.815" x2="-8.634" y2="-0.054" xlink:href="#linear-gradient-3"/>
    <linearGradient id="linear-gradient-27" x1="-7.043" y1="-0.592" x2="-10.595" y2="3.735" xlink:href="#linear-gradient-4"/>
    <linearGradient id="linear-gradient-28" x1="-2.141" y1="-0.454" x2="-2.804" y2="1.454" xlink:href="#linear-gradient-6"/>
    <linearGradient id="linear-gradient-29" x1="-2.106" y1="-0.454" x2="-2.77" y2="1.454" xlink:href="#linear-gradient-6"/>
    <linearGradient id="linear-gradient-30" x1="-43.088" y1="-1.222" x2="-44.781" y2="3.818" xlink:href="#linear-gradient-9"/>
  </defs>
  <g id="_20943483_преобразованный_" data-name="20943483 [преобразованный]" transform="translate(98.746 92.526)">
    <g id="Illustration" transform="translate(-122.003 -118.56)">
      <path id="Path_1342" data-name="Path 1342" d="M374.5,363.1c-10.384,10.7-12.561,12.246-19.675,17-69.38,46.328-169.771,35.125-194.291,30.564-39.56-7.363-58.989-9.962-87.681-35.884C7.661,315.877,10.83,193,60.649,116.884c5.907-9.024,54.781-79.052,134.262-89.441,1.944-.255,94.023-12.414,156.151,39.63a185.291,185.291,0,0,1,36.477,41.386C436.066,183.414,436.219,299.49,374.5,363.1Z" transform="translate(0.465)" fill="url(#linear-gradient)"/>
      <path id="Path_1343" data-name="Path 1343" d="M213.579,42.512a1.851,1.851,0,0,1,3.522-.084c6.03,17.194,17.114,65.051-20.052,119.292-46.632,68.058-45.28,102.433-34.85,128.4,0,0-21.917-21.057-24.208-56.422C132.369,146.868,204.784,73.175,213.579,42.512Z" transform="translate(178.42 23.628)" fill="#91b3fa"/>
      <path id="Path_1344" data-name="Path 1344" d="M206.368,52.607c-2.732,8.855-5.636,17.645-8.859,26.327q-4.761,13.037-10.315,25.758c-3.732,8.458-7.624,16.845-11.865,25.054-4.2,8.229-8.758,16.267-13.357,24.32-4.553,8.076-9.184,16.185-13,24.786a94.014,94.014,0,0,0-7.758,27.2c-.269,2.351-.5,4.716-.583,7.07-.129,2.355-.154,4.715-.14,7.076a97.446,97.446,0,0,0,9.472,41.112,1.791,1.791,0,0,0,3.268-1.468h0c-.909-2.1-1.791-4.2-2.578-6.344-.41-1.064-.773-2.143-1.155-3.221-.342-1.085-.725-2.157-1.032-3.252A94.592,94.592,0,0,1,145.5,233.73a103.592,103.592,0,0,1-.377-27.2,90.084,90.084,0,0,1,2.692-13.318,102.308,102.308,0,0,1,4.635-12.825c3.641-8.388,8.158-16.451,12.652-24.56s8.934-16.3,13.042-24.656q3.1-6.26,5.966-12.623c.969-2.116,1.9-4.25,2.827-6.381s1.809-4.287,2.691-6.442Q194.9,92.8,199.348,79.578c2.921-8.822,5.6-17.722,7.947-26.709a.48.48,0,1,0-.924-.262Z" transform="translate(182.798 40.89)" fill="#bdd0fb"/>
      <path id="Path_1345" data-name="Path 1345" d="M146,243.945a4.655,4.655,0,0,1-7.6-1.382c-7.338-16.694-23.823-65.791,4.934-121.811,24.278-47.309,32.96-75.267,36.013-88.233a2.919,2.919,0,0,1,5.526-.475C197.09,60.616,229.129,157.7,146,243.945Z" transform="translate(161.767 6.608)" fill="#bdd0fb"/>
      <path id="Path_1346" data-name="Path 1346" d="M133.742,205.008a1.221,1.221,0,0,1-.249.017,1.291,1.291,0,0,1-1.26-1.323c.022-.808,2.5-81.55,33.292-148.859a1.291,1.291,0,1,1,2.347,1.076c-30.57,66.813-33.038,147.038-33.059,147.846A1.29,1.29,0,0,1,133.742,205.008Z" transform="translate(169.923 43.745)" fill="url(#linear-gradient-2)"/>
      <path id="Path_1347" data-name="Path 1347" d="M36.871,291.349a6.3,6.3,0,0,0,6.281,6.276h339.7a6.3,6.3,0,0,0,6.282-6.276L391.96,96.138c0-3.452-4.061-10.19-11.519-9.685L48.449,77.859A15.824,15.824,0,0,0,32.2,94.05Z" transform="translate(13.945 80.802)" fill="url(#linear-gradient-3)"/>
      <path id="Path_1348" data-name="Path 1348" d="M39.333,280.8a5.96,5.96,0,0,0,5.943,5.942H370.923a5.959,5.959,0,0,0,5.942-5.942l2.661-177.219c-.314-10.665-9.663-14.5-15.331-14.271L46.015,80.765A11.126,11.126,0,0,0,34.6,92.15Z" transform="translate(17.683 85.335)" fill="url(#linear-gradient-4)"/>
      <g id="Group_527" data-name="Group 527" transform="translate(276.362 175.3)" opacity="0.6">
        <path id="Path_1349" data-name="Path 1349" d="M167.489,135.843h-.014a.87.87,0,0,1-.857-.885l.21-14.372a.872.872,0,0,1,.871-.858h.013a.871.871,0,0,1,.858.885l-.211,14.372a.871.871,0,0,1-.87.858Z" transform="translate(-52.822 -29.204)" fill="#fff"/>
        <path id="Path_1350" data-name="Path 1350" d="M237.339,155.778h-.013a.871.871,0,0,1-.858-.885l.808-55.046a10.331,10.331,0,0,0-2.951-7.741c-3.626-3.474-9.382-3.3-9.625-3.285L123,86.092a.87.87,0,0,1-.847-.893.84.84,0,0,1,.895-.84l101.637,2.726c.633-.038,6.762-.14,10.844,3.768a12.023,12.023,0,0,1,3.487,9.007l-.809,55.064A.87.87,0,0,1,237.339,155.778Z" transform="translate(-122.154 -84.357)" fill="#fff"/>
      </g>
      <rect id="Rectangle_554" data-name="Rectangle 554" width="400.492" height="17.152" rx="0.309" transform="translate(423.75 394.633) rotate(180)" fill="url(#linear-gradient-5)"/>
      <path id="Path_1351" data-name="Path 1351" d="M251.084,45.568,49.517,44.335A11.538,11.538,0,0,0,37.928,56.444L51.791,342.819H276.1L288.551,86.953Z" transform="translate(22.853 28.536)" fill="#91b3fa"/>
      <path id="Path_1352" data-name="Path 1352" d="M131.264,84.75a11.538,11.538,0,0,1-11.1-12.439l2.161-27.346,38.063,40.845Z" transform="translate(151.055 29.518)" fill="url(#linear-gradient-6)"/>
      <path id="Path_1353" data-name="Path 1353" d="M81.874,66.362c18.094-.028,87.558-.249,105.1-.305,2.213,0,3.969,2.1,3.882,4.66h0a4.287,4.287,0,0,1-3.921,4.392L81.881,76a4.13,4.13,0,0,1-3.889-4.078l-.046-.59C77.737,68.675,79.561,66.366,81.874,66.362Z" transform="translate(85.25 62.407)" fill="#fff" opacity="0.78"/>
      <path id="Path_1354" data-name="Path 1354" d="M81.551,74.212c18.094-.028,87.558-.251,105.1-.307,2.213,0,3.969,2.1,3.882,4.66h0a4.286,4.286,0,0,1-3.921,4.392l-105.053.895a4.131,4.131,0,0,1-3.89-4.078l-.045-.588C77.419,76.525,79.239,74.215,81.551,74.212Z" transform="translate(84.748 74.645)" fill="#fff" opacity="0.78"/>
      <path id="Path_1355" data-name="Path 1355" d="M58.264,85.227c27.946.02,135.224-.018,162.314-.028,3.417,0,6.19,2.116,6.129,4.673h0c-.059,2.434-2.679,4.371-5.932,4.383l-162.223.618c-3.126.011-5.781-1.762-6.127-4.09l-.088-.588C51.942,87.531,54.691,85.226,58.264,85.227Z" transform="translate(45.286 92.256)" fill="#fff" opacity="0.78"/>
      <path id="Path_1356" data-name="Path 1356" d="M56.974,93.869c21.752-.094,105.257-.57,126.344-.69a4.621,4.621,0,0,1,4.739,4.646h0a4.612,4.612,0,0,1-4.646,4.407l-126.278,1.28A4.659,4.659,0,0,1,52.39,99.45l-.064-.588A4.585,4.585,0,0,1,56.974,93.869Z" transform="translate(45.285 104.697)" fill="#fff" opacity="0.78"/>
      <path id="Path_1357" data-name="Path 1357" d="M58.156,104.254c27.946.02,135.225-.02,162.314-.029,3.417,0,6.191,2.116,6.129,4.673h0c-.057,2.434-2.679,4.371-5.931,4.383L58.446,113.9c-3.126.011-5.781-1.762-6.128-4.09l-.087-.588C51.835,106.55,54.583,104.245,58.156,104.254Z" transform="translate(45.119 121.922)" fill="#fff" opacity="0.78"/>
      <path id="Path_1358" data-name="Path 1358" d="M56.447,112.608c21.856.039,105.757.078,126.943.088a4.635,4.635,0,0,1,4.733,4.676h0a4.622,4.622,0,0,1-4.7,4.378l-126.873.5a4.673,4.673,0,0,1-4.739-4.093l-.062-.59A4.586,4.586,0,0,1,56.447,112.608Z" transform="translate(44.397 134.993)" fill="#fff" opacity="0.78"/>
      <path id="Path_1359" data-name="Path 1359" d="M57.619,123.662c27.944.02,135.224-.018,162.312-.028,3.418,0,6.191,2.115,6.129,4.672h0c-.057,2.435-2.679,4.371-5.931,4.383l-162.223.618c-3.126.013-5.781-1.76-6.127-4.089l-.088-.59C51.3,125.965,54.045,123.659,57.619,123.662Z" transform="translate(44.279 152.186)" fill="#fff" opacity="0.78"/>
      <path id="Path_1360" data-name="Path 1360" d="M56.2,131.923c21.856.041,105.757.08,126.943.09a4.634,4.634,0,0,1,4.733,4.676h0a4.622,4.622,0,0,1-4.694,4.378l-126.873.5a4.673,4.673,0,0,1-4.739-4.093l-.062-.588A4.576,4.576,0,0,1,56.2,131.923Z" transform="translate(44.011 165.111)" fill="#fff" opacity="0.78"/>
      <path id="Path_1361" data-name="Path 1361" d="M58.264,142.847c27.946.02,135.224-.018,162.314-.028,3.417,0,6.19,2.116,6.129,4.673h0c-.059,2.434-2.679,4.371-5.932,4.383l-162.223.618c-3.126.011-5.781-1.762-6.127-4.09l-.088-.588C51.942,145.151,54.691,142.846,58.264,142.847Z" transform="translate(45.286 182.102)" fill="#fff" opacity="0.78"/>
      <path id="Path_1362" data-name="Path 1362" d="M56.853,152.089c21.578,0,104.42-.108,125.333-.14a4.6,4.6,0,0,1,4.679,4.667h0A4.592,4.592,0,0,1,182.234,161l-125.277.725a4.63,4.63,0,0,1-4.683-4.085l-.06-.59A4.573,4.573,0,0,1,56.853,152.089Z" transform="translate(45.116 196.338)" fill="#fff" opacity="0.78"/>
      <g id="Group_528" data-name="Group 528" transform="translate(78.594 100.422)" opacity="0.78">
        <path id="Path_1363" data-name="Path 1363" d="M89.942,70.694,78.579,112.515l-3.072-.052L55.466,61.157q-1.375-3.631-2.8-4.341t-7.786-.935V55.1l31.169,1.12V57a34.471,34.471,0,0,0-7.661.291q-2.137.489-2.137,2.15a5.428,5.428,0,0,0,.546,2.112L81.016,98.366l8.2-29.845-1.909-6.24q-1.088-3.518-2.628-4.27t-7.912-.98v-.78l30.644,1.108v.772a33.117,33.117,0,0,0-7.47.291q-2.084.485-2.084,2.3a5.446,5.446,0,0,0,.356,1.909L109.66,99.072l9.7-26.4a21.3,21.3,0,0,0,1.477-6.795q0-7.268-10.559-7.647v-.77l22.606.816v.765q-6.181-.22-9.157,5.9-.438.924-3.24,8.262l-14.453,39.761-2.927-.05Z" transform="translate(-44.879 -55.1)" fill="#fff"/>
      </g>
      <path id="Path_1364" data-name="Path 1364" d="M135.331,160.552c4,.346,10.934.907,16.4,1.147a15.868,15.868,0,0,0,6.269-.613c0,.123,0,.239-.01.347a1.133,1.133,0,0,1-1.075,1.068,192.054,192.054,0,0,1-21.476.021.805.805,0,0,1-.655-1.21,6.645,6.645,0,0,1,.545-.76Z" transform="translate(173.735 209.753)" fill="url(#linear-gradient-7)"/>
      <path id="Path_1365" data-name="Path 1365" d="M151.332,166.616c-5.468-.239-12.406-.8-16.4-1.147,3.929-4.82,16.4-8.07,16.4-8.07h3.522A14.775,14.775,0,0,1,157.6,166,15.767,15.767,0,0,1,151.332,166.616Z" transform="translate(174.13 204.836)" fill="url(#linear-gradient-8)"/>
      <path id="Path_1366" data-name="Path 1366" d="M146.951,155.152l-.331,6.523a1.489,1.489,0,0,1-1.272,1.4,5.8,5.8,0,0,1-2.647-.219,1.762,1.762,0,0,1-1.185-1.356l-1.139-6.349Z" transform="translate(182.627 201.333)" fill="url(#linear-gradient-9)"/>
      <path id="Path_1367" data-name="Path 1367" d="M164.5,162.262a3.163,3.163,0,0,0,2.846-2.1l.007.025a2.252,2.252,0,0,1-1.518,2.568,9.9,9.9,0,0,1-4.2.658,4.18,4.18,0,0,1-3.152-1.454l-.01-.013C159.774,162.588,161.607,162.67,164.5,162.262Z" transform="translate(210.834 209.143)" fill="url(#linear-gradient-10)"/>
      <path id="Path_1368" data-name="Path 1368" d="M158.913,155.136h2.906c4.424-.091,7.2,9.242,8.112,12.857a3.157,3.157,0,0,1-2.846,2.1c-2.89.4-4.723.326-6.03-.319-2.39-3.147-3.575-7.754-4.145-10.443A3.661,3.661,0,0,1,158.913,155.136Z" transform="translate(208.245 201.307)" fill="url(#linear-gradient-11)"/>
      <path id="Path_1369" data-name="Path 1369" d="M162.39,152.77,164,159.186a1.743,1.743,0,0,1-.906,1.973,6.185,6.185,0,0,1-3.34.809,1.458,1.458,0,0,1-1.187-.97l-2.368-6.75Z" transform="translate(207.3 197.618)" fill="url(#linear-gradient-12)"/>
      <path id="Path_1370" data-name="Path 1370" d="M197.153,209.073c-2.007,1.781-8.535,2.017-8.535,2.017-23.514-56.435-33.133-64.455-33.133-64.455,3.4,21.3.548,68.461.548,68.461-3.88,1.713-8.882,0-8.882,0a363.491,363.491,0,0,0-12.008-89.264c15.893-.358,24.344-5.8,27.1-7.982C175.5,139.212,197.153,209.073,197.153,209.073Z" transform="translate(174.461 143.169)" fill="url(#linear-gradient-13)"/>
      <path id="Path_1371" data-name="Path 1371" d="M171.2,92.728c3.008,15,1.93,41.86,1.221,54.11-.2,3.442,2.206,8.216,4.148,11.472a1.022,1.022,0,0,1-.408,1.442c-3.252,1.672-14.271,6.852-27.041,7.5a1.82,1.82,0,0,1-1.832-1.36c-9.473-35.37-20.476-57.975-20.476-57.975C138.953,88.513,171.2,92.728,171.2,92.728Z" transform="translate(161.472 103.393)" fill="url(#linear-gradient-14)"/>
      <path id="Path_1372" data-name="Path 1372" d="M148.427,134.258a.753.753,0,0,0,.643-1.144,23.6,23.6,0,0,0-9.322-8.094.753.753,0,1,0-.655,1.356,22.492,22.492,0,0,1,8.692,7.521A.752.752,0,0,0,148.427,134.258Z" transform="translate(179.915 154.21)" fill="url(#linear-gradient-15)"/>
      <path id="Path_1373" data-name="Path 1373" d="M158.659,109.953c-.966,6.991-3.822,14.614-9.532,22.713l-2.171-1.769a67.056,67.056,0,0,0,1.081-21.706C151.56,108.5,155.721,109.211,158.659,109.953Z" transform="translate(192.881 129.23)" fill="url(#linear-gradient-16)"/>
      <path id="Path_1374" data-name="Path 1374" d="M142.842,111.005,146.2,92.492s22.449,17.16,18.869,43.063c-2.941-.742-7.1-1.451-10.622-.765C153.424,126.478,150.358,117.454,142.842,111.005Z" transform="translate(186.468 103.628)" fill="url(#linear-gradient-17)"/>
      <path id="Path_1375" data-name="Path 1375" d="M131.821,98.425l8.665,18.663c-1.4,11.266-7.454,16.138-13.98,18.006a39.631,39.631,0,0,0-2.91-12.152C131.936,114.332,131.821,98.425,131.821,98.425Z" transform="translate(156.458 112.879)" fill="url(#linear-gradient-18)"/>
      <path id="Path_1376" data-name="Path 1376" d="M135.238,108a39.632,39.632,0,0,1,2.91,12.152c-17.411,6.755-22.018-6.345-22.018-6.345l3.221-.56C126.615,114.009,131.691,111.663,135.238,108Z" transform="translate(144.816 127.815)" fill="url(#linear-gradient-19)"/>
      <path id="Path_1377" data-name="Path 1377" d="M129.929,91.949l4.183,15.379a2.993,2.993,0,0,0,4,1.991,60.447,60.447,0,0,0,6.029-2.755,4.032,4.032,0,0,0,1.423-5.793l-8.7-12.969Z" transform="translate(166.333 96.315)" fill="url(#linear-gradient-20)"/>
      <path id="Path_1378" data-name="Path 1378" d="M126.354,86.361c-.039.265,3.488,17.549,3.488,17.549l9.826-2.224-.909-16.88S126.991,81.94,126.354,86.361Z" transform="translate(160.757 90.219)" fill="url(#linear-gradient-21)"/>
      <path id="Path_1379" data-name="Path 1379" d="M139.2,92.1l1.175,8.849a1.308,1.308,0,0,1,0,.339c-.1.7-.616,3.054-3,2.381-2.162-.613-4.145-1.14-5.515-.721a1.248,1.248,0,0,0-.857,1.442,53.857,53.857,0,0,0,2.262,8.054,1.242,1.242,0,0,0,1.51.735,40.161,40.161,0,0,0,8.661-3.544,1.245,1.245,0,0,0,.608-1.12c-.094-2.241-.356-9.024-.14-10.923.206-1.787,2.4-2.857,3.351-3.24a1.227,1.227,0,0,0,.682-.685c.441-1.106,1.049-3.663-2.175-4.712a1.248,1.248,0,0,1-.79-1.615,3.244,3.244,0,0,0-1.82-4.481,4.566,4.566,0,0,0-5.449,1.314,1.246,1.246,0,0,1-1.589.188.983.983,0,0,0-1.12.038,1.228,1.228,0,0,1-1.739-.527,3.721,3.721,0,0,0-4.326-2.155c-4.4.753-4.9,5.634-3.74,8.493s5.89,1.77,8.262.329c1.8-1.1,4.142.052,5.16.667a1.234,1.234,0,0,1,.59.9Z" transform="translate(158.103 86.691)" fill="url(#linear-gradient-22)"/>
      <path id="Path_1380" data-name="Path 1380" d="M132.813,93.318s-1.811-5.069.049-6.31,4.621-.6,4.008,3.081C136.116,94.652,132.813,93.318,132.813,93.318Z" transform="translate(169.597 94.177)" fill="url(#linear-gradient-23)"/>
      <path id="Path_1381" data-name="Path 1381" d="M120.8,115.885c-.877.685-3.879-.745-5.716-1.734a2.115,2.115,0,0,1-1.022-2.5c.443-1.4,1.179-3.194,2.087-3.421C117.654,107.856,124.411,113.063,120.8,115.885Z" transform="translate(141.438 128.14)" fill="url(#linear-gradient-24)"/>
      <path id="Path_1382" data-name="Path 1382" d="M321.487,177.438,92.2,95.894l-12.131,33.7,229.2,83.823a10.692,10.692,0,0,0,12.91-4.673c2.679-4.6,5.239-11.791,5.394-22.559a9.156,9.156,0,0,0-6.09-8.743Z" transform="translate(88.589 108.932)" fill="url(#linear-gradient-25)"/>
      <path id="Path_1383" data-name="Path 1383" d="M58.189,92.5,89.86,96.388c-.034,4.359-1.461,10-6.292,16.468L57.118,95.408A1.592,1.592,0,0,1,58.189,92.5Z" transform="translate(51.674 103.617)" fill="url(#linear-gradient-26)"/>
      <path id="Path_1384" data-name="Path 1384" d="M112.566,98.83a44.123,44.123,0,0,1-12.131,33.7L67.012,110.479c4.831-6.47,6.258-12.109,6.292-16.468Z" transform="translate(68.226 105.995)" fill="url(#linear-gradient-27)"/>
      <path id="Path_1385" data-name="Path 1385" d="M307.349,179.848a.674.674,0,0,0,.224-1.309L88.212,101.014a.674.674,0,1,0-.45,1.27l219.362,77.524a.663.663,0,0,0,.224.039Z" transform="translate(99.882 116.856)" fill="url(#linear-gradient-28)"/>
      <path id="Path_1386" data-name="Path 1386" d="M305.871,185.011a.674.674,0,0,0,.224-1.309L86.735,106.177a.674.674,0,1,0-.45,1.27l219.361,77.524a.671.671,0,0,0,.225.039Z" transform="translate(97.579 124.906)" fill="url(#linear-gradient-29)"/>
      <path id="Path_1387" data-name="Path 1387" d="M156.153,117.885l-10.133-.826-4.389,4.046s1.038,1.435,4.284.611a46.529,46.529,0,0,1,7.692-1.028s4.481,2.021,4.536-1.76Z" transform="translate(184.579 141.934)" fill="url(#linear-gradient-30)"/>
    </g>
  </g>
</svg>
