<svg xmlns="http://www.w3.org/2000/svg" xmlns:xlink="http://www.w3.org/1999/xlink" width="75" height="75" viewBox="0 0 75 75">
  <defs>
    <filter id="Path_1019" x="0" y="0" width="75" height="75" filterUnits="userSpaceOnUse">
      <feOffset input="SourceAlpha"/>
      <feGaussianBlur stdDeviation="6" result="blur"/>
      <feFlood flood-color="#e8d1b7" flood-opacity="0.369"/>
      <feComposite operator="in" in2="blur"/>
      <feComposite in="SourceGraphic"/>
    </filter>
  </defs>
  <g id="dns" transform="translate(17 17)">
    <path id="Path_1016" data-name="Path 1016" d="M32.887,5H31v6.29h1.887a3.145,3.145,0,0,0,0-6.29Zm0,5.032h-.629V6.258h.629a1.887,1.887,0,0,1,0,3.774Z" transform="translate(-11.129 -1.484)" fill="#e8d1b7"/>
    <path id="Path_1017" data-name="Path 1017" d="M52.887,6.258h1.258a.63.63,0,0,1,.629.629h1.258A1.889,1.889,0,0,0,54.145,5H52.887a1.887,1.887,0,1,0,0,3.774h1.258a.629.629,0,0,1,0,1.258H52.887a.63.63,0,0,1-.629-.629H51a1.889,1.889,0,0,0,1.887,1.887h1.258a1.887,1.887,0,0,0,0-3.774H52.887a.629.629,0,1,1,0-1.258Z" transform="translate(-18.548 -1.484)" fill="#e8d1b7"/>
    <path id="Path_1018" data-name="Path 1018" d="M44.774,9.255,42.647,5H41v6.29h1.258V7.036l2.127,4.255h1.647V5H44.774Z" transform="translate(-14.839 -1.484)" fill="#e8d1b7"/>
    <g transform="matrix(1, 0, 0, 1, -17, -17)" filter="url(#Path_1019)">
      <path id="Path_1019-2" data-name="Path 1019" d="M38.113,1H19.242a1.889,1.889,0,0,0-1.887,1.887V6.032H15.637l-.482,1.513a15.755,15.755,0,0,0-6.107,2.533L7.634,9.347,4.316,12.665l.731,1.414a15.729,15.729,0,0,0-2.532,6.107L1,20.669v4.694l1.513.481a15.744,15.744,0,0,0,2.532,6.107l-.731,1.414,3.318,3.319,1.414-.732a15.745,15.745,0,0,0,6.107,2.533L15.637,40h4.694l.482-1.513a15.754,15.754,0,0,0,6.107-2.533l1.414.732,3.318-3.319-.731-1.414a15.729,15.729,0,0,0,2.532-6.107l1.513-.482V20.669l-1.513-.481a15.744,15.744,0,0,0-2.532-6.107l.731-1.414-.344-.343h6.8A1.889,1.889,0,0,0,40,10.435V2.887A1.889,1.889,0,0,0,38.113,1ZM20.592,14.607c.155.47.3.965.423,1.49H14.944c.637-2.692,1.6-4.462,2.569-4.909a1.89,1.89,0,0,0,1.729,1.135h.629v1A1.514,1.514,0,0,0,20.592,14.607ZM24.1,12.755A11.959,11.959,0,0,1,27.725,16.1H22.3q-.16-.712-.353-1.368a1.514,1.514,0,0,0,.513-.335Zm-16.64,4.6H13.42a33.56,33.56,0,0,0-.462,5.032H6.064A11.868,11.868,0,0,1,7.462,17.355Zm.8-1.258a11.968,11.968,0,0,1,7.295-4.783A13.412,13.412,0,0,0,13.666,16.1Zm5.964,6.29a31.721,31.721,0,0,1,.466-5.032h6.591a31.628,31.628,0,0,1,.47,5.032Zm7.526,1.258a31.721,31.721,0,0,1-.466,5.032H14.686a31.721,31.721,0,0,1-.466-5.032Zm-8.789,0a33.643,33.643,0,0,0,.462,5.032H7.461a11.868,11.868,0,0,1-1.4-5.032Zm.709,6.29a13.412,13.412,0,0,0,1.886,4.783,11.968,11.968,0,0,1-7.295-4.783Zm1.278,0h6.08c-.74,3.131-1.929,5.032-3.039,5.032S15.685,33.067,14.944,29.935Zm7.357,0h5.409a11.968,11.968,0,0,1-7.295,4.783A13.413,13.413,0,0,0,22.3,29.935Zm6.2-1.258H22.548a33.56,33.56,0,0,0,.462-5.032H29.9A11.868,11.868,0,0,1,28.506,28.677Zm-5.5-6.29a33.142,33.142,0,0,0-.454-5.032H28.5a11.939,11.939,0,0,1,1.41,5.032Zm7.107-9.482-.664,1.283.229.315a14.464,14.464,0,0,1,2.6,6.265l.06.384,1.373.437v2.854l-1.373.437-.06.384a14.461,14.461,0,0,1-2.6,6.265l-.229.315.664,1.283-2.019,2.018-1.283-.664-.314.229a14.467,14.467,0,0,1-6.266,2.6l-.384.06-.437,1.373H16.557l-.437-1.373-.384-.06a14.467,14.467,0,0,1-6.266-2.6l-.314-.229-1.283.664L5.855,33.127l.664-1.283-.229-.315a14.464,14.464,0,0,1-2.6-6.265l-.06-.384-1.374-.437V21.589l1.373-.437.06-.384A14.461,14.461,0,0,1,6.29,14.5l.229-.315-.664-1.283,2.019-2.018,1.283.664.314-.229a14.467,14.467,0,0,1,6.266-2.6l.384-.06.437-1.373h.8V9.839a13.18,13.18,0,1,0,8.383,2.484H29.53Zm8.629-2.47a.63.63,0,0,1-.629.629h-14.1L21.573,13.5a.271.271,0,0,1-.444-.184V11.065H19.242a.63.63,0,0,1-.629-.629V2.887a.63.63,0,0,1,.629-.629H38.113a.63.63,0,0,1,.629.629Z" transform="translate(17 17)" fill="#e8d1b7"/>
    </g>
    <path id="Path_1020" data-name="Path 1020" d="M51,49h6.29v1.258H51Z" transform="translate(-18.548 -17.806)" fill="#e8d1b7"/>
    <path id="Path_1021" data-name="Path 1021" d="M51,53h6.29v1.258H51Z" transform="translate(-18.548 -19.29)" fill="#e8d1b7"/>
    <path id="Path_1022" data-name="Path 1022" d="M55,57h1.258v1.258H55Z" transform="translate(-20.032 -20.774)" fill="#e8d1b7"/>
    <path id="Path_1023" data-name="Path 1023" d="M51,57h1.258v1.258H51Z" transform="translate(-18.548 -20.774)" fill="#e8d1b7"/>
    <path id="Path_1024" data-name="Path 1024" d="M59,57h1.258v1.258H59Z" transform="translate(-21.516 -20.774)" fill="#e8d1b7"/>
    <path id="Path_1025" data-name="Path 1025" d="M3,3H9.29V4.258H3Z" transform="translate(-0.742 -0.742)" fill="#e8d1b7"/>
    <path id="Path_1026" data-name="Path 1026" d="M3,7H9.29V8.258H3Z" transform="translate(-0.742 -2.226)" fill="#e8d1b7"/>
    <path id="Path_1027" data-name="Path 1027" d="M3,11H4.258v1.258H3Z" transform="translate(-0.742 -3.71)" fill="#e8d1b7"/>
    <path id="Path_1028" data-name="Path 1028" d="M11,11h1.258v1.258H11Z" transform="translate(-3.71 -3.71)" fill="#e8d1b7"/>
    <path id="Path_1029" data-name="Path 1029" d="M7,11H8.258v1.258H7Z" transform="translate(-2.226 -3.71)" fill="#e8d1b7"/>
  </g>
</svg>
